<svg xmlns="http://www.w3.org/2000/svg" width="76" height="69.069" viewBox="0 0 76 69.069">
  <defs>
    <style>
      .cls-1 {
        fill: #330c95;
      }

      .cls-2 {
        fill: #1dd1a1;
      }
    </style>
  </defs>
  <g id="campanhas_plataformas" transform="translate(-920 -2195)">
    <g id="Grupo_10270" data-name="Grupo 10270" transform="translate(920 2195)">
      <path id="Caminho_28514" data-name="Caminho 28514" class="cls-1" d="M74.945,76.711h-1.96V27.479a4.9,4.9,0,0,0-4.958-4.843H7.956a4.728,4.728,0,0,0-4.843,4.843V76.711H1.153A1.089,1.089,0,0,0,0,77.864v3.228A10.58,10.58,0,0,0,10.608,91.7H65.375A10.58,10.58,0,0,0,75.982,81.093V77.864A.954.954,0,0,0,74.945,76.711ZM5.419,27.479a2.586,2.586,0,0,1,2.537-2.652H68.142a2.661,2.661,0,0,1,2.652,2.537V76.711H5.419Zm68.372,53.5a8.267,8.267,0,0,1-8.3,8.3H10.607a8.267,8.267,0,0,1-8.3-8.3v-1.96H73.791v1.96Z" transform="translate(0 -22.632)"/>
      <path id="Caminho_28515" data-name="Caminho 28515" class="cls-2" d="M149.483,128.727h3.574l-.577,4.612a1.419,1.419,0,0,0,.577,1.153,1.237,1.237,0,0,0,1.268-.115l6.226-5.65h17.064a1.089,1.089,0,0,0,1.153-1.153V108.9a1.089,1.089,0,0,0-1.153-1.153H149.483a1.089,1.089,0,0,0-1.153,1.153v18.678A1.24,1.24,0,0,0,149.483,128.727Zm27.1-18.679v16.373H160.321a1.246,1.246,0,0,0-.807.346l-4.381,3.92.346-2.883a2.172,2.172,0,0,0-.231-.922,1.246,1.246,0,0,0-.807-.346h-3.69V110.049Z" transform="translate(-125.616 -94.71)"/>
      <path id="Caminho_28516" data-name="Caminho 28516" class="cls-2" d="M149.483,282.113h16.949a3.638,3.638,0,0,0,3.574,2.537,3.854,3.854,0,0,0,3.574-2.537h4.266a1.153,1.153,0,0,0,0-2.306H173.58a3.736,3.736,0,0,0-3.574-2.652,3.846,3.846,0,0,0-3.574,2.652H149.483a1.089,1.089,0,0,0-1.153,1.153A1.155,1.155,0,0,0,149.483,282.113Zm20.523-2.537a1.384,1.384,0,1,1-1.384,1.384A1.332,1.332,0,0,1,170.006,279.576Z" transform="translate(-125.616 -238.179)"/>
      <path id="Caminho_28517" data-name="Caminho 28517" class="cls-1" d="M117.777,61.06H62.895a1.089,1.089,0,0,0-1.153,1.153v42.2a1.089,1.089,0,0,0,1.153,1.153h55a1.089,1.089,0,0,0,1.153-1.153v-42.2A1.355,1.355,0,0,0,117.777,61.06Zm-1.038,42.2H64.048V63.366H116.74Z" transform="translate(-52.287 -55.175)"/>
      <path id="Caminho_28518" data-name="Caminho 28518" class="cls-1" d="M226.791,406.971a3.92,3.92,0,1,0-3.92-3.92A3.888,3.888,0,0,0,226.791,406.971Zm0-5.534a1.614,1.614,0,1,1-1.614,1.614A1.576,1.576,0,0,1,226.791,401.437Z" transform="translate(-188.742 -341.477)"/>
      <path id="Caminho_28519" data-name="Caminho 28519" class="cls-2" d="M221.473,148.868a2.138,2.138,0,0,0,.807-.231l7.379-4.151a1.8,1.8,0,0,0,.807-1.5,1.971,1.971,0,0,0-.807-1.5l-7.379-4.151a2.138,2.138,0,0,0-.807-.231,1.576,1.576,0,0,0-1.614,1.614v8.417A1.607,1.607,0,0,0,221.473,148.868Zm.692-8.878,5.419,3.113-5.419,3.113Z" transform="translate(-186.192 -119.577)"/>
    </g>
  </g>
</svg>
