<svg xmlns="http://www.w3.org/2000/svg" xmlns:xlink="http://www.w3.org/1999/xlink" width="106" height="106" viewBox="0 0 106 106">
  <defs>
    <style>
      .cls-1 {
        fill: url(#linear-gradient);
      }
    </style>
    <linearGradient id="linear-gradient" x1="-0.755" y1="0.55" x2="1.762" y2="0.5" gradientUnits="objectBoundingBox">
      <stop offset="0" stop-color="#48dbfb"/>
      <stop offset="1" stop-color="#1dd1a1"/>
    </linearGradient>
  </defs>
  <path id="União_4" data-name="União 4" class="cls-1" d="M-7643.774-76.84v-17.1h-3.419v-3.419h3.419v-3.419h-3.419v-3.419h3.419v-4.428a23.967,23.967,0,0,1-17.1-22.927,23.962,23.962,0,0,1,23.934-23.936A23.963,23.963,0,0,1-7613-131.548a23.968,23.968,0,0,1-17.1,22.927v4.428h3.419v3.419h-3.419v3.419h3.419v3.419h-3.419v17.1a6.846,6.846,0,0,1-6.838,6.84A6.847,6.847,0,0,1-7643.774-76.84Zm3.419,0a3.424,3.424,0,0,0,3.419,3.421,3.423,3.423,0,0,0,3.419-3.421v-17.1h-6.838Zm0-20.515h6.838v-3.419h-6.838Zm0-6.838h6.838v-3.694a23.694,23.694,0,0,1-3.419.275,23.966,23.966,0,0,1-3.419-.275Zm-17.1-27.355a20.538,20.538,0,0,0,20.515,20.517,20.54,20.54,0,0,0,20.517-20.517,20.54,20.54,0,0,0-20.517-20.517A20.538,20.538,0,0,0-7657.451-131.548ZM-7719-93.935v-61.549h3.419v58.13h64.968v3.419Zm51-7.065v-3h4v3Zm-30,0v-3h27v3Zm6-7v-3h28v3Zm-6,0v-3h3v3Zm0-6v-4h34v4Zm43.969-17.549a17.116,17.116,0,0,1,17.1-17.1,17.116,17.116,0,0,1,17.1,17.1,17.116,17.116,0,0,1-17.1,17.1A17.116,17.116,0,0,1-7654.032-131.548Zm3.419,0a13.692,13.692,0,0,0,13.677,13.677,13.694,13.694,0,0,0,13.679-13.677,13.694,13.694,0,0,0-13.679-13.677A13.692,13.692,0,0,0-7650.613-131.548Zm-47.873,10.258v-34.194h34.194v34.194Zm3.421-3.419h27.354v-27.355h-27.354Zm20.515-3.419v-3.419a3.424,3.424,0,0,0-3.419-3.419h-6.838a3.422,3.422,0,0,0-3.419,3.419v3.419h-3.419v-3.419a6.825,6.825,0,0,1,4.593-6.43,6.811,6.811,0,0,1-1.174-3.828,6.845,6.845,0,0,1,6.838-6.838,6.845,6.845,0,0,1,6.838,6.838,6.811,6.811,0,0,1-1.174,3.828,6.825,6.825,0,0,1,4.593,6.43v3.419Zm-10.258-13.677a3.423,3.423,0,0,0,3.419,3.419,3.424,3.424,0,0,0,3.419-3.419,3.422,3.422,0,0,0-3.419-3.419A3.421,3.421,0,0,0-7684.807-141.806ZM-7719-158.9V-176h75.226v17.1Zm3.419-3.419h68.388v-10.258h-68.388ZM-7698-166v-3h3v3Zm-7,0v-3h3v3Zm-7,0v-3h3v3Z" transform="translate(7719 176)"/>
</svg>
