<svg xmlns="http://www.w3.org/2000/svg" width="71.567" height="71.567" viewBox="0 0 71.567 71.567">
  <defs>
    <style>
      .cls-1 {
        fill: #1dd1a1;
      }

      .cls-2 {
        fill: #330c95;
      }
    </style>
  </defs>
  <g id="conteudo_editorial" transform="translate(-1193 -2188)">
    <g id="editorial-design" transform="translate(1193 2188)">
      <g id="Grupo_10273" data-name="Grupo 10273" transform="translate(12.301 50.041)">
        <g id="Grupo_10272" data-name="Grupo 10272">
          <path id="Caminho_28520" data-name="Caminho 28520" class="cls-1" d="M90.386,358.411a1.4,1.4,0,1,0,.41.988A1.408,1.408,0,0,0,90.386,358.411Z" transform="translate(-88 -358.001)"/>
        </g>
      </g>
      <g id="Grupo_10275" data-name="Grupo 10275" transform="translate(53.675 38.02)">
        <g id="Grupo_10274" data-name="Grupo 10274">
          <path id="Caminho_28521" data-name="Caminho 28521" class="cls-2" d="M386.386,272.411a1.4,1.4,0,1,0,.41.988A1.408,1.408,0,0,0,386.386,272.411Z" transform="translate(-384 -272.001)"/>
        </g>
      </g>
      <g id="Grupo_10277" data-name="Grupo 10277" transform="translate(17.892 11.741)">
        <g id="Grupo_10276" data-name="Grupo 10276">
          <path id="Caminho_28522" data-name="Caminho 28522" class="cls-1" d="M159.59,84H129.4a1.4,1.4,0,0,0-1.4,1.4v8.946a1.4,1.4,0,0,0,1.4,1.4H159.59a1.4,1.4,0,0,0,1.4-1.4V85.4A1.4,1.4,0,0,0,159.59,84Zm-1.4,8.946H130.8V86.8h27.4Z" transform="translate(-128 -84.001)"/>
        </g>
      </g>
      <g id="Grupo_10279" data-name="Grupo 10279" transform="translate(41.235 27.397)">
        <g id="Grupo_10278" data-name="Grupo 10278">
          <path id="Caminho_28523" data-name="Caminho 28523" class="cls-1" d="M303.247,196H296.4a1.4,1.4,0,1,0,0,2.8h6.849a1.4,1.4,0,1,0,0-2.8Z" transform="translate(-295 -196.001)"/>
        </g>
      </g>
      <g id="Grupo_10281" data-name="Grupo 10281" transform="translate(0 0)">
        <g id="Grupo_10280" data-name="Grupo 10280" transform="translate(0 0)">
          <path id="Caminho_28524" data-name="Caminho 28524" class="cls-2" d="M70.423,60.263,45.489,35.328a1.4,1.4,0,0,0-.49-.317L31.763,29.959a1.4,1.4,0,0,0-1.8,1.8l3.455,9.053H20.687V30.193h6.849a1.4,1.4,0,1,0,0-2.8H19.29a1.4,1.4,0,0,0-1.4,1.4V42.214a1.4,1.4,0,0,0,1.4,1.4H34.481L35.01,45a1.4,1.4,0,0,0,.317.49l2.037,2.037H19.29a1.4,1.4,0,1,0,0,2.8H40.16l3.914,3.914H19.29a1.4,1.4,0,0,0,0,2.8h27.58l5.591,5.591H14.966A7.543,7.543,0,0,0,2.8,58.161V7.549a4.752,4.752,0,0,1,9.5,0V45.373a1.4,1.4,0,0,0,2.8,0V8.947H52.277a1.4,1.4,0,0,1,1.4,1.4V34.428a1.4,1.4,0,0,0,2.8,0V10.345a4.2,4.2,0,0,0-4.193-4.193H14.964A7.547,7.547,0,0,0,0,7.549V64.02a7.557,7.557,0,0,0,7.548,7.548h37.1a4.2,4.2,0,0,0,4.193-4.193V65.418h6.227a1.387,1.387,0,0,0,.171-.012l5.018,5.018a3.912,3.912,0,0,0,5.526,0l4.635-4.635a3.907,3.907,0,0,0,0-5.526ZM46.051,67.375a1.4,1.4,0,0,1-1.4,1.4H7.548A4.752,4.752,0,1,1,12.3,64.02a1.4,1.4,0,0,0,1.4,1.4H46.051Zm-9.2-25.387-3.169-8.3,8.3,3.169Zm1.44,2.514L44.5,38.294l18.8,18.8L57.089,63.3Zm30.153,19.31-4.635,4.635a1.113,1.113,0,0,1-1.572,0l-3.172-3.172,6.207-6.207,3.172,3.172a1.112,1.112,0,0,1,0,1.572Z" transform="translate(0 -0.001)"/>
        </g>
      </g>
    </g>
  </g>
</svg>
