<svg xmlns="http://www.w3.org/2000/svg" xmlns:xlink="http://www.w3.org/1999/xlink" width="1080.001" height="269.749" viewBox="0 0 1080.001 269.749">
  <defs>
    <linearGradient id="linear-gradient" x1="0.697" y1="0.04" x2="0" y2="0.5" gradientUnits="objectBoundingBox">
      <stop offset="0" stop-color="#5e2acc" stop-opacity="0"/>
      <stop offset="1" stop-color="#26cda2"/>
    </linearGradient>
    <linearGradient id="linear-gradient-2" x1="-0.138" y1="0.191" x2="1.147" y2="0.91" gradientUnits="objectBoundingBox">
      <stop offset="0" stop-color="#1dd1a1"/>
      <stop offset="1" stop-color="#349ab0"/>
    </linearGradient>
    <linearGradient id="linear-gradient-3" x1="0.962" y1="0.651" x2="0" y2="0.833" gradientUnits="objectBoundingBox">
      <stop offset="0" stop-color="#48dbfb"/>
      <stop offset="1" stop-color="#30a4ad"/>
    </linearGradient>
    <linearGradient id="linear-gradient-4" x1="0.99" x2="0.271" y2="0.921" gradientUnits="objectBoundingBox">
      <stop offset="0" stop-color="#5f27cd"/>
      <stop offset="1" stop-color="#1dd1a1" stop-opacity="0"/>
    </linearGradient>
    <linearGradient id="linear-gradient-5" x1="0.039" y1="0.96" x2="0.949" y2="0.068" gradientUnits="objectBoundingBox">
      <stop offset="0" stop-color="#26cda2"/>
      <stop offset="0.35" stop-color="#3691b2"/>
      <stop offset="0.665" stop-color="#446bbb"/>
      <stop offset="1" stop-color="#5e29cc"/>
    </linearGradient>
  </defs>
  <g id="Grupo_10403" data-name="Grupo 10403" transform="translate(-281 -1246.623)">
    <g id="Grupo_10355" data-name="Grupo 10355" transform="translate(281 1246.73)">
      <g id="Grupo_10354" data-name="Grupo 10354" transform="translate(7.667 0)">
        <path id="Subtração_3" data-name="Subtração 3" d="M264.105,126.495h0c-.131-2.207-.32-4.435-.562-6.621l4-.442v.007l0,.019,0,.033,0,.031,0,.02,0,.04v.011l0,.046v.006c.238,2.188.425,4.413.555,6.611l-4.021.239ZM4.018,124.668h0L0,124.373c.128-1.746.293-3.511.488-5.247v0l.005-.048v-.007l.005-.044v-.013l0-.037,0-.019,0-.031,0-.027,0-.026,0-.027,0-.024,0-.034,0-.016,0-.039,0-.012.005-.045v-.006l.006-.05c.035-.3.074-.627.127-1.059l4,.5c-.272,2.183-.492,4.408-.654,6.611Zm258.628-11.376h0c-.353-2.176-.767-4.371-1.231-6.526l3.939-.849c.137.634.264,1.249.38,1.828l.01.05v.007l.009.045v.009l.009.042,0,.012.008.04,0,.013.007.037,0,.017.007.034,0,.018.007.033,0,.02.006.03,0,.023.005.027.005.027,0,.024.006.028,0,.022.007.032,0,.016.007.037,0,.013.008.04,0,.01.008.04,0,.013.008.04v.009l.009.044v.006c.138.712.27,1.422.392,2.11l.009.051v0l.009.049v0l.008.049v0l.009.05v0l.008.048v.006l.008.045v.008l.008.044,0,.009.007.042,0,.012.007.039,0,.017.006.034,0,.021.005.03,0,.027,0,.024.006.032,0,.02.007.038,0,.012.008.046v.006c.066.386.132.778.194,1.164l-3.976.646Zm-256.985-1.8h0l-3.967-.7c.257-1.45.54-2.91.842-4.339v0l.01-.048v0l.01-.046v-.007l.009-.044,0-.008.008-.041,0-.013.008-.039,0-.012.008-.039,0-.015.008-.035,0-.019.007-.032.005-.023.005-.028.006-.025.005-.026.006-.029,0-.021.007-.034,0-.017.009-.039,0-.012.009-.041,0-.011c.124-.572.25-1.132.372-1.664l3.926.9c-.493,2.142-.939,4.331-1.324,6.509ZM259.85,100.31h0c-.574-2.13-1.211-4.271-1.893-6.365l3.831-1.247c.239.732.471,1.469.692,2.189l0,.006.013.042.006.018.01.032.006.022.008.027.009.028.007.021.009.032.005.016.01.034,0,.016.011.036,0,.013.011.038,0,.012.012.04,0,.009.013.042v.006l.014.047c.256.846.5,1.7.737,2.53v.005l.013.045v0l.012.041,0,.012.009.035,0,.016.009.031.007.023.007.025.007.026.007.023.008.03,0,.017.01.035,0,.014.011.04,0,.008.012.043,0,.008.013.048c.071.257.142.518.212.777l-3.89,1.049ZM8.641,98.545h0l-3.874-1.1c.533-1.872,1.116-3.758,1.732-5.6v0l.015-.044,0-.006.015-.043,0-.006.014-.042,0-.009.012-.037.005-.015.012-.035,0-.015.011-.034.006-.017.011-.033.006-.017.011-.031.007-.02.01-.029.007-.021.01-.027.008-.024.009-.026.009-.027.007-.021.01-.032L6.71,91.2l.011-.032.006-.018.012-.034.005-.015.016-.049c.017-.05.035-.1.052-.151l3.813,1.3c-.713,2.088-1.38,4.22-1.984,6.338Zm247.1-10.86h0c-.79-2.059-1.643-4.125-2.537-6.139l3.683-1.634c.924,2.083,1.8,4.213,2.616,6.33l-3.762,1.443ZM12.931,85.979h0l-3.74-1.5c.18-.45.359-.89.532-1.309.075-.184.15-.363.213-.515l0-.006.014-.035.006-.015.013-.031.007-.017.012-.029L10,82.508l.012-.028.009-.021.01-.024.01-.025.01-.023.011-.026.009-.022.01-.025.011-.025.01-.024.01-.023.01-.025.01-.025.01-.023.01-.024.011-.025.01-.024.012-.027.008-.019.012-.029.009-.02.012-.027.009-.02.011-.026.01-.024.011-.025.009-.021.013-.029.008-.02.011-.026.039-.093.011-.025.008-.019.012-.028.011-.025.009-.023.012-.027.008-.02.012-.028.009-.02.012-.028.008-.018.013-.03.008-.018.012-.029.008-.019.012-.028.009-.021.012-.027.009-.02.012-.028.009-.019.012-.029.008-.018.013-.029.009-.021.012-.027.009-.02.012-.028.008-.02.012-.028.008-.018.013-.03.008-.017.013-.03.008-.017.013-.03.006-.014.036-.082.036-.082.005-.011.012-.029.008-.02.012-.026.009-.021.012-.028.009-.02.011-.026.01-.022.011-.026.009-.023.011-.024.011-.024.011-.024.01-.024.01-.023.011-.026.01-.021.012-.027.009-.02.013-.029.009-.019.013-.029.008-.019.013-.029.008-.019.014-.03.007-.017.015-.033.007-.015.016-.035.005-.012.018-.041,0-.006c.253-.57.505-1.127.748-1.654l3.659,1.686c-.92,2-1.8,4.049-2.623,6.1ZM250.354,75.545h0c-1-1.967-2.057-3.935-3.151-5.847l3.5-2c.34.6.675,1.191,1,1.77l.026.046v0l.024.044,0,0,.025.044.025.045,0,0,.023.043,0,0,.023.043,0,0,.025.045.025.046.108.2.047.085.025.046v0l.023.044,0,.007.021.039.005.008.02.038.006.01.019.036.006.011.019.034.008.015.017.032.008.014.017.032.008.016.016.03.009.016.016.03.009.017.016.03.008.016.016.029.01.019.015.027.01.019.015.028.01.019.017.031.008.015.016.03.013.023.021.04.007.012.018.033.01.019.015.027.012.022.013.023.013.026.012.021.013.025.011.02.013.025.012.022.013.024.011.021.013.025.012.021.013.025.011.02.013.025.011.021.014.026.009.018.015.029.009.018.015.028.009.017.015.028.01.02.014.025.011.021.013.025.012.022.013.024.013.025.012.021.015.028.051.1.006.012.016.029.009.017.015.029.009.017.015.028.009.018.015.028.01.019.013.025.011.022.013.025.011.021.014.027.009.017.015.029.009.017.014.027.011.021.013.025.011.021.013.025.011.021.013.026.012.023.011.022.015.028.009.018.016.029.009.017.014.029.01.019.019.037,0,.008.024.047.025.047,0,.008.02.038.006.012.019.036,0,.009.02.037.007.013.017.033.008.016.016.03.009.017.016.031.008.016.016.03.008.016.017.033.007.013.018.036.005.011.02.039,0,.007.02.04,0,.008.021.041,0,.005.022.043,0,0,.066.131.127.251-3.594,1.82ZM18.487,73.918h0l-3.568-1.87c.343-.655.7-1.322,1.06-1.982l0-.007L16,70.019l.007-.011.018-.033.009-.017.017-.03.008-.016.016-.029.011-.019.014-.026.012-.022.011-.021.014-.026.011-.019.015-.028.008-.016.017-.03.008-.015.017-.031.007-.012.018-.033.005-.009c.649-1.177,1.324-2.359,2.006-3.512l3.468,2.051c-1.123,1.9-2.211,3.851-3.234,5.8Zm225.27-9.9h0c-1.2-1.865-2.453-3.714-3.73-5.5l3.275-2.347c1.324,1.849,2.618,3.755,3.846,5.667l-3.39,2.177ZM25.246,62.484h0l-3.359-2.224c.213-.322.383-.576.535-.8v0l.028-.041v0l.028-.04.005-.008.024-.036.005-.008.024-.036.006-.009.023-.034.007-.01L22.6,59.2l.01-.015.019-.028.011-.015.017-.026.013-.019.015-.023.014-.02.013-.02.017-.025L22.731,59l.022-.033.1-.146.042-.062.026-.038,0-.006.026-.038,0,0,.026-.038,0,0,.026-.038,0,0,.026-.038,0-.005.026-.039c.8-1.17,1.636-2.348,2.481-3.5v0l.029-.038v0l.025-.034.007-.009.024-.033.005-.008.024-.032.007-.009L25.7,54.8,25.7,54.8l.023-.032.009-.011.023-.031.005-.008.025-.033.006-.008.019-.026,3.242,2.392c-1.31,1.776-2.591,3.607-3.807,5.444ZM236.021,53.22h0c-1.369-1.718-2.8-3.431-4.269-5.091l3.02-2.666c1.507,1.707,2.988,3.473,4.4,5.248l-3.151,2.509ZM33.133,51.795h0l-3.116-2.553c1.445-1.763,2.95-3.507,4.474-5.185l2.983,2.708c-1.481,1.632-2.941,3.324-4.34,5.031Zm194.1-8.535h0c-1.541-1.577-3.143-3.135-4.762-4.633l2.736-2.958c.324.3.639.594.938.876l.038.036,0,0,.035.033,0,0,.033.032.005.005.032.03.008.007.03.029.008.007.028.028.01.009.038.036.067.064.007.006.031.03.006.005.029.027.009.009.03.028.006.005.031.029.007.007.03.029.007.006.03.029.007.007.032.03h0c.575.549,1.146,1.1,1.7,1.648l.034.034,0,0,.032.032,0,0,.03.03.007.007.028.028.008.008.028.028.008.008.028.027.01.01.026.026.012.012.024.024.013.014.024.024.012.012.024.024.016.016.02.02.073.073.008.008.031.031.038.038.075.075,0,0,.036.036.038.038c.322.323.651.656.978.99L227.23,43.26Zm-185.167-1.3h0L39.22,39.1l.014-.013.013-.013.022-.022.016-.016.021-.021L39.321,39l.02-.02.017-.017.02-.02.02-.02.016-.015.024-.024.013-.013.027-.027.01-.009.032-.031.005-.005.14-.138.011-.011,0,0,.034-.034.037-.036,0,0,.033-.033,0,0,.034-.034,0,0,.035-.035.038-.037v0c1.354-1.328,2.743-2.635,4.128-3.883l.019-.017.018-.016.024-.022.013-.012.03-.027.006-.006.034-.03,0,0,.014-.012,2.694,3c-1.641,1.476-3.265,3.012-4.826,4.566Zm175.414-7.718h0c-1.693-1.413-3.444-2.8-5.207-4.127l2.422-3.219.065.049.037.028.008.006.032.024.012.009.028.021.017.013.023.017.021.016.019.014.03.023.011.008c1.715,1.3,3.419,2.652,5.066,4.027l-2.582,3.093ZM51.94,33.077h0L49.4,29.948c1.767-1.434,3.592-2.839,5.426-4.179L57.2,29.023c-1.776,1.3-3.547,2.661-5.264,4.054Zm154.919-6.82h0c-1.826-1.233-3.709-2.437-5.6-3.577l2.082-3.449c.28.169.528.32.757.461l.008,0,.033.02.012.008.028.017.019.012.024.015.02.013.024.014.023.014.02.012.028.017.015.009.032.02.012.007.034.021.01.006.041.025h0c.679.419,1.348.841,1.991,1.254l0,0,.04.026.007,0,.037.024.009.006.034.022.013.008.031.02.014.009.029.019.016.01.028.018.015.01.027.017.019.013.021.014.022.015.017.011.029.019,0,0c.738.477,1.486.971,2.222,1.469l-2.255,3.338ZM62.667,25.242h0l-2.208-3.37c1.249-.818,2.527-1.625,3.8-2.4h0l.044-.026h0l.044-.027h0l.041-.025.005,0,.038-.024.009-.005.039-.024,0,0,.041-.025.005,0,.044-.026.046-.028.275-.165.005,0,.042-.025.044-.027.006,0,.04-.024.006,0,.038-.023.009-.005.037-.022.009-.005.037-.022.009-.005.038-.023.007,0,.04-.024,0,0c.357-.213.688-.408,1.013-.6l2.033,3.478c-1.9,1.112-3.8,2.289-5.647,3.5Zm132.822-5.85h0c-1.942-1.041-3.938-2.046-5.932-2.987l1.719-3.643c2.043.964,4.085,1.992,6.069,3.055l.044.024h0l-1.9,3.55ZM74.133,18.538h0L72.28,14.961c1.086-.562,2.19-1.115,3.282-1.644l0,0,.04-.019.007,0,.038-.018.01,0,.037-.018.009,0,.035-.017.013-.006.033-.016L75.8,13.2l.035-.016.012-.006.035-.016.01-.005.037-.018.009,0,.039-.019,0,0,.041-.02,0,0c.794-.381,1.606-.76,2.412-1.126l1.668,3.667c-2,.91-4.011,1.887-5.974,2.9Zm109.346-4.814h0c-2.042-.838-4.13-1.634-6.206-2.364l1.337-3.8.08.028.253.089.1.034h0l.046.016h0l.045.017h0l.045.016h0l.045.016.006,0,.043.015h0l.044.016.005,0,.526.19h0l.041.015.009,0,.038.014.011,0,.036.013.013,0,.036.013.013,0,.034.012.016.006.033.012.017.006.031.012.019.007.032.012.017.006.031.012.018.007.031.012.018.007.031.011.018.007.033.012.014.005.034.013.016.005.033.013.014.005.034.013.016.006.034.013.009,0,.039.015.009,0,.088.032.012,0,.081.03h0l.038.014.011,0,.028.01.023.009.025.009.023.009.028.011.022.008.025.009.023.009.025.009.024.009.025.009.023.009.027.01.023.008.026.01.023.008.025.009.026.009.023.009.025.009.025.009.026.01.023.008.027.01.021.008.029.011.02.007.029.011.02.008.032.012.016.006.035.013.014.005.037.014.012,0,.036.014.014.005.042.016.007,0,.139.053.01,0,.149.057,0,0,.044.017.009,0,.041.016.006,0,.044.017.005,0,.045.017,0,0,.044.017.007,0,.044.017h0l.046.018,0,0,.045.017,0,0,.043.017.008,0,.045.017h0l.049.019c.779.3,1.547.611,2.282.913l-1.53,3.726Zm-97.257-.683h0L84.744,9.293c1.706-.672,3.451-1.319,5.188-1.922l.049-.017.047-.016.006,0,.043-.015.006,0,.041-.014.01,0,.041-.014,0,0,.044-.015.006,0,.044-.015h0l.045-.015.008,0,.089-.03.034-.012.015-.005c.277-.095.5-.171.711-.241l1.283,3.819c-2.092.7-4.191,1.468-6.239,2.276Zm84.732-3.723h0c-2.109-.623-4.267-1.2-6.415-1.715l.94-3.917.1.025.051.012h.005l.046.011.008,0,.045.011h.007l.045.011.008,0,.043.01.01,0,.04.01.013,0,.04.009.011,0,.041.01.012,0,.04.01.012,0,.038.009.015,0,.037.009.014,0,.036.009.017,0,.033.008.018,0,.031.007.022.006.031.008.019,0,.034.009.017,0,.038.009.012,0,.036.009.016,0,.066.016.036.009.011,0,.041.01.018,0,.033.008.023.005.029.008.022.005.028.007.027.007.025.006.026.006.025.006.026.007.025.007.029.007.021.005.03.007.022.006.029.008.021.005.029.007.024.006.027.007.024.006.028.007.025.006.025.007.026.007.023.006.029.008.022.005.028.007.024.006.029.008.021.005.03.008.02.005.034.009.017,0,.033.009.018,0,.034.008.017,0,.034.009.017,0,.035.009.016,0,.036.009.015,0,.04.01.011,0,.041.011.01,0,.046.012h0c1.327.346,2.678.722,4.015,1.116h0l.047.014h0l-1.14,3.864ZM98.809,8.811h0L97.723,4.932c1.777-.5,3.589-.964,5.386-1.386h0l.05-.012h0l.047-.011.009,0,.042-.01.013,0,.035-.008.022-.005.028-.007.026-.006.024-.005.03-.007.02,0,.035-.008.013,0,.04-.009.011,0,.041-.009.008,0,.044-.01h.007l.628-.143.076-.017.885,3.93c-2.143.482-4.31,1.029-6.44,1.624Zm59.232-2.593h0c-2.164-.4-4.371-.757-6.558-1.05l.535-3.993c1.846.247,3.7.535,5.509.855l.013,0,.037.006.041.007.01,0c.418.074.795.143,1.153.21l-.738,3.96ZM111.765,5.9h0l-.682-3.97.133-.023.14-.024h0l.049-.008h.008l.042-.007.018,0,.033-.005.028,0,.022,0,.042-.007.01,0c1.144-.191,2.3-.37,3.43-.53l.049-.007h.006l.045-.007h.009l.042-.006h.011l.036-.005.019,0,.028,0,.026,0,.024,0,.03,0,.019,0,.035,0,.014,0,.04-.005c.826-.114,1.607-.215,2.387-.308l.479,4c-2.188.262-4.4.584-6.573.957Zm33.112-1.442h0c-2.193-.181-4.425-.309-6.634-.379l.128-4.027c.715.023,1.427.051,2.115.084l.053,0,.052,0h.006l.046,0h.011l.041,0h.013l.042,0h.011l.041,0h.015l.036,0h.02l.031,0h.024l.031,0h.051l.028,0h.183l.035,0h.018l.037,0h.015l.039,0h.015l.039,0h.013l.042,0h.01l.045,0h.007l.048,0h.005l.05,0h0l.052,0c1.175.066,2.357.149,3.515.244l-.332,4.015Zm-19.925-.138h0L124.677.3l.091-.006.176-.011h.011l.044,0,.053,0h.008l.1-.006h.021l.033,0h.022l.031,0,.025,0h.029l.03,0h.022l.031,0h.048l.029,0h.022l.032,0h.022l.03,0h.028l.025,0,.031,0h.021l.034,0h.02l.037,0h.016l.036,0h.018l.034,0h.019l.031,0h.023l.033,0h.02l.035,0h.018l.037,0h.016l.04,0h.013l.044,0h.008l.044,0h.009l.042,0h.011l.04,0h.014l.044,0h.009l.045,0h.008l.046,0h.008l.044,0h.01l.048,0h0l.048,0h.005l.049,0h0l.047,0h.006l.283-.015.142-.007C128.648.074,130.09.026,131.519,0l.073,4.028c-2.2.04-4.434.136-6.639.287Z" transform="translate(0.364 0.426)" stroke="rgba(0,0,0,0)" stroke-miterlimit="10" stroke-width="1" fill="url(#linear-gradient)"/>
        <path id="Subtração_4" data-name="Subtração 4" d="M136.848,134.567h0l-.073-4.028c2.213-.04,4.447-.137,6.639-.287l.276,4.019-.076.005-.085.006-.043,0-.064,0h-.011l-.043,0-.053,0h-.007l-.1.007h-.021l-.033,0h-.022l-.03,0h-.025l-.028,0-.031,0-.022,0h-.031l-.024,0h-.024l-.029,0h-.021l-.032,0h-.023l-.03,0-.028,0h-.025l-.031,0h-.021l-.034,0h-.02l-.037,0h-.016l-.036,0h-.018l-.033,0h-.051l-.023,0h-.052l-.035,0H142.3l-.037,0h-.015l-.04,0H142.2l-.044,0h-.008l-.044,0h-.01l-.042,0h-.012l-.04,0h-.014l-.043,0h-.009l-.046,0h-.008l-.045,0h-.008l-.044,0h-.01l-.048,0h0l-.049,0h-.005l-.049,0h0l-.048,0h-.007l-.425.021C139.7,134.493,138.258,134.542,136.848,134.567ZM130,134.52h0c-.7-.023-1.415-.051-2.114-.084l-.053,0-.052,0h-.006l-.046,0h-.011l-.041,0h-.014l-.041,0h-.011l-.041,0h-.016l-.037,0h-.074l-.031,0h-.024l-.028,0H127.3l-.029,0h-.023l-.032,0h-.127l-.037,0h-.015l-.038,0h-.015l-.039,0h-.013l-.042,0h-.01l-.045,0h-.007l-.048,0h0l-.05,0h0l-.052,0c-1.17-.066-2.353-.148-3.515-.244l.331-4.015c2.188.181,4.421.308,6.635.38L130,134.519Zm20.512-.89h0l-.479-4c2.189-.262,4.4-.584,6.573-.958l.682,3.971-.122.021-.015,0h-.007l-.129.022h0l-.049.008h-.008l-.042.007-.019,0-.033.006-.028,0-.022,0-.041.007h-.01c-1.137.191-2.291.37-3.43.53l-.049.007h-.005l-.045.006h-.009l-.042.006-.011,0-.037.005-.019,0-.028,0-.026,0-.023,0-.03,0-.018,0-.034.005-.014,0-.04.006h0c-.783.108-1.585.211-2.385.307Zm-34.158-.238h0c-1.833-.246-3.686-.533-5.509-.855l-.013,0-.037-.007-.041-.007h-.009c-.374-.066-.762-.137-1.153-.21l.738-3.961c2.161.4,4.368.757,6.559,1.051l-.535,3.992ZM164,131.31h0l-.885-3.93c2.158-.486,4.325-1.033,6.441-1.625l1.085,3.88c-1.78.5-3.592.964-5.386,1.386l-.052.012h0l-.047.011-.009,0-.042.01-.013,0-.035.008-.023.005-.028.007-.026.006-.024.006-.03.007-.02,0-.035.008-.013,0-.04.009-.011,0-.042.01-.008,0-.044.01-.007,0-.7.16Zm-61.113-.428h0l-.1-.025-.05-.012h0l-.046-.011h-.008l-.044-.011-.007,0-.044-.011-.009,0-.042-.01-.009,0-.04-.01-.013,0-.04-.01-.011,0-.041-.01-.012,0-.04-.01-.011,0-.038-.009-.015,0-.037-.009-.014,0-.036-.009-.017,0-.033-.008-.018,0-.03-.007-.022-.005-.032-.008-.019-.005-.035-.008-.017,0-.038-.009-.012,0-.036-.009-.017,0-.064-.016-.009,0-.029-.007-.011,0-.041-.01-.017,0-.033-.008-.023-.006-.03-.008-.022-.005-.028-.007-.027-.007-.026-.007-.026-.007-.024-.006-.027-.007-.025-.007-.028-.007-.021-.005-.03-.008-.022-.005-.029-.008-.021-.005-.028-.007-.024-.006-.027-.007-.024-.006-.028-.007-.024-.007-.025-.006-.026-.007-.024-.006-.029-.008-.022-.005-.028-.007-.023-.006-.03-.008-.021-.005-.03-.008-.021-.005-.033-.009-.017,0-.033-.008-.018,0-.034-.009-.017,0-.035-.009-.016,0-.036-.009-.016,0-.036-.009-.015,0-.04-.01-.01,0-.042-.011-.01,0-.046-.012h0c-1.338-.349-2.689-.725-4.015-1.115h0l-.047-.014h0l1.14-3.864c2.118.625,4.276,1.2,6.416,1.715l-.94,3.917Zm74.3-3.261h0l-1.283-3.819c2.088-.7,4.187-1.467,6.239-2.277l1.478,3.749c-1.711.674-3.456,1.32-5.188,1.922l-.049.017-.047.016-.006,0-.043.015-.006,0-.041.014-.01,0-.04.014h-.005l-.044.015-.006,0-.043.015h0l-.044.015-.009,0-.089.031-.034.012-.015.005-.011,0-.7.237Zm-87.431-.614h0l-.2-.072-.06-.021-.069-.024-.1-.034h0l-.045-.016h0l-.045-.016,0,0-.045-.016h0l-.045-.016-.005,0-.044-.016h0l-.044-.016-.005,0-.526-.19h0l-.041-.015-.009,0-.038-.014-.011,0-.036-.013-.013-.005-.036-.013-.013,0-.034-.012-.016-.006-.033-.012-.016-.006-.031-.012-.019-.007-.032-.012-.017-.006-.032-.012-.018-.007-.032-.012-.017-.007-.031-.011-.018-.007-.033-.012-.014-.005-.034-.012-.016-.006-.034-.012-.014-.005-.034-.012-.016-.006-.035-.012-.009,0-.039-.014-.009,0-.088-.033-.012,0-.081-.03h0l-.038-.014-.011,0-.027-.01-.024-.009-.025-.009-.023-.008-.028-.01-.021-.008-.026-.01-.023-.009-.025-.009-.025-.009-.025-.009-.023-.008-.027-.01-.023-.008-.026-.01-.023-.008-.025-.009L87,126l-.023-.009-.025-.009-.025-.009-.026-.01-.023-.008-.027-.01-.021-.008-.029-.011-.019-.008-.029-.011-.02-.008-.032-.012-.016-.006-.036-.013-.013-.005-.037-.014-.012,0-.036-.014-.014-.005-.041-.016-.007,0-.093-.036-.205-.079h0l-.044-.017-.009,0-.041-.016-.006,0-.044-.017-.005,0-.045-.017h0l-.044-.017-.007,0-.044-.017,0,0-.046-.017h0l-.045-.018h0l-.043-.017-.008,0-.045-.017h0l-.048-.019c-.754-.293-1.522-.6-2.282-.913l1.531-3.727c2.04.838,4.128,1.633,6.207,2.364l-1.337,3.8Zm100.17-4.408h0l-1.667-3.667c2.005-.912,4.015-1.889,5.974-2.9l1.853,3.577c-1.081.56-2.184,1.113-3.281,1.643l0,0-.04.019-.007,0-.038.018-.009.005-.037.017-.009,0-.036.017-.013.007-.034.016-.012.005-.034.017-.013.005-.035.017-.009,0-.038.018-.008,0-.039.019,0,0-.041.02,0,0c-.791.379-1.6.758-2.412,1.126ZM77.09,121.806h0c-2.036-.961-4.078-1.989-6.069-3.055l-.045-.024,0,0,1.9-3.55c1.944,1.042,3.94,2.047,5.933,2.987l-1.72,3.644Zm124.995-5.5h0l-2.033-3.478c1.9-1.112,3.8-2.289,5.648-3.5l2.208,3.37c-1.246.816-2.523,1.623-3.8,2.4h0l-.044.026-.045.028h0l-.042.025-.005,0-.038.023-.009.006-.039.024,0,0-.041.025-.005,0-.044.027-.045.028-.275.165,0,0-.042.025-.044.026-.006,0-.04.024-.006,0-.039.023-.009.006-.037.022-.009.005-.036.022-.008.005-.039.023-.006,0-.041.024,0,0c-.381.227-.712.422-1.013.6Zm-137.063-.964h0c-.3-.181-.54-.327-.757-.461l-.008,0-.034-.021-.012-.007-.028-.017-.019-.012-.024-.015-.02-.012-.023-.015-.024-.014-.019-.012-.028-.017-.015-.009-.033-.02-.012-.007-.035-.021-.01-.006-.041-.025h0c-.66-.408-1.33-.83-1.991-1.254l0,0-.041-.026-.007,0-.037-.024-.009-.005-.034-.022-.013-.008-.03-.02-.014-.009-.029-.019-.016-.01-.028-.018-.015-.01-.027-.018-.02-.012-.021-.013-.023-.015-.016-.011-.029-.018,0,0c-.722-.467-1.47-.961-2.222-1.469l2.255-3.339c1.833,1.238,3.717,2.442,5.6,3.577l-2.082,3.449ZM213.538,108.8h0l-2.376-3.253c1.784-1.3,3.555-2.667,5.264-4.054l2.539,3.129c-1.766,1.433-3.591,2.838-5.426,4.179ZM53.676,107.673h0l-.065-.049-.038-.028-.008-.006-.031-.024-.011-.009-.028-.021-.017-.013-.023-.017-.021-.016-.019-.014-.03-.023-.01-.008c-1.711-1.294-3.416-2.649-5.066-4.027l2.582-3.093c1.691,1.412,3.443,2.8,5.207,4.127l-2.422,3.22Zm170.5-7.5h0l-2.694-3c1.641-1.475,3.265-3.012,4.827-4.567l2.842,2.856-.014.014-.013.013-.022.022-.016.016-.02.021-.016.016-.02.02-.017.017-.02.02-.02.019-.016.016-.024.023-.013.013-.027.027-.01.01-.031.031-.006.006-.059.058-.02.019-.072.071,0,0-.035.035-.037.036-.005.005-.033.033,0,0-.034.033,0,0-.035.035-.038.037h0c-1.334,1.309-2.723,2.616-4.128,3.884l-.019.017-.018.017-.024.022-.014.012-.03.027-.006.005-.034.031,0,0-.014.012ZM43.164,98.9h0c-.337-.312-.644-.6-.938-.876l-.038-.036h0l-.035-.034,0,0-.033-.032-.005-.005-.032-.03-.008-.007-.03-.029-.008-.007L42,97.809l-.01-.009-.037-.036-.067-.063-.006-.007-.031-.029-.006-.005-.028-.027-.009-.009-.03-.028-.006-.006-.03-.029-.007-.007-.03-.028-.007-.006-.03-.029-.007-.007-.032-.03,0,0c-.58-.554-1.151-1.108-1.7-1.648l-.035-.034,0,0-.032-.032,0,0-.031-.03-.007-.007-.028-.028-.008-.008-.028-.028-.008-.008-.027-.027-.01-.01-.026-.026-.012-.012-.023-.023-.014-.014-.024-.023-.012-.012-.023-.023-.017-.017-.02-.02-.073-.073-.009-.009-.03-.03h0l-.036-.037-.075-.075,0,0-.036-.036-.037-.038c-.316-.316-.645-.65-.978-.99l2.882-2.815c1.536,1.573,3.139,3.131,4.763,4.633L43.164,98.9Zm190.713-8.387h0L230.893,87.8c1.477-1.626,2.937-3.319,4.34-5.031l3.117,2.553c-1.442,1.76-2.947,3.5-4.473,5.185ZM33.594,89.1h0c-1.505-1.706-2.986-3.471-4.4-5.248l3.152-2.509c1.371,1.722,2.807,3.434,4.269,5.091L33.595,89.1ZM242.555,79.92h0l-3.242-2.392c1.31-1.776,2.591-3.608,3.807-5.444l3.359,2.224c-.2.3-.375.564-.534.8l0,0-.028.042v0l-.027.04-.005.008-.024.036-.005.008-.024.035-.007.01-.023.033-.007.011-.021.031-.011.015-.019.027-.011.016-.018.026-.012.019-.016.023-.013.02-.013.02-.017.025-.006.01-.023.033-.069.1-.072.106-.026.038,0,.005-.026.038,0,0-.026.037,0,.005-.026.038,0,0-.026.037,0,.005-.027.038c-.805,1.176-1.64,2.354-2.481,3.5l-.029.04,0,0-.025.034-.007.009-.024.033-.006.008-.024.032-.007.009-.024.033-.005.008-.024.032-.008.011-.023.031-.006.008-.024.033-.006.008-.019.026ZM25.065,78.392h0c-1.325-1.85-2.619-3.757-3.846-5.667l3.39-2.176c1.185,1.846,2.44,3.7,3.731,5.5l-3.275,2.346ZM250.114,68.5h0l-3.468-2.05c1.12-1.894,2.208-3.846,3.233-5.8l3.568,1.871c-.35.667-.706,1.334-1.06,1.982l0,.007-.021.039-.006.011-.018.033-.009.016-.017.031-.009.016-.016.028-.011.019-.014.025-.012.023-.012.021-.015.027-.01.019-.015.028-.008.016-.017.03-.008.015-.017.031-.007.013-.019.033,0,.009c-.651,1.18-1.325,2.362-2.006,3.512ZM17.667,66.871h0c-.343-.6-.678-1.2-1-1.77l-.026-.046v0l-.024-.044,0,0-.025-.044-.025-.045,0,0-.023-.042,0,0-.023-.043,0,0-.025-.045-.025-.046-.154-.283-.025-.046v0l-.024-.044,0-.007-.021-.039,0-.009-.021-.037-.005-.011-.02-.036L16.18,64.2l-.019-.034-.008-.014-.017-.032-.008-.014-.017-.032L16.1,64.06l-.016-.03-.008-.016-.016-.03-.009-.016-.016-.03-.008-.016-.016-.029L16,63.874l-.015-.027-.01-.019-.015-.027-.01-.019-.016-.031-.008-.015-.016-.03-.012-.023-.021-.04-.007-.013-.018-.033-.01-.019-.015-.028-.012-.022-.012-.023-.014-.025-.011-.021-.013-.025-.011-.02-.013-.025-.012-.022-.013-.024-.011-.021-.013-.025-.012-.022-.013-.024-.011-.021-.014-.025-.011-.021-.013-.026-.009-.018-.015-.028-.009-.018-.015-.028-.009-.017-.015-.028-.01-.02-.013-.025-.011-.021L15.5,62.93l-.011-.021-.013-.024-.013-.025-.011-.021-.015-.029-.051-.1-.007-.012-.015-.029-.009-.017-.015-.028-.008-.017-.015-.029-.009-.017-.015-.028-.01-.018-.013-.025-.012-.022-.013-.025-.011-.02-.014-.028-.009-.017-.016-.029-.009-.017-.014-.027-.011-.021-.013-.025-.011-.021-.013-.025-.011-.021-.013-.026-.012-.023-.011-.022-.015-.028-.009-.018-.015-.029-.008-.017L15.013,62,15,61.983l-.02-.037,0-.008-.024-.047-.024-.047,0-.008-.02-.039-.006-.012-.019-.036,0-.009-.019-.038-.007-.013-.017-.033-.008-.016-.015-.03-.009-.017-.015-.03-.008-.016-.016-.031-.008-.016-.017-.032-.007-.013-.018-.036-.006-.01-.02-.039,0-.007-.021-.04,0-.008-.021-.042,0,0-.022-.043,0,0c-.075-.146-.136-.267-.194-.381l3.594-1.82c.992,1.959,2.052,3.926,3.151,5.847l-3.5,2Zm238.8-10.5h0l-3.659-1.686c.923-2,1.806-4.057,2.623-6.1l3.741,1.5c-.185.462-.363.9-.531,1.309l-.046.112-.167.4,0,.006-.014.035-.006.014-.013.031-.007.017-.012.029-.008.019-.012.028-.009.021-.01.024-.01.025-.009.023-.01.026-.009.022-.011.025-.01.025-.01.023-.01.024-.01.025-.01.024-.01.024-.01.024-.01.025-.011.024-.011.027-.008.019-.013.03-.008.02-.012.028-.009.02-.011.026-.01.024-.011.025-.009.022-.012.029-.009.02-.011.026-.04.092-.011.025-.008.02-.012.028-.01.025-.01.023-.012.028-.008.02-.012.028-.009.02-.012.029-.008.018-.013.03-.008.018-.013.029-.008.018-.012.029-.009.021-.012.027-.008.02-.013.028-.008.02-.012.029-.008.019-.012.029-.009.021-.012.027-.008.02-.012.028-.009.02-.012.028-.008.018-.013.031-.007.017-.013.03-.008.017-.013.031-.006.014-.033.075-.039.088,0,.011-.013.029-.008.02-.012.027-.009.021-.012.028-.009.02-.011.027-.009.022-.011.026-.01.022-.011.024-.011.024-.01.024-.011.024-.01.023-.011.026-.009.021-.012.027-.009.02-.012.028-.009.02-.013.029-.008.019-.013.029-.008.018-.013.031-.008.017-.015.033-.007.016-.015.035-.005.012-.019.041,0,.006c-.249.559-.5,1.115-.749,1.653ZM11.482,54.654h0c-.919-2.072-1.8-4.2-2.615-6.329l3.761-1.442c.786,2.048,1.639,4.114,2.537,6.139l-3.682,1.633ZM261.554,43.661h0l-3.812-1.3c.712-2.087,1.38-4.219,1.984-6.338l3.875,1.1c-.536,1.88-1.119,3.765-1.732,5.6l0,0-.015.044,0,.005-.015.043,0,.006-.014.042,0,.009-.012.037,0,.015-.012.035,0,.014-.011.033-.006.017-.011.032-.006.018-.01.031-.007.02-.01.029-.007.02-.009.028-.008.023-.009.027-.009.026-.007.021-.011.032-.007.018-.011.032-.005.017-.012.034-.005.016-.017.048,0,.013,0,.014-.042.124ZM6.579,41.87h0c-.239-.734-.472-1.47-.692-2.188l0-.007-.013-.042-.005-.018-.01-.032L5.85,39.56l-.008-.027-.009-.028-.006-.021-.01-.032,0-.017L5.8,39.4,5.8,39.385l-.011-.036,0-.013L5.77,39.3l0-.012-.012-.039,0-.009L5.739,39.2l0-.006-.014-.046c-.251-.831-.5-1.682-.737-2.53v0l-.013-.045v-.005l-.011-.04,0-.012-.01-.035,0-.016-.008-.031L4.926,36.4l-.007-.025-.007-.026-.007-.024L4.9,36.3l-.005-.018-.009-.035,0-.014-.011-.04,0-.009-.012-.043,0-.008-.013-.048c-.086-.312-.153-.559-.212-.777l3.89-1.049c.573,2.123,1.21,4.264,1.894,6.365l-3.83,1.248ZM265.307,30.493h0l-3.926-.9c.493-2.141.939-4.331,1.324-6.509l3.967.7c-.252,1.428-.536,2.887-.841,4.339v0l-.01.047v0l-.01.046,0,.007-.009.043,0,.009-.009.041,0,.013-.008.038,0,.012-.008.039,0,.015-.007.035,0,.019-.007.032,0,.023-.006.028-.005.025-.006.026-.007.029,0,.021-.007.034,0,.016-.008.039,0,.012-.009.041,0,.01c-.12.553-.245,1.113-.372,1.664ZM3.013,28.651h0c-.13-.6-.258-1.219-.38-1.828l-.01-.05v-.007l-.009-.044,0-.008L2.6,26.67l0-.012-.008-.04,0-.014-.007-.037,0-.018-.007-.033,0-.018-.006-.033,0-.02-.006-.03,0-.022-.006-.028-.005-.027,0-.024-.005-.028,0-.023-.006-.032,0-.017L2.5,26.179l0-.013-.008-.04,0-.01-.008-.041,0-.012-.008-.041,0-.009-.008-.043v-.006c-.136-.7-.267-1.41-.391-2.11L2.062,23.8v0l-.008-.048v0L2.044,23.7l-.009-.052v0L2.026,23.6v-.006l-.008-.045v-.008l-.008-.044v-.009L2,23.443l0-.012-.007-.038,0-.017-.006-.034,0-.021-.005-.03,0-.027,0-.025-.005-.031,0-.021-.006-.038,0-.013-.008-.045v-.006c-.072-.42-.136-.8-.194-1.164l3.977-.645c.354,2.18.769,4.376,1.232,6.527l-3.939.849ZM267.692,17.009h0l-4-.5c.272-2.186.492-4.41.654-6.612l4.018.295c-.129,1.762-.294,3.528-.488,5.247v0l-.005.048V15.5l-.005.044v.013l0,.037,0,.019,0,.032,0,.026,0,.026,0,.028,0,.024,0,.034,0,.016,0,.04v.012l-.005.045V15.9l-.005.05v0c-.044.372-.085.718-.128,1.057ZM.818,15.135h0v-.007l0-.018,0-.033,0-.031,0-.02,0-.04v-.012L.8,14.929v-.006C.557,12.729.37,10.505.239,8.311l4.022-.239c.13,2.2.319,4.427.561,6.621l-4,.442ZM268.694,3.353h0l-4.027-.092c.023-1,.035-2.017.035-3.037q0-.112,0-.224h4.029V1.163c0,.046,0,.092,0,.138v.3c-.006.6-.016,1.191-.029,1.752ZM.006,1.467h0c0-.227,0-.45,0-.619V.793c0-.033,0-.066,0-.1V0H4.029q0,.112,0,.224c0,.4,0,.8.005,1.206Z" transform="translate(265.096 134.567)" stroke="rgba(0,0,0,0)" stroke-miterlimit="10" stroke-width="1" fill="url(#linear-gradient-2)"/>
        <path id="Subtração_5" data-name="Subtração 5" d="M268.73,134.568h-1.114l1.108-1.468c0,.088,0,.173,0,.255,0,.123,0,.243,0,.364v0c0,.05,0,.1,0,.15v.7Zm-264.7,0H0V133.4c0-.046,0-.092,0-.138v-.3c.006-.591.016-1.181.029-1.754l4.028.092c-.022,1.007-.034,2.028-.034,3.037q0,.113,0,.225Zm260.44-8.074h0c-.13-2.2-.319-4.425-.561-6.62l4-.442v.007l0,.018,0,.033,0,.031,0,.02,0,.04v.012l0,.046v.007c.238,2.19.425,4.414.555,6.611l-4.021.239ZM4.382,124.668h0l-4.017-.294c.127-1.742.292-3.507.488-5.247v0l.006-.048v-.007l0-.043,0-.013,0-.038,0-.019,0-.031,0-.026,0-.026,0-.028,0-.024,0-.034,0-.017L.9,118.73v-.012l.005-.045v-.006l.006-.049c.038-.327.08-.674.128-1.06l4,.5c-.271,2.177-.491,4.4-.654,6.612Zm258.628-11.376h0c-.354-2.179-.768-4.374-1.232-6.526l3.939-.848c.135.624.262,1.239.38,1.828l.01.05v.007l.009.044,0,.009.008.043,0,.011.008.04,0,.013.008.037,0,.018.007.034,0,.018.007.033,0,.02.006.03,0,.023.005.027.005.027,0,.024.006.028,0,.022.007.032,0,.017.007.036,0,.013.008.04,0,.011.008.04,0,.012.008.041v.008l.009.044v.005c.135.7.264,1.388.392,2.111l.009.051v0l.009.049v0l.008.049v0l.009.05v0l.009.049v.006l.008.045v.007l.008.044v.009l.008.042,0,.012.007.039,0,.017.006.033,0,.021.005.03,0,.026,0,.025.006.032,0,.02.007.038,0,.013.008.045v.007c.064.371.129.762.194,1.164l-3.976.646ZM6.026,111.487h0l-3.967-.7c.257-1.454.541-2.914.842-4.339v0l.01-.047v0l.01-.046v-.007l.009-.043,0-.008.009-.041,0-.012.009-.039,0-.012.009-.039,0-.014.008-.036,0-.018.007-.032.005-.023L3,105.992,3,105.968l.005-.026.006-.029.005-.021.007-.034,0-.017.008-.038,0-.013.009-.041,0-.011c.116-.536.237-1.08.372-1.664l3.926.9c-.494,2.147-.94,4.337-1.324,6.508ZM260.214,100.31h0c-.574-2.129-1.212-4.271-1.893-6.365l3.831-1.248c.244.752.477,1.488.692,2.189l0,.007.013.042.005.018.01.032.006.022.008.026.009.029.007.021.01.032.005.016.01.034.005.016.011.036,0,.013.012.037,0,.012.012.039,0,.009.013.042,0,.006.014.047c.264.875.505,1.7.737,2.53l0,.005.012.045,0,0,.011.041,0,.012.009.035,0,.016.008.03.007.023.007.025.007.026.007.023.008.03.005.017.01.035,0,.014.011.04,0,.008.012.043,0,.008.013.048c.068.246.137.5.212.776l-3.889,1.049ZM9,98.546H9l-3.874-1.1c.533-1.87,1.115-3.755,1.732-5.6v0l.015-.044,0-.006.014-.043,0-.006.014-.042,0-.009.012-.037.005-.015.012-.034,0-.014.012-.033.006-.017.011-.032.006-.018.01-.031L7,91.43l.009-.029.007-.021.009-.028.008-.023.009-.027.009-.026.007-.021.011-.032.006-.019.011-.032.006-.018.012-.034.005-.015.016-.049.051-.151,3.813,1.3c-.711,2.084-1.379,4.216-1.984,6.338ZM256.1,87.685h0c-.79-2.06-1.643-4.125-2.536-6.138l3.683-1.633c.923,2.079,1.8,4.209,2.616,6.33L256.1,87.685ZM13.3,85.979h0l-3.74-1.5c.169-.423.348-.863.532-1.308.055-.135.11-.266.165-.4l.007-.017.041-.1,0-.006.014-.035.006-.014.013-.031.007-.017.012-.029.008-.019.012-.028.009-.021.01-.024.011-.025.01-.023.011-.026.009-.022.011-.025.011-.025.01-.024.01-.024.011-.024.011-.025.009-.023.01-.024.011-.025.01-.024.011-.027.008-.019.012-.029.009-.02.011-.027.009-.021.011-.026.01-.024.011-.025.009-.022.012-.029.008-.02.012-.027.039-.092.011-.025.009-.02.012-.028.011-.025.01-.023.012-.027.008-.02.012-.029.009-.02.012-.029.008-.018.013-.03.008-.018.013-.029.008-.019.012-.028.009-.021.012-.027.008-.02.012-.029.009-.019.012-.029.008-.019.012-.029.009-.021.012-.027.009-.02L11,81.013l.008-.02.012-.028.008-.019.013-.03.008-.017.013-.03.008-.017.013-.03.006-.014.029-.068.007-.016.035-.081.005-.011.012-.028.009-.02.011-.027.009-.021.012-.028.009-.02.012-.026.009-.022.011-.026.01-.022.011-.024.01-.024.011-.024.011-.024.01-.023.011-.026.01-.021.012-.028.009-.02.013-.029.008-.019L11.4,80.1l.008-.019.013-.03.008-.018L11.441,80l.007-.017.015-.033.007-.015.016-.035.005-.012.019-.041,0-.006c.256-.576.508-1.132.748-1.654l3.66,1.685c-.919,1.995-1.8,4.047-2.624,6.1ZM250.718,75.545h0c-1-1.968-2.057-3.935-3.151-5.847l3.5-2c.332.579.667,1.175,1,1.77l.026.047h0l.024.044,0,0,.024.045.025.045,0,0,.024.043,0,0,.024.043,0,0,.025.044.025.046.149.272.006.011.025.047v0l.024.043,0,.007.021.04,0,.008.02.038.006.011.019.035.006.011.019.035.008.015.017.032.007.013.017.032.008.016.016.031.009.016.016.03.009.017.016.03.009.016.016.029.01.019.015.027.01.019.015.028.01.019.017.03.008.015.016.03.012.023.021.04.007.012.018.034.01.019.015.028.012.022.013.023.013.025.012.02.013.025.011.02.013.025L253,71.2l.013.024.011.021.013.025.012.022.013.025.011.02.013.025.011.021.014.026.01.017.015.029.009.017.015.029.009.017.015.028.011.02.013.025.011.021.013.025.012.022.012.024.013.024.011.021.015.029.05.1.007.012.015.029.009.017.015.029.009.017.015.029.009.018.015.028.009.018.013.025.012.022.013.025.01.021.015.027.009.017.015.03.009.017.014.027.011.021.013.025.011.021.013.025.011.021.013.025.012.023.011.021.015.029.009.018.015.029.009.017.015.028.01.019.019.037,0,.009.025.047.024.047,0,.008.02.038.006.012.018.036,0,.009.02.037.007.013.017.033.009.016.015.03.009.018.016.03.008.015.016.031.008.016.017.033.007.013.018.035.005.011.02.04,0,.007.02.04,0,.007.021.041,0,.005.022.043,0,0,.115.226.079.155-3.594,1.82ZM18.851,73.918h0l-3.568-1.87c.357-.68.713-1.346,1.06-1.982l0-.007.021-.038.006-.011.018-.033.009-.016.016-.031.009-.016.015-.029.011-.019.014-.025.012-.023.011-.02.015-.027.01-.019.015-.028.009-.016.017-.03.008-.015.017-.031.007-.013.018-.033.005-.009c.65-1.179,1.325-2.361,2.005-3.512l3.468,2.05c-1.122,1.9-2.21,3.851-3.233,5.8Zm225.27-9.9h0c-1.189-1.852-2.444-3.7-3.731-5.5l3.275-2.346c1.326,1.85,2.62,3.757,3.846,5.667l-3.39,2.177ZM25.61,62.484h0L22.25,60.26c.187-.283.367-.552.535-.8v0l.028-.042v0h0v0l.026-.039.005-.008.024-.036.005-.008.024-.036.007-.009.023-.034.007-.01.021-.031.01-.015.019-.028.01-.016.017-.026.013-.019.016-.023.013-.02.014-.02.016-.025L23.1,59l.022-.033.142-.209.026-.038,0-.006.026-.038,0,0,.026-.038,0,0,.026-.038,0,0,.026-.038,0,0,.027-.039c.8-1.169,1.636-2.348,2.481-3.5v0l.028-.038v0l.025-.034.007-.009L26,54.887l.006-.008.024-.033.007-.009.024-.033.006-.008.023-.031.009-.012.023-.031.006-.008.024-.033.006-.008.019-.026,3.242,2.392c-1.31,1.775-2.591,3.606-3.807,5.444ZM236.385,53.22h0c-1.371-1.722-2.808-3.435-4.269-5.091l3.02-2.666c1.507,1.707,2.987,3.473,4.4,5.248l-3.151,2.509ZM33.5,51.8h0L30.38,49.242c1.443-1.761,2.948-3.505,4.473-5.185l2.983,2.708c-1.482,1.632-2.942,3.325-4.34,5.031Zm194.1-8.534h0c-1.541-1.577-3.143-3.136-4.762-4.633l2.735-2.958c.3.274.594.552.939.876l.038.036,0,0,.035.033,0,0,.033.032.005,0,.032.03.008.007.031.029.008.007.029.027.009.01.038.035.067.064.007.006.031.029.006.005.029.028.009.008.03.029.006.005.031.029.007.007.03.029.007.006.03.029.007.007.032.03v0c.571.545,1.142,1.1,1.7,1.648l.034.034,0,0,.032.032,0,0,.03.03.007.007.028.028.009.009.028.028.008.008.028.027.01.01.026.026.012.012.024.024.014.013.023.024.013.012.023.024.017.017.02.02.073.073.008.008.031.03.038.038.075.075,0,0,.037.036.038.038c.323.324.652.657.977.99l-2.881,2.816Zm-185.168-1.3h0L39.584,39.1l.014-.014.013-.013.021-.021.016-.016.021-.02L39.685,39l.02-.02.017-.017.02-.02.02-.02.016-.016.024-.024.013-.013.027-.026.009-.01.032-.031.005-.006.151-.149,0,0,.035-.034.037-.036,0,0,.034-.033,0,0,.035-.033,0,0,.036-.035.037-.037h0C41.614,37.107,43,35.8,44.4,34.542l.018-.017.019-.016.024-.022.013-.012.03-.027.007-.005.034-.031,0,0,.013-.012,2.694,3c-1.635,1.47-3.259,3.006-4.826,4.566ZM217.84,34.241h0c-1.7-1.416-3.448-2.8-5.206-4.127l2.422-3.22.065.049.037.028.008.006L215.2,27l.012.009.028.021.017.013.023.017.021.016.019.014.03.023.01.008c1.71,1.294,3.415,2.649,5.066,4.027l-2.582,3.093ZM52.3,33.077h0l-2.538-3.128c1.772-1.438,3.6-2.843,5.426-4.179l2.376,3.253c-1.772,1.294-3.543,2.658-5.264,4.054Zm154.919-6.821h0c-1.824-1.232-3.707-2.435-5.6-3.577l2.082-3.449c.262.157.528.32.758.46l.008.005.033.02.012.007.028.017.019.012.024.015.02.012.024.015.023.014.02.012.028.017.015.009.033.02.012.007.034.021.01.007.041.025,0,0c.668.412,1.338.834,1.992,1.254h0l.04.026.007,0,.037.023.009.006.033.022.013.008.03.02.014.009.029.019.016.011.028.018.016.01.027.017.019.013.021.014.023.015.017.011.029.019,0,0c.747.484,1.494.978,2.221,1.469l-2.255,3.338ZM63.031,25.242h0l-2.208-3.37c1.254-.821,2.531-1.628,3.8-2.4h0l.044-.026h0l.044-.026,0,0,.041-.025.005,0,.038-.023.009-.005.039-.024,0,0,.041-.025.005,0,.044-.026.046-.028.275-.165.005,0,.041-.025.045-.026.006,0L65.4,19l.006,0,.038-.023.009-.005.037-.022.009-.005.037-.022.009-.005.039-.023.006,0,.04-.024,0,0c.322-.193.663-.394,1.013-.6l2.034,3.478c-1.9,1.108-3.8,2.285-5.648,3.5Zm132.822-5.849h0c-1.941-1.041-3.937-2.046-5.932-2.988l1.719-3.643c2.043.964,4.084,1.992,6.069,3.055h0l.043.023h0l-1.9,3.551ZM74.5,18.538h0l-1.853-3.577c1.1-.57,2.2-1.122,3.282-1.644l0,0,.04-.02.007,0,.037-.018.01,0,.037-.018.009,0,.035-.017.013-.006.034-.016.012-.005.034-.017.013-.006.035-.017.009,0,.037-.017.009,0,.039-.019,0,0,.042-.02,0,0c.786-.377,1.6-.756,2.412-1.126l1.668,3.667c-2,.911-4.014,1.888-5.973,2.9Zm109.345-4.814h0c-2.041-.838-4.129-1.633-6.206-2.364l1.337-3.8.166.059.167.059.1.034h0l.046.016h0l.045.016h0l.044.016h0l.045.016.006,0,.043.015,0,0,.044.016.005,0,.526.19h0l.041.015.009,0,.038.014.011,0,.036.013.014,0,.036.013.013,0,.033.012.016.006.032.012.017.006.031.011.019.007.032.012.017.006.032.011.018.007.031.011.018.007.031.011.018.007.033.012.014,0,.034.013.016.005.033.013.014.005.034.013.016.005L181,8.29l.009,0,.039.015.009,0,.088.033.012,0,.082.03h0l.038.014.011,0,.028.01.023.009.025.009.023.009.028.011.022.008.025.009.024.009.025.009.024.009.025.009.024.009.027.01.023.008.026.01.023.008.025.01.026.009.023.009.025.009.025.009.026.01.023.008.027.01.022.008.029.011.02.008.029.011.02.008.032.012.016.006.035.013.014.005.037.015.012,0,.036.013.014.005.042.016.007,0,.248.095.019.007.031.012,0,0,.045.017.009,0,.041.016.006,0,.044.017.005,0,.045.017h0l.044.017.007,0,.044.017,0,0,.046.017,0,0,.045.017.005,0,.043.017.008,0,.044.017h0l.048.019c.756.294,1.524.6,2.282.913l-1.53,3.727Zm-97.257-.683h0L85.108,9.293c1.709-.674,3.455-1.32,5.188-1.922l.049-.017.047-.016.006,0,.043-.015.007,0,.041-.014.01,0,.041-.014,0,0,.044-.015.007,0,.043-.015h0l.045-.015.008,0,.089-.03.034-.012.015,0,.711-.241,1.283,3.819c-2.087.7-4.186,1.467-6.239,2.276Zm84.732-3.723h0c-2.108-.622-4.266-1.2-6.416-1.716l.94-3.917.1.025.051.012h0l.046.011.007,0,.045.011h.007l.044.011.008,0,.042.011.01,0,.04.01.013,0,.039.01.011,0,.041.01.011,0,.04.009.012,0,.038.009.015,0,.037.009.014,0,.036.009.017,0,.034.008.018,0,.03.008.022.005.032.008.018,0,.035.009.017,0,.039.009.012,0,.036.009.017,0,.049.012.054.013.011,0,.041.01.018,0,.033.008.023.006.029.007.022.005.028.007.027.007.025.006.026.007.025.006.027.007.025.006.029.007.021.005.03.008.022.006.03.008.02,0,.029.007.024.007.026.007.024.006.028.007.025.006.025.007.026.007.023.006.03.007.022.006.028.007.023.006.029.007.021.005.03.008.021.005.033.008.017,0,.033.009.019,0,.033.009.017,0,.034.009.017,0,.036.009.016,0,.036.01.015,0,.04.01.011,0,.041.011.01,0,.046.012h0c1.331.347,2.681.722,4.015,1.115h0l.047.014h0l-1.14,3.864ZM99.173,8.812h0l-1.085-3.88c1.778-.5,3.59-.964,5.386-1.386l.052-.012h0l.047-.011.009,0,.042-.009.013,0,.035-.008.022-.005.028-.007.026-.006.024-.005.03-.007.02,0,.035-.008.013,0,.04-.009.011,0,.041-.009.008,0,.043-.01.007,0,.7-.161.885,3.93c-2.151.484-4.317,1.031-6.44,1.625Zm59.232-2.594h0c-2.167-.4-4.373-.757-6.559-1.05l.535-3.993c1.845.247,3.7.535,5.51.855l.013,0,.036.006.041.007.01,0c.415.074.793.143,1.154.21l-.739,3.96Zm-46.276-.323h0l-.682-3.97.093-.016.179-.031h0l.049-.008.009,0,.042-.007.018,0,.033-.006.028,0,.022,0,.042-.007.009,0c1.142-.191,2.3-.369,3.43-.53l.049-.007h.005l.045-.006h.009l.042-.006.011,0,.037,0,.018,0,.028,0,.026,0,.023,0,.03,0,.019,0,.035,0,.014,0,.04-.005c.786-.108,1.589-.212,2.387-.308l.479,4c-2.18.261-4.391.583-6.573.957Zm33.112-1.441h0c-2.2-.182-4.437-.309-6.634-.379l.129-4.027c.692.022,1.4.05,2.114.084l.054,0,.052,0h.006l.046,0h.011l.042,0h.013l.041,0h.011l.041,0h.072l.032,0h.106l.028,0h.025l.029,0h.129l.034,0h.018l.037,0h.016l.038,0h.015l.039,0h.013l.042,0h.011l.045,0h.006l.048,0h.005l.05,0h0l.052,0c1.178.067,2.36.149,3.515.245l-.331,4.015Zm-19.924-.138h0L125.041.3l.141-.01.125-.008h.011l.043,0,.053,0h.008l.1-.007.021,0,.033,0,.022,0,.031,0h.025l.029,0,.03,0h.023l.031,0h.048l.029,0h.021l.032,0h.022l.03,0,.028,0,.025,0h.032l.021,0,.034,0h.02l.037,0h.016l.036,0h.017l.034,0h.02l.031,0h.023l.032,0h.02l.035,0h.019l.038,0h.015l.04,0h.013l.045,0h.008l.044,0h.009l.042,0h.011l.04,0h.015l.043,0h.009l.045,0h.008l.046,0h.008l.044,0h.01l.048,0h0l.048,0h.006l.048,0h0l.048,0h.006L127.6.145c1.425-.071,2.868-.119,4.287-.145l.073,4.028c-2.207.04-4.441.136-6.639.287Z" transform="translate(530.219 0.402)" stroke="rgba(0,0,0,0)" stroke-miterlimit="10" stroke-width="1" fill="url(#linear-gradient-3)"/>
        <path id="Subtração_6" data-name="Subtração 6" d="M132.328,132.558h0c-.681-.01-1.392-.026-2.116-.047l-.053,0-.052,0H130.1l-.046,0h-.791l-.042,0h-.01l-.045,0h-.007l-.048,0h-.005l-.05,0h0l-.052,0c-1.184-.046-2.368-.108-3.518-.183l.261-4.02c2.2.143,4.43.231,6.641.263l-.058,4.028Zm6.852-.072h0l-.143-4.026c2.208-.079,4.44-.214,6.633-.4l.346,4.014-.168.015h-.015l-.083.007h-.01l-.043,0-.053,0h-.007l-.1.008h-.02l-.033,0-.022,0-.03,0-.025,0-.028,0-.03,0-.022,0-.03,0-.024,0-.024,0-.029,0-.021,0-.032,0-.023,0-.029,0-.028,0-.025,0-.031,0H145l-.034,0h-.02l-.037,0H144.9l-.036,0h-.019l-.033,0h-.02l-.031,0-.023,0-.032,0h-.02l-.035,0-.019,0-.037,0h-.015l-.04,0h-.013l-.044,0h-.008l-.044,0h-.01l-.042,0h-.012l-.04,0h-.014l-.043,0h-.009l-.045,0h-.008l-.045,0h-.008l-.044,0h-.01l-.048,0h0l-.049,0h-.005l-.049,0h0l-.047,0h-.007l-.4.027-.027,0C142.036,132.361,140.595,132.435,139.18,132.485Zm-20.516-.817h0c-1.834-.213-3.692-.468-5.523-.759l-.013,0-.037-.006-.041-.007h-.009c-.4-.064-.788-.128-1.157-.19l.669-3.973c2.165.365,4.377.68,6.576.935l-.465,4Zm34.157-.358h0l-.549-3.991c2.183-.3,4.388-.66,6.556-1.072l.752,3.958-.185.035h0l-.082.016h0l-.049.009h-.008l-.042.008-.019,0-.033.006-.028.005-.022,0-.041.008-.01,0c-1.126.209-2.277.408-3.421.59l-.049.008h-.005l-.045.007-.01,0-.041.006-.011,0-.037.006-.019,0-.027,0-.026,0-.024,0-.03,0-.018,0-.034.005-.014,0-.04.007h0c-.784.122-1.585.239-2.38.349Zm-47.659-1.916h0l-.1-.023-.05-.011h0l-.046-.011h-.008l-.045-.01H104.9l-.044-.01-.009,0-.043-.009-.01,0-.04-.009-.013,0-.04-.009-.01,0-.041-.009-.012,0-.04-.009-.011,0-.038-.009-.015,0-.037-.009-.014,0-.037-.008-.017,0-.034-.008-.018,0-.031-.007-.022-.005-.032-.007-.019,0-.035-.008-.018,0-.038-.009-.012,0-.036-.008-.017,0-.1-.024-.012,0-.041-.009-.017,0-.033-.007-.023-.005-.03-.007-.022-.005-.028-.007-.026-.006-.026-.006-.026-.006-.024-.005-.027-.007-.025-.006-.029-.007-.021-.005-.03-.007-.022-.005-.029-.007-.021-.005-.029-.007-.024-.006-.027-.006-.023-.005-.028-.007-.024-.006-.026-.006-.027-.006-.024-.006-.029-.007-.022-.005-.028-.007-.023-.005-.03-.007-.021,0-.03-.007-.021-.005-.033-.008-.017,0-.034-.008-.018,0-.034-.008-.017,0-.034-.008-.017,0-.036-.009-.016,0-.036-.009-.015,0-.041-.01-.01,0-.042-.01-.01,0-.046-.011h0c-1.338-.324-2.7-.676-4.034-1.045h0l-.047-.013h0l1.073-3.883c2.126.587,4.294,1.126,6.445,1.6l-.872,3.933Zm61.111-.638h0l-.954-3.914c2.147-.523,4.3-1.107,6.411-1.737l1.153,3.861c-1.777.53-3.58,1.028-5.36,1.48l-.052.013h0l-.046.012-.009,0-.042.011-.013,0-.035.009-.023.005-.028.007-.026.007-.024.006-.03.007-.02.005-.035.009-.013,0-.04.01-.011,0-.041.011-.008,0-.044.011-.007,0-.7.173Zm-74.309-3.006h0l-.174-.058-.063-.021-.1-.033-.1-.032,0,0-.046-.015h0l-.046-.015,0,0-.045-.015h0l-.045-.015-.006,0-.044-.015h0l-.045-.015h-.005l-.529-.181h0l-.041-.014-.009,0-.039-.013-.011,0-.036-.012-.013-.005-.036-.012-.013,0-.034-.011-.016-.006-.033-.011-.016-.006-.031-.011-.019-.006-.032-.011-.017-.006-.032-.011-.018-.006-.032-.011-.018-.006-.031-.011-.018-.006-.033-.012-.014,0-.035-.012-.016-.006-.034-.012-.015,0-.034-.012-.016-.006-.035-.012-.01,0-.039-.014-.009,0L89.782,125l-.012,0-.082-.029h0l-.039-.013-.01,0-.028-.009-.024-.008-.025-.009-.023-.008-.028-.01-.021-.008-.026-.009-.024-.009-.025-.009-.025-.009-.025-.009-.023-.008-.027-.009-.023-.008-.026-.009-.023-.008-.025-.009-.026-.009-.023-.008-.025-.009-.025-.009-.026-.009-.022-.008-.028-.009-.021-.008-.029-.01-.02-.007-.03-.011-.02-.007-.032-.012-.016-.006-.036-.013-.014-.005-.037-.013-.012,0-.036-.013-.014-.005-.042-.015-.007,0-.3-.109h0l-.045-.017-.009,0-.041-.016-.006,0-.044-.016,0,0-.045-.016,0,0-.045-.016-.007,0-.044-.016,0,0-.046-.016h0l-.046-.017h0l-.044-.016-.008,0-.045-.017h0l-.049-.018c-.764-.282-1.538-.576-2.3-.873l1.465-3.753c2.055.8,4.156,1.561,6.247,2.256l-1.271,3.823Zm87.429-.912h0l-1.349-3.8c2.073-.737,4.159-1.539,6.2-2.385l1.543,3.722c-1.692.7-3.426,1.378-5.154,2.012l-.048.018-.047.017-.006,0-.043.016-.007,0-.041.015-.01,0-.04.015,0,0-.044.016-.006,0-.043.016h0l-.044.016-.008,0-.089.032-.034.012-.015.005-.706.253ZM79.209,120.769h0c-2.052-.925-4.111-1.917-6.121-2.948l-.045-.023,0,0,1.841-3.584c1.964,1.009,3.977,1.979,5.984,2.884l-1.655,3.673Zm112.833-1.175h0l-1.731-3.638c1.988-.946,3.98-1.958,5.923-3.007l1.915,3.545c-1.073.58-2.167,1.152-3.252,1.7l0,0-.04.02-.007,0-.037.019-.009.005-.037.019-.009,0-.035.018-.013.007-.033.017-.012.006-.034.018-.012.006-.035.017-.009,0-.037.019-.008,0-.039.019,0,0-.041.02,0,0c-.772.387-1.577.78-2.392,1.168ZM67.029,114.512h0c-.306-.178-.541-.316-.764-.448l-.008,0-.034-.02-.012-.007-.028-.017L66.163,114l-.025-.014-.02-.012-.024-.014-.024-.014-.02-.012-.028-.017-.015-.009-.033-.019-.012-.007-.035-.02-.01-.006-.041-.025h0c-.655-.389-1.332-.8-2.013-1.219l0,0-.041-.025-.007,0-.037-.023-.009-.005-.034-.021-.013-.008-.03-.019-.014-.008-.029-.018-.016-.01-.029-.018-.015-.01-.027-.017-.019-.012-.021-.013-.023-.014-.017-.011-.029-.018,0,0c-.733-.456-1.489-.937-2.247-1.43l2.2-3.378c1.851,1.2,3.755,2.374,5.66,3.479l-2.022,3.485Zm137.059-1.428h0l-2.094-3.442c1.883-1.146,3.763-2.355,5.586-3.6l2.266,3.331c-1.234.84-2.5,1.669-3.755,2.465h0l-.043.027L206,111.9l0,0-.041.025-.005,0-.038.024-.009.006-.039.024,0,0-.04.025-.005,0-.043.027-.045.028-.262.164-.01.006,0,0-.041.026-.044.027-.006,0-.039.025-.006,0-.038.023-.009.006-.036.023-.009.005-.036.022-.008.005-.038.024-.006,0-.04.025,0,0c-.365.226-.693.427-1,.616ZM55.551,107.047h0L55.484,107l-.038-.028-.008-.005-.032-.023-.012-.009-.028-.02-.017-.013-.023-.016-.022-.016-.019-.014-.03-.022-.01-.007c-1.734-1.265-3.462-2.59-5.136-3.938l2.528-3.138c1.716,1.382,3.491,2.74,5.278,4.036l-2.365,3.261Zm159.858-1.666h0l-2.432-3.211c1.759-1.333,3.506-2.728,5.192-4.145l2.593,3.084c-1.742,1.464-3.542,2.9-5.352,4.273ZM44.888,98.457h0c-.343-.306-.655-.587-.953-.86l-.039-.035h0l-.035-.034-.005,0-.034-.032-.005,0-.032-.029-.008-.007-.031-.029-.008-.007-.029-.027L43.7,97.38l-.038-.035-.068-.062-.007-.006-.031-.029-.006-.005-.029-.026-.009-.009-.03-.028-.006-.006-.031-.028-.007-.007-.03-.028L43.4,97.1l-.031-.028-.007-.007-.032-.03,0,0c-.57-.525-1.151-1.069-1.726-1.618l-.035-.033,0,0-.033-.031,0,0-.031-.029-.007-.007-.029-.028-.009-.008-.029-.028-.008-.008-.028-.027-.009-.009-.027-.025-.012-.012-.024-.023-.015-.013-.024-.023-.012-.012-.024-.023-.017-.016-.02-.02-.074-.072-.009-.008-.031-.03-.038-.037-.076-.074,0,0-.036-.035-.039-.038c-.329-.318-.664-.646-.995-.973L42.728,90.9c1.56,1.542,3.189,3.072,4.843,4.549l-2.683,3.005Zm181-1.887h0l-2.745-2.948c1.613-1.5,3.21-3.066,4.747-4.65l2.891,2.806-.013.014-.013.013-.021.022-.016.016-.02.021-.016.016-.02.021-.017.017-.019.02-.02.02-.015.016-.024.024-.013.013-.026.027-.009.009-.031.032-.006.005-.009.009,0,0-.138.141,0,0-.034.035-.036.037-.005,0-.033.034,0,0-.033.034,0,0-.035.036-.037.038c-1.316,1.337-2.682,2.668-4.061,3.956l-.018.017-.018.017-.024.022-.013.012-.029.028-.006.006-.034.031,0,0-.014.012ZM35.149,88.832h0c-1.53-1.673-3.041-3.412-4.491-5.17L33.765,81.1c1.4,1.693,2.863,3.381,4.357,5.016l-2.973,2.718Zm200.276-2.088h0L232.4,84.087c1.45-1.655,2.881-3.372,4.251-5.106l3.161,2.5c-1.416,1.791-2.89,3.561-4.382,5.263ZM26.434,78.27h0c-1.355-1.824-2.682-3.707-3.944-5.6l3.352-2.236c1.22,1.829,2.507,3.656,3.826,5.431l-3.234,2.4ZM243.917,76h0l-3.283-2.335c1.278-1.8,2.526-3.65,3.712-5.51l3.4,2.165c-.193.3-.363.568-.52.81v0l-.028.042v0l-.027.041-.005.008-.024.036-.005.008-.023.036-.006.01-.022.034-.007.011-.02.031-.01.015-.018.028-.011.016-.017.026-.012.019-.015.023-.013.02-.013.02-.017.025-.006.01-.022.033-.028.044-.007.01-.1.157-.025.039,0,.006-.025.038,0,0-.025.038,0,0-.025.038,0,0-.025.038,0,.005-.026.039c-.782,1.186-1.6,2.379-2.42,3.545v0l-.028.039,0,0-.025.035-.007.009-.023.033-.006.008-.023.033-.007.009-.024.033-.006.008-.023.032-.008.012-.023.031-.006.008-.024.033-.006.008-.018.027ZM18.836,66.88h0c-.353-.593-.7-1.183-1.026-1.752v0l-.026-.044-.026-.045,0,0-.025-.044-.025-.045,0,0-.024-.042,0,0-.024-.042,0,0-.025-.045-.026-.046-.159-.28-.026-.046v0l-.024-.043,0-.007-.022-.039,0-.008-.021-.037-.006-.01-.02-.036-.006-.011-.019-.033-.008-.015-.018-.032-.008-.013-.017-.032-.009-.016-.017-.03-.009-.016-.017-.03L17.171,64l-.017-.03-.009-.016-.016-.029-.01-.018-.015-.027-.01-.019-.016-.027-.01-.018-.017-.031-.008-.015-.017-.029-.013-.023-.022-.039-.007-.012-.019-.033-.01-.019-.016-.027-.012-.022-.012-.023-.014-.025-.012-.021-.014-.025-.011-.019-.014-.025-.012-.021-.013-.024-.011-.021-.014-.025-.012-.021-.013-.024-.011-.02-.014-.025-.012-.021-.014-.025-.009-.018-.016-.028-.009-.017-.016-.028-.009-.017-.016-.028-.011-.02-.013-.025L16.613,63l-.014-.025-.012-.021-.013-.024-.013-.024-.012-.021-.016-.029-.052-.1-.007-.012-.016-.029-.009-.017-.016-.029-.009-.017-.016-.028-.009-.017-.015-.028-.01-.019-.013-.025-.012-.021-.013-.025-.011-.02-.015-.027-.009-.017-.016-.029-.009-.017-.015-.026-.011-.021-.013-.025-.011-.02-.014-.025-.011-.021-.014-.025-.012-.022-.012-.021-.016-.028-.009-.018-.016-.029-.009-.017-.015-.028-.01-.019L16.067,62l0-.008-.025-.047-.025-.047,0-.008-.021-.038-.007-.012-.019-.036,0-.009-.02-.037-.007-.013-.018-.033L15.9,61.7l-.016-.029-.009-.017-.016-.03-.008-.016-.017-.031-.008-.016-.017-.032-.007-.013-.019-.035-.006-.011-.02-.039,0-.007-.021-.04,0-.008-.022-.041,0-.005-.023-.042,0,0-.2-.378,3.562-1.882c1.026,1.942,2.121,3.891,3.253,5.791l-3.461,2.062Zm232.44-2.425h0l-3.5-1.989c1.086-1.913,2.14-3.884,3.132-5.859l3.6,1.808c-.339.674-.684,1.347-1.025,2l0,.007-.02.039-.006.011-.018.033-.008.016-.016.031-.009.016-.015.029-.01.019-.014.026-.012.023-.011.021-.014.027-.01.019-.015.028-.008.016-.016.03-.008.015-.016.032-.007.012-.018.033,0,.009c-.633,1.2-1.287,2.39-1.944,3.546ZM12.438,54.773h0c-.956-2.056-1.873-4.17-2.726-6.283l3.736-1.508c.821,2.034,1.71,4.084,2.643,6.094l-3.653,1.7ZM257.42,52.218h0L253.732,50.6c.888-2.02,1.735-4.088,2.516-6.147l3.766,1.43c-.172.453-.343.9-.508,1.318l-.077.2-.127.323,0,.006-.013.035-.006.014-.012.032-.007.017-.012.03-.007.019-.012.029-.008.021-.01.024-.01.025-.009.023-.01.026-.009.022-.011.026-.01.025-.009.024-.01.024-.01.025-.01.025-.01.023-.01.024-.009.025-.01.024-.011.027-.008.019-.012.03-.008.02-.011.028-.008.02-.01.026-.01.024-.011.025-.009.022-.012.029-.008.02-.011.027-.038.093-.011.025-.008.02-.011.028-.011.025-.009.023-.011.028-.008.02-.012.028-.008.02-.012.029-.008.018-.012.031-.008.019-.012.029-.008.019-.012.029-.009.021-.011.027-.008.02-.012.029-.008.02-.012.029-.008.019-.012.029-.009.021-.011.027-.008.02-.012.028-.009.02-.012.028-.007.018-.013.031-.007.018-.013.03-.008.017-.012.031-.006.014-.038.09-.031.075,0,.012-.012.029-.008.02-.011.027-.008.021-.012.028-.009.02-.011.026-.009.022-.011.026-.009.023-.01.024-.01.024-.01.024-.011.024-.009.023-.011.026-.009.021-.012.027-.009.02-.012.028-.008.02-.012.029-.008.019-.013.03-.008.019-.013.031-.008.017-.014.033-.007.016-.015.035-.005.012-.018.041,0,.006c-.236.558-.478,1.118-.719,1.666ZM7.313,42.076h0c-.253-.734-.5-1.466-.73-2.176l0-.007-.014-.042-.006-.018-.01-.032-.007-.022-.009-.026-.009-.029L6.519,39.7l-.011-.032L6.5,39.655l-.011-.034-.005-.016-.011-.035,0-.013L6.46,39.52l0-.012-.013-.039,0-.009-.013-.042,0-.006-.015-.046c-.264-.821-.519-1.644-.782-2.517v0L5.614,36.8v-.005l-.012-.04,0-.012-.01-.035-.005-.016-.009-.031-.007-.022-.008-.025-.007-.026-.007-.024-.009-.03-.005-.018-.011-.035,0-.014-.012-.04,0-.008-.013-.043,0-.008-.014-.047c-.08-.273-.156-.533-.225-.773L9.117,34.43c.611,2.116,1.285,4.246,2,6.331L7.313,42.075Zm254.968-2.658h0l-3.834-1.235c.675-2.1,1.3-4.24,1.872-6.372l3.894,1.036c-.5,1.882-1.051,3.778-1.633,5.634v.005l-.014.044,0,.006-.014.044,0,.006-.013.042,0,.009-.012.037,0,.015-.011.035,0,.015-.011.033-.005.017-.011.033-.006.018-.009.031-.007.02-.009.029-.007.021-.009.028-.007.023-.009.027-.009.026-.007.021-.01.032-.006.019-.011.032-.005.017-.011.035,0,.016-.016.049-.021.065,0,.006-.026.081ZM3.517,28.921h0c-.141-.6-.279-1.217-.412-1.82l-.011-.05,0-.007L3.082,27l0-.008-.009-.042,0-.012L3.061,26.9l0-.014-.008-.037,0-.017L3.039,26.8l0-.018-.007-.033,0-.02-.007-.03,0-.022-.006-.027L3,26.618l0-.024-.006-.028,0-.022-.007-.032,0-.017-.008-.036,0-.013-.008-.04,0-.01-.008-.04,0-.012L2.933,26.3l0-.008-.009-.043v-.006c-.147-.694-.291-1.4-.429-2.1l-.01-.051v0l-.009-.048v0l-.01-.049v0l-.009-.049v0l-.009-.048V23.88l-.009-.045v-.008l-.009-.044,0-.009-.008-.042,0-.012L2.4,23.682l0-.017-.007-.034,0-.021-.005-.03-.005-.026,0-.024L2.368,23.5l0-.02-.007-.038,0-.012-.008-.046v-.006c-.077-.407-.147-.786-.214-1.161L6.095,21.5c.392,2.172.844,4.36,1.345,6.5l-3.923.917ZM265.8,26.186h0l-3.941-.835c.458-2.162.865-4.36,1.21-6.532l3.979.632c-.229,1.443-.487,2.908-.765,4.353v0l-.01.047v0l-.009.046,0,.007-.008.043v.009l-.008.041,0,.013-.007.039,0,.012-.008.039,0,.014-.007.036,0,.019-.007.032,0,.023-.005.027,0,.025-.005.026-.006.029,0,.021-.007.034,0,.017-.008.039,0,.012-.008.041,0,.01c-.113.57-.229,1.131-.343,1.67ZM1.086,15.446h0v-.007l0-.018,0-.033,0-.031,0-.02-.005-.04v-.012L1.06,15.24v-.006c-.276-2.18-.5-4.4-.671-6.6l4.018-.309c.169,2.2.4,4.422.677,6.61l-4,.512Zm266.866-2.784h0l-4.005-.428c.234-2.184.415-4.411.538-6.622l4.023.225c-.1,1.757-.232,3.524-.4,5.255v0l0,.048v.007l0,.044v.013l0,.038v.019l0,.032,0,.026,0,.026,0,.027,0,.024,0,.034,0,.016,0,.04V11.5l0,.045v.006l0,.05c-.037.37-.074.727-.11,1.061ZM.036,1.794h0Q.028,1.5.022,1.2V1.149l0-.127V.779l0-.069V0H4.03c0,.145,0,.3.008.482.006.377.015.771.026,1.205Z" transform="translate(795.709 136.584)" stroke="rgba(0,0,0,0)" stroke-miterlimit="10" stroke-width="1" fill="url(#linear-gradient-4)"/>
        <path id="Caminho_28575" data-name="Caminho 28575" d="M1200.867,896A134.567,134.567,0,0,0,1066.3,1030.567c0,.067,0,.134,0,.2h0a130.53,130.53,0,0,1-261.059,0h0c0-.067,0-.134,0-.2a134.567,134.567,0,0,0-269.134,0c0,.067,0,.134,0,.2h0a130.53,130.53,0,0,1-261.059,0h-4.035a134.565,134.565,0,0,0,269.129,0h0c0-.067,0-.134,0-.2a130.532,130.532,0,1,1,261.064,0c0,.067,0,.134,0,.2h0a134.565,134.565,0,0,0,269.129,0h0c0-.067,0-.134,0-.2a130.532,130.532,0,1,1,261.064,0c0,.067,0,.134,0,.2h4.035c0-.067,0-.134,0-.2A134.567,134.567,0,0,0,1200.867,896Z" transform="translate(-271.006 -896)" fill="url(#linear-gradient-5)"/>
      </g>
      <ellipse id="Elipse_20" data-name="Elipse 20" cx="9" cy="9.5" rx="9" ry="9.5" transform="translate(0 125.27)" fill="#26cda2"/>
      <ellipse id="Elipse_21" data-name="Elipse 21" cx="9" cy="9.5" rx="9" ry="9.5" transform="translate(267 125.27)" fill="#31a1ad"/>
      <circle id="Elipse_22" data-name="Elipse 22" cx="9.5" cy="9.5" r="9.5" transform="translate(530 125.27)" fill="#3d7eb6"/>
      <ellipse id="Elipse_23" data-name="Elipse 23" cx="9" cy="9.5" rx="9" ry="9.5" transform="translate(797 125.27)" fill="#4c56c0"/>
      <path id="Polígono_1" data-name="Polígono 1" d="M8.75,3.168a2,2,0,0,1,3.5,0l7.11,12.865A2,2,0,0,1,17.61,19H3.39a2,2,0,0,1-1.75-2.967Z" transform="translate(1080.001 141.27) rotate(-180)" fill="#5e29cc"/>
    </g>
    <g id="pdv">
      <text id="PDV-2" data-name="PDV" transform="translate(1223.5 1432)" fill="#5839c8" font-size="26" font-family="Helvetica-Bold, Helvetica" font-weight="700"><tspan x="-26.73" y="0">PDV</tspan></text>
      <g id="pharmacy" transform="translate(1167 1261.009)">
        <path id="Caminho_28627" data-name="Caminho 28627" d="M102.944,115.236H98.274V56.091h3.113a1.556,1.556,0,0,0,1.556-1.556V45.2a1.556,1.556,0,0,0-1.556-1.556H73.927a18.677,18.677,0,0,0-35.355,0H11.113A1.556,1.556,0,0,0,9.556,45.2v9.339a1.556,1.556,0,0,0,1.556,1.556h3.113v59.145H9.556a1.556,1.556,0,0,0,0,3.113h93.387a1.556,1.556,0,1,0,0-3.113ZM74.7,46.752H99.831v6.226h-25.2a18.791,18.791,0,0,0,.066-6.226ZM56.25,34.106A15.565,15.565,0,1,1,40.685,49.67,15.565,15.565,0,0,1,56.25,34.106ZM12.669,52.978V46.752H37.8a18.791,18.791,0,0,0,.066,6.226Zm59.145,62.258H40.685V113.68H71.815Zm-26.46-4.669V80.994h9.339v29.573Zm12.452,0V80.994h9.339v29.573Zm37.355,4.669H74.927v-3.113a1.556,1.556,0,0,0-1.556-1.556H70.258V79.438A1.556,1.556,0,0,0,68.7,77.881H43.8a1.556,1.556,0,0,0-1.556,1.556v31.129H39.129a1.556,1.556,0,0,0-1.556,1.556v3.113H17.339V56.091h21.37a18.68,18.68,0,0,0,35.082,0h21.37Z" fill="#5839c8"/>
        <path id="Caminho_28628" data-name="Caminho 28628" d="M223.474,79.065l-1.1-1.1a5.448,5.448,0,0,0-7.7,0l-7.7,7.7a5.448,5.448,0,0,0,0,7.7l1.1,1.1a5.448,5.448,0,0,0,7.7,0l7.7-7.7A5.448,5.448,0,0,0,223.474,79.065Zm-9.907,13.206a2.337,2.337,0,0,1-3.3,0l-1.1-1.1a2.332,2.332,0,0,1,0-3.3l2.751-2.753,4.4,4.4Zm7.7-7.7L218.52,87.32l-4.4-4.4,2.753-2.751a2.337,2.337,0,0,1,3.3,0l1.1,1.1a2.332,2.332,0,0,1,0,3.3Z" transform="translate(-158.969 -36.548)" fill="#5839c8"/>
        <path id="Caminho_28629" data-name="Caminho 28629" d="M89.121,272H73.556A1.556,1.556,0,0,0,72,273.556v15.565a1.556,1.556,0,0,0,1.556,1.556H89.121a1.556,1.556,0,0,0,1.556-1.556V273.556A1.556,1.556,0,0,0,89.121,272Zm-14.008,3.113h4.669v12.452H75.113Zm12.452,12.452H82.9V275.113h4.669Z" transform="translate(-51.548 -194.119)" fill="#5839c8"/>
        <path id="Caminho_28630" data-name="Caminho 28630" d="M361.121,272H345.556A1.556,1.556,0,0,0,344,273.556v15.565a1.556,1.556,0,0,0,1.556,1.556h15.565a1.556,1.556,0,0,0,1.556-1.556V273.556A1.556,1.556,0,0,0,361.121,272Zm-14.008,3.113h4.669v12.452h-4.669Zm12.452,12.452H354.9V275.113h4.669Z" transform="translate(-270.629 -194.119)" fill="#5839c8"/>
      </g>
    </g>
    <g id="força_de_vendas">
      <text id="FORÇA_DE_VENDAS-2" data-name="FORÇA DE 
VENDAS" transform="translate(422 1418)" fill="#2abea6" font-size="26" font-family="Helvetica-Bold, Helvetica" font-weight="700"><tspan x="-71.024" y="0">FORÇA DE </tspan><tspan x="-54.177" y="28">VENDAS</tspan></text>
      <g id="group_1_" data-name="group (1)" transform="translate(376.98 1288.798)">
        <g id="Grupo_10362" data-name="Grupo 10362" transform="translate(21.915 3.809)">
          <g id="Grupo_10361" data-name="Grupo 10361">
            <path id="Caminho_28605" data-name="Caminho 28605" d="M130.923,21.428a1.478,1.478,0,0,0-1.943-.768,45.459,45.459,0,0,0-4.711,2.379,1.478,1.478,0,1,0,1.483,2.556,42.445,42.445,0,0,1,4.4-2.223A1.478,1.478,0,0,0,130.923,21.428Z" transform="translate(-123.532 -20.537)" fill="#2abea6"/>
          </g>
        </g>
        <g id="Grupo_10364" data-name="Grupo 10364" transform="translate(51.494 0.85)">
          <g id="Grupo_10363" data-name="Grupo 10363">
            <path id="Caminho_28606" data-name="Caminho 28606" d="M297.151,5.079a45.272,45.272,0,0,0-5.141-1.2,1.478,1.478,0,0,0-.505,2.912,42.349,42.349,0,0,1,4.8,1.126,1.478,1.478,0,0,0,.842-2.833Z" transform="translate(-290.279 -3.852)" fill="#2abea6"/>
          </g>
        </g>
        <g id="Grupo_10366" data-name="Grupo 10366" transform="translate(41.312 0.202)">
          <g id="Grupo_10365" data-name="Grupo 10365">
            <path id="Caminho_28607" data-name="Caminho 28607" d="M239.548.273C238.7.226,237.836.2,236.982.2h0c-.9,0-1.81.027-2.706.08a1.478,1.478,0,0,0,.085,2.953c.029,0,.059,0,.088,0,.839-.049,1.691-.075,2.532-.075h0c.8,0,1.608.023,2.4.067a1.478,1.478,0,0,0,.165-2.951Z" transform="translate(-232.88 -0.202)" fill="#2abea6"/>
          </g>
        </g>
        <g id="Grupo_10368" data-name="Grupo 10368" transform="translate(86.676 33.916)">
          <g id="Grupo_10367" data-name="Grupo 10367">
            <path id="Caminho_28608" data-name="Caminho 28608" d="M492.438,196.587a45.427,45.427,0,0,0-.922-5.2,1.478,1.478,0,1,0-2.875.685,42.507,42.507,0,0,1,.862,4.86,1.478,1.478,0,0,0,1.465,1.305,1.493,1.493,0,0,0,.175-.01A1.478,1.478,0,0,0,492.438,196.587Z" transform="translate(-488.601 -190.252)" fill="#2abea6"/>
          </g>
        </g>
        <g id="Grupo_10370" data-name="Grupo 10370" transform="translate(85.233 54.267)">
          <g id="Grupo_10369" data-name="Grupo 10369">
            <path id="Caminho_28609" data-name="Caminho 28609" d="M483.753,305.018a1.478,1.478,0,0,0-1.778,1.1,42.346,42.346,0,0,1-1.414,4.731,1.478,1.478,0,1,0,2.777,1.01,45.273,45.273,0,0,0,1.513-5.063A1.478,1.478,0,0,0,483.753,305.018Z" transform="translate(-480.472 -304.978)" fill="#2abea6"/>
          </g>
        </g>
        <g id="Grupo_10372" data-name="Grupo 10372" transform="translate(61.272 3.755)">
          <g id="Grupo_10371" data-name="Grupo 10371">
            <path id="Caminho_28610" data-name="Caminho 28610" d="M352.183,22.715a45.4,45.4,0,0,0-4.723-2.366,1.478,1.478,0,1,0-1.167,2.715,42.481,42.481,0,0,1,4.414,2.212,1.478,1.478,0,1,0,1.475-2.56Z" transform="translate(-345.398 -20.228)" fill="#2abea6"/>
          </g>
        </g>
        <g id="Grupo_10374" data-name="Grupo 10374" transform="translate(1.185 54.313)">
          <g id="Grupo_10373" data-name="Grupo 10373">
            <path id="Caminho_28611" data-name="Caminho 28611" d="M11.007,311.1a42.309,42.309,0,0,1-1.418-4.727,1.478,1.478,0,0,0-2.876.682,45.248,45.248,0,0,0,1.517,5.059,1.478,1.478,0,0,0,2.776-1.014Z" transform="translate(-6.674 -305.235)" fill="#2abea6"/>
          </g>
        </g>
        <g id="Grupo_10376" data-name="Grupo 10376" transform="translate(31.269 0.874)">
          <g id="Grupo_10375" data-name="Grupo 10375">
            <path id="Caminho_28612" data-name="Caminho 28612" d="M184.168,5.211a1.478,1.478,0,0,0-1.712-1.2,45.291,45.291,0,0,0-5.138,1.221,1.478,1.478,0,1,0,.851,2.83,42.343,42.343,0,0,1,4.8-1.141A1.477,1.477,0,0,0,184.168,5.211Z" transform="translate(-176.265 -3.99)" fill="#2abea6"/>
          </g>
        </g>
        <g id="Grupo_10378" data-name="Grupo 10378" transform="translate(87.578 44.044)">
          <g id="Grupo_10377" data-name="Grupo 10377">
            <path id="Caminho_28613" data-name="Caminho 28613" d="M495.46,247.347a1.477,1.477,0,0,0-1.477,1.478v.093a43.124,43.124,0,0,1-.283,4.929,1.478,1.478,0,1,0,2.936.34,46.071,46.071,0,0,0,.3-5.269v-.093A1.478,1.478,0,0,0,495.46,247.347Z" transform="translate(-493.69 -247.347)" fill="#2abea6"/>
          </g>
        </g>
        <g id="Grupo_10380" data-name="Grupo 10380" transform="translate(46.513 87.408)">
          <g id="Grupo_10379" data-name="Grupo 10379">
            <path id="Caminho_28614" data-name="Caminho 28614" d="M270.2,493.022a1.477,1.477,0,0,0-1.711-1.2,42.735,42.735,0,0,1-4.9.57,1.477,1.477,0,0,0,.084,2.953l.087,0a45.638,45.638,0,0,0,5.244-.609A1.477,1.477,0,0,0,270.2,493.022Z" transform="translate(-262.197 -491.8)" fill="#2abea6"/>
          </g>
        </g>
        <g id="Grupo_10382" data-name="Grupo 10382" transform="translate(36.331 87.416)">
          <g id="Grupo_10381" data-name="Grupo 10381">
            <path id="Caminho_28615" data-name="Caminho 28615" d="M211.434,492.432a42.773,42.773,0,0,1-4.9-.564,1.478,1.478,0,1,0-.508,2.911,45.7,45.7,0,0,0,5.244.6l.085,0a1.478,1.478,0,0,0,.082-2.953Z" transform="translate(-204.799 -491.845)" fill="#2abea6"/>
          </g>
        </g>
        <g id="Grupo_10384" data-name="Grupo 10384" transform="translate(26.556 84.5)">
          <g id="Grupo_10383" data-name="Grupo 10383">
            <path id="Caminho_28616" data-name="Caminho 28616" d="M156.4,477.215a42.241,42.241,0,0,1-4.64-1.686,1.478,1.478,0,0,0-1.17,2.714,45.292,45.292,0,0,0,4.966,1.8,1.477,1.477,0,1,0,.844-2.832Z" transform="translate(-149.695 -475.408)" fill="#2abea6"/>
          </g>
        </g>
        <g id="Grupo_10386" data-name="Grupo 10386" transform="translate(0.288 34.052)">
          <g id="Grupo_10385" data-name="Grupo 10385">
            <path id="Caminho_28617" data-name="Caminho 28617" d="M4.309,191.062a1.477,1.477,0,0,0-1.777,1.1,45.477,45.477,0,0,0-.9,5.2,1.478,1.478,0,0,0,2.936.336,42.47,42.47,0,0,1,.846-4.862A1.477,1.477,0,0,0,4.309,191.062Z" transform="translate(-1.618 -191.022)" fill="#2abea6"/>
          </g>
        </g>
        <g id="Grupo_10388" data-name="Grupo 10388" transform="translate(56.557 84.483)">
          <g id="Grupo_10387" data-name="Grupo 10387">
            <path id="Caminho_28618" data-name="Caminho 28618" d="M326.452,476.2a1.477,1.477,0,0,0-1.943-.77,42.352,42.352,0,0,1-4.637,1.69,1.478,1.478,0,1,0,.848,2.831,45.289,45.289,0,0,0,4.962-1.809A1.478,1.478,0,0,0,326.452,476.2Z" transform="translate(-318.819 -475.31)" fill="#2abea6"/>
          </g>
        </g>
        <g id="Grupo_10390" data-name="Grupo 10390" transform="translate(0.001 44.184)">
          <g id="Grupo_10389" data-name="Grupo 10389">
            <path id="Caminho_28619" data-name="Caminho 28619" d="M3.244,254.541a43.084,43.084,0,0,1-.288-4.929,1.477,1.477,0,0,0-1.478-1.476h0A1.478,1.478,0,0,0,0,249.615a46.059,46.059,0,0,0,.308,5.269,1.478,1.478,0,0,0,1.466,1.306,1.51,1.51,0,0,0,.173-.01A1.478,1.478,0,0,0,3.244,254.541Z" transform="translate(-0.001 -248.136)" fill="#2abea6"/>
          </g>
        </g>
        <g id="Grupo_10392" data-name="Grupo 10392" transform="translate(0.835 5.977)">
          <g id="Grupo_10391" data-name="Grupo 10391">
            <path id="Caminho_28620" data-name="Caminho 28620" d="M27.484,47.8a1.333,1.333,0,1,0-2.523.861,8.011,8.011,0,0,1,.428,2.593v3.56a.475.475,0,0,1-.474.474H7.842a.475.475,0,0,1-.474-.474v-3.56a8.04,8.04,0,0,1,2.673-5.979A7.8,7.8,0,1,0,8.8,42.834a10.707,10.707,0,0,0-4.1,8.417v3.56a3.144,3.144,0,0,0,3.141,3.14H24.915a3.144,3.144,0,0,0,3.141-3.141v-3.56A10.679,10.679,0,0,0,27.484,47.8ZM16.291,35.424a5.154,5.154,0,1,1-5.153,5.154A5.159,5.159,0,0,1,16.291,35.424Z" transform="translate(-4.702 -32.758)" fill="#2abea6"/>
          </g>
        </g>
        <g id="Grupo_10394" data-name="Grupo 10394" transform="translate(66.639 5.977)">
          <g id="Grupo_10393" data-name="Grupo 10393">
            <path id="Caminho_28621" data-name="Caminho 28621" d="M398.435,47.8a1.333,1.333,0,1,0-2.523.861,8.015,8.015,0,0,1,.428,2.593v3.56a.475.475,0,0,1-.474.474H378.793a.475.475,0,0,1-.474-.474v-3.56a8.04,8.04,0,0,1,2.673-5.979,7.8,7.8,0,1,0-1.237-2.438,10.707,10.707,0,0,0-4.1,8.417v3.56a3.144,3.144,0,0,0,3.141,3.141h17.072a3.144,3.144,0,0,0,3.141-3.141v-3.56A10.681,10.681,0,0,0,398.435,47.8ZM387.241,35.425a5.154,5.154,0,1,1-5.153,5.154A5.159,5.159,0,0,1,387.241,35.425Z" transform="translate(-375.653 -32.759)" fill="#2abea6"/>
          </g>
        </g>
        <g id="Grupo_10396" data-name="Grupo 10396" transform="translate(66.639 60.059)">
          <g id="Grupo_10395" data-name="Grupo 10395">
            <path id="Caminho_28622" data-name="Caminho 28622" d="M398.434,352.665a1.333,1.333,0,1,0-2.523.861,8.013,8.013,0,0,1,.428,2.593v3.56a.475.475,0,0,1-.474.474H378.792a.475.475,0,0,1-.474-.474v-3.56a8.04,8.04,0,0,1,2.673-5.979,7.8,7.8,0,1,0-1.237-2.438,10.707,10.707,0,0,0-4.1,8.418v3.56a3.144,3.144,0,0,0,3.141,3.141h17.072a3.144,3.144,0,0,0,3.141-3.141v-3.56A10.679,10.679,0,0,0,398.434,352.665Zm-11.193-12.372a5.154,5.154,0,1,1-5.153,5.154A5.159,5.159,0,0,1,387.241,340.293Z" transform="translate(-375.652 -337.627)" fill="#2abea6"/>
          </g>
        </g>
        <g id="Grupo_10398" data-name="Grupo 10398" transform="translate(0.835 60.059)">
          <g id="Grupo_10397" data-name="Grupo 10397">
            <path id="Caminho_28623" data-name="Caminho 28623" d="M27.484,352.665a1.333,1.333,0,1,0-2.523.861,8.01,8.01,0,0,1,.428,2.593v3.56a.475.475,0,0,1-.474.474H7.842a.475.475,0,0,1-.474-.474v-3.56a8.04,8.04,0,0,1,2.673-5.979A7.8,7.8,0,1,0,8.8,347.7a10.707,10.707,0,0,0-4.1,8.418v3.56a3.144,3.144,0,0,0,3.141,3.141H24.915a3.144,3.144,0,0,0,3.141-3.141v-3.56A10.679,10.679,0,0,0,27.484,352.665ZM16.291,340.293a5.154,5.154,0,1,1-5.153,5.154A5.159,5.159,0,0,1,16.291,340.293Z" transform="translate(-4.702 -337.627)" fill="#2abea6"/>
          </g>
        </g>
        <g id="Grupo_10400" data-name="Grupo 10400" transform="translate(21.128 30.885)">
          <g id="Grupo_10399" data-name="Grupo 10399">
            <path id="Caminho_28624" data-name="Caminho 28624" d="M155.992,173.165H141.806a12.384,12.384,0,0,0-12.2,10.343h-.484A10.184,10.184,0,0,0,119.1,193.82a10.3,10.3,0,0,0,5.7,9.3c1.711,4.145,7.051,6.134,7.287,6.22a1.333,1.333,0,0,0,1.67-1.8,9.647,9.647,0,0,1-.9-3.407H140.3a10.039,10.039,0,0,0,9.208-6.235h2.123a11.587,11.587,0,0,1-1.184,4.6,1.333,1.333,0,0,0,1.651,1.823c.3-.1,7.025-2.531,9.091-7.572a12.366,12.366,0,0,0-5.2-23.586Zm3.645,21.356a1.311,1.311,0,0,0-.762.81c-.748,2.336-3.025,4.074-4.9,5.159a11.974,11.974,0,0,0,.263-4.066,1.337,1.337,0,0,0-1.326-1.193h-11.1a9.63,9.63,0,0,1-3.612-.7,1.326,1.326,0,0,0-1.437.286l-.019.019a1.323,1.323,0,0,0,.443,2.162,12.284,12.284,0,0,0,4.625.9h4.719a7.3,7.3,0,0,1-6.223,3.568h-8.749a1.33,1.33,0,0,0-1.324,1.178,10.059,10.059,0,0,0,.092,2.8,7.552,7.552,0,0,1-3.183-3.67,1.377,1.377,0,0,0-.766-.861,7.62,7.62,0,0,1-4.61-7.091,7.516,7.516,0,0,1,7.361-7.646h.333a12.263,12.263,0,0,0,.874,3.961,1.323,1.323,0,0,0,2.163.448l.02-.02a1.323,1.323,0,0,0,.288-1.431,9.64,9.64,0,0,1-.694-3.818,9.79,9.79,0,0,1,9.835-9.484h13.885a9.862,9.862,0,0,1,9.863,9.731A9.664,9.664,0,0,1,159.637,194.521Z" transform="translate(-119.097 -173.165)" fill="#2abea6"/>
          </g>
        </g>
      </g>
    </g>
    <g id="pacientes">
      <text id="PACIENTES-2" data-name="PACIENTES" transform="translate(956 1432)" fill="#4273ba" font-size="26" font-family="Helvetica-Bold, Helvetica" font-weight="700"><tspan x="-73.442" y="0">PACIENTES</tspan></text>
      <path id="team" d="M19.924,105.847a30.11,30.11,0,0,0-3.9-.694,8.641,8.641,0,0,0,3.4-7.16c0-4.145-2.494-6.72-6.507-6.72S6.4,93.848,6.4,97.993a8.645,8.645,0,0,0,3.386,7.152,28.006,28.006,0,0,0-3.9.7C2.09,106.826,0,108.936,0,111.791v7.476a1.268,1.268,0,0,0,2.537,0v-7.476c0-2.034,2.164-3.017,3.981-3.485a25.864,25.864,0,0,1,12.8,0c1.483.368,3.97,1.309,3.97,3.482v7.476a1.268,1.268,0,0,0,2.537,0v-7.476c0-2.848-2.149-5.015-5.9-5.944ZM12.909,93.81c1.812,0,3.971.726,3.971,4.183,0,3.045-1.818,5.617-3.971,5.617s-3.97-2.572-3.97-5.617C8.94,94.536,11.1,93.81,12.909,93.81Zm41.03,12.037a30.079,30.079,0,0,0-3.9-.694,8.641,8.641,0,0,0,3.4-7.16c0-4.145-2.494-6.72-6.507-6.72s-6.507,2.575-6.507,6.72a8.644,8.644,0,0,0,3.386,7.152,28.006,28.006,0,0,0-3.9.7c-3.795.976-5.885,3.086-5.885,5.941v7.476a1.268,1.268,0,0,0,2.537,0v-7.476c0-2.034,2.164-3.018,3.981-3.485a25.861,25.861,0,0,1,12.8,0c1.483.368,3.97,1.309,3.97,3.482v7.476a1.268,1.268,0,0,0,2.537,0v-7.476c0-2.848-2.149-5.015-5.9-5.944ZM46.925,93.81c1.812,0,3.971.726,3.971,4.183,0,3.045-1.818,5.617-3.971,5.617s-3.971-2.572-3.971-5.617c0-3.457,2.159-4.183,3.971-4.183Zm41.03,12.037a30.115,30.115,0,0,0-3.9-.694,8.642,8.642,0,0,0,3.4-7.16c0-4.145-2.493-6.72-6.506-6.72s-6.507,2.575-6.507,6.72a8.644,8.644,0,0,0,3.386,7.152,28.015,28.015,0,0,0-3.9.7c-3.795.976-5.885,3.086-5.885,5.941v7.476a1.268,1.268,0,0,0,2.537,0v-7.476c0-2.034,2.164-3.017,3.981-3.485a25.864,25.864,0,0,1,12.8,0c1.483.368,3.97,1.31,3.97,3.482v7.476a1.268,1.268,0,1,0,2.536,0v-7.476c0-2.848-2.149-5.014-5.9-5.944ZM80.94,93.81c1.811,0,3.97.726,3.97,4.183,0,3.045-1.818,5.617-3.97,5.617s-3.971-2.572-3.971-5.617C76.97,94.536,79.129,93.81,80.94,93.81ZM40.291,87.3a1.268,1.268,0,0,0,2.537,0c0-2.848-2.149-5.014-5.9-5.944a30.117,30.117,0,0,0-3.9-.694,8.64,8.64,0,0,0,3.4-7.16c0-4.145-2.494-6.72-6.507-6.72s-6.507,2.575-6.507,6.72A8.643,8.643,0,0,0,26.8,80.649a27.986,27.986,0,0,0-3.9.7c-3.8.976-5.886,3.085-5.886,5.941a1.268,1.268,0,1,0,2.537,0c0-2.034,2.165-3.018,3.981-3.485a25.841,25.841,0,0,1,12.8,0c1.483.368,3.97,1.309,3.97,3.482ZM29.918,69.314c1.812,0,3.971.726,3.971,4.183,0,3.045-1.818,5.617-3.971,5.617s-3.971-2.572-3.971-5.617C25.947,70.04,28.106,69.314,29.918,69.314ZM74.306,87.3a1.268,1.268,0,0,0,2.537,0c0-2.848-2.149-5.014-5.9-5.944a30.133,30.133,0,0,0-3.9-.694,8.64,8.64,0,0,0,3.4-7.16c0-4.145-2.494-6.72-6.507-6.72s-6.507,2.575-6.507,6.72a8.644,8.644,0,0,0,3.386,7.152,27.957,27.957,0,0,0-3.9.7c-3.8.975-5.885,3.085-5.885,5.941a1.268,1.268,0,1,0,2.537,0c0-2.034,2.164-3.018,3.981-3.485a25.841,25.841,0,0,1,12.8,0c1.483.368,3.971,1.31,3.971,3.482ZM63.932,69.314c1.812,0,3.971.726,3.971,4.183,0,3.045-1.818,5.617-3.971,5.617s-3.971-2.572-3.971-5.617C59.962,70.04,62.121,69.314,63.932,69.314Zm-28.65-5.4a1.268,1.268,0,0,0,1.268-1.268c0-2.034,2.165-3.018,3.981-3.485a25.841,25.841,0,0,1,12.8,0c1.483.368,3.97,1.309,3.97,3.482a1.268,1.268,0,1,0,2.537,0c0-2.849-2.149-5.015-5.9-5.944a30.123,30.123,0,0,0-3.9-.694,8.64,8.64,0,0,0,3.4-7.16c0-4.145-2.494-6.72-6.507-6.72s-6.507,2.575-6.507,6.72A8.643,8.643,0,0,0,43.8,56a27.985,27.985,0,0,0-3.9.7c-3.8.976-5.886,3.085-5.886,5.941a1.269,1.269,0,0,0,1.268,1.268ZM46.925,44.667c1.812,0,3.971.726,3.971,4.183,0,3.045-1.818,5.617-3.971,5.617s-3.971-2.572-3.971-5.617C42.954,45.392,45.113,44.667,46.925,44.667ZM87.955,56.7a30.115,30.115,0,0,0-3.9-.694,8.642,8.642,0,0,0,3.4-7.16c0-4.145-2.493-6.72-6.506-6.72s-6.507,2.575-6.507,6.72A8.644,8.644,0,0,0,77.819,56a27.982,27.982,0,0,0-3.9.7c-3.795.976-5.885,3.086-5.885,5.941a1.268,1.268,0,1,0,2.537,0c0-2.034,2.164-3.017,3.981-3.485a25.853,25.853,0,0,1,12.8,0c1.483.368,3.97,1.309,3.97,3.482v7.475a1.268,1.268,0,1,0,2.537,0V62.648C93.85,59.8,91.7,57.633,87.955,56.7ZM80.94,44.667c1.811,0,3.97.726,3.97,4.183,0,3.045-1.818,5.617-3.97,5.617S76.97,51.895,76.97,48.85C76.97,45.392,79.129,44.667,80.94,44.667ZM1.268,71.391a1.268,1.268,0,0,0,1.268-1.268V62.647c0-2.034,2.164-3.017,3.981-3.485a25.853,25.853,0,0,1,12.8,0c1.483.368,3.97,1.31,3.97,3.482a1.268,1.268,0,0,0,2.537,0c0-2.848-2.149-5.014-5.9-5.944a30.1,30.1,0,0,0-3.9-.694,8.641,8.641,0,0,0,3.4-7.16c0-4.145-2.494-6.72-6.507-6.72S6.4,44.705,6.4,48.85A8.645,8.645,0,0,0,9.789,56a28.006,28.006,0,0,0-3.9.7C2.09,57.683,0,59.793,0,62.647v7.475a1.268,1.268,0,0,0,1.268,1.268ZM12.909,44.667c1.812,0,3.971.726,3.971,4.183,0,3.045-1.818,5.617-3.971,5.617S8.94,51.895,8.94,48.85C8.94,45.392,11.1,44.667,12.909,44.667Z" transform="translate(908 1258.87)" fill="#4273ba"/>
    </g>
    <g id="médicos">
      <text id="MÉDICOS-2" data-name="MÉDICOS" transform="translate(693 1432)" fill="#398ab4" font-size="26" font-family="Helvetica-Bold, Helvetica" font-weight="700"><tspan x="-60.671" y="0">MÉDICOS</tspan></text>
      <g id="Doctor-Surgeon-Mask-Avatar-Medical" transform="translate(653 1290)">
        <path id="Caminho_28625" data-name="Caminho 28625" d="M59.865,50.331l-3.753-1.178a6.831,6.831,0,0,0-6.765-6.067H46.608V41.429a15.1,15.1,0,0,0,8.149-12.038h.068a5.478,5.478,0,1,0,0-10.956V8.848A6.848,6.848,0,0,0,47.977,2H31.543A6.848,6.848,0,0,0,24.7,8.848v9.587a5.478,5.478,0,0,0,0,10.956h.068a15.1,15.1,0,0,0,8.149,12.038v1.657H30.173a6.831,6.831,0,0,0-6.765,6.067l-3.753,1.178A12.27,12.27,0,0,0,11,62.1V82.8a1.37,1.37,0,0,0,1.37,1.37H67.151a1.37,1.37,0,0,0,1.37-1.37V62.1a12.27,12.27,0,0,0-8.655-11.764Zm-5.04-29.157a2.739,2.739,0,0,1,0,5.478ZM24.7,26.652a2.739,2.739,0,0,1,0-5.478ZM49.347,45.825a4.092,4.092,0,0,1,3.711,2.383l-6.451-2.027v-.356ZM46.608,33.5a6.848,6.848,0,0,1-13.7,0V30.418a27.545,27.545,0,0,1,6.848-1.027,27.545,27.545,0,0,1,6.848,1.027Zm5.478-5.478a12.3,12.3,0,0,1-3.136,8.19,9.343,9.343,0,0,0,.4-2.712V29.76l2.739-4.793ZM27.434,8.848a4.121,4.121,0,0,1,4.109-4.109H47.977a4.121,4.121,0,0,1,4.109,4.109v7.094a4.109,4.109,0,0,0-1.37-.247H28.8a4.109,4.109,0,0,0-1.37.247Zm0,19.173V24.967l2.739,4.793V33.5a9.343,9.343,0,0,0,.4,2.712,12.3,12.3,0,0,1-3.136-8.19Zm4.766-.247L27.489,19.53a1.35,1.35,0,0,1,1.315-1.1H50.716a1.35,1.35,0,0,1,1.315,1.1L47.32,27.775a29.89,29.89,0,0,0-7.56-1.123,29.89,29.89,0,0,0-7.56,1.123ZM34.693,48.5a1.352,1.352,0,0,0,.959-1.3V42.5a14.722,14.722,0,0,0,3.136.534,11.527,11.527,0,0,0,1.945,0,14.722,14.722,0,0,0,3.136-.534v4.7a1.352,1.352,0,0,0,.959,1.3l4.163,1.3a9.587,9.587,0,0,1-18.461,0Zm-4.519-2.671h2.739v.356l-6.45,2.027a4.092,4.092,0,0,1,3.711-2.383ZM24.7,63.629a2.739,2.739,0,1,1-2.739,2.739A2.739,2.739,0,0,1,24.7,63.629Zm41.086,17.8H57.564V73.216H54.825v8.217H24.7V73.216H21.956v8.217H13.739V62.1a9.537,9.537,0,0,1,6.724-9.148l2.862-.89v9.025a5.478,5.478,0,1,0,2.739,0V51.194l1.863-.575a12.315,12.315,0,0,0,23.666,0l1.863.575v6.957A6.848,6.848,0,0,0,46.608,65v5.478a1.37,1.37,0,0,0,1.37,1.37h2.739V69.107h-1.37V65a4.121,4.121,0,0,1,4.109-4.109h2.739A4.121,4.121,0,0,1,60.3,65v4.109h-1.37v2.739h2.739a1.37,1.37,0,0,0,1.37-1.37V65a6.848,6.848,0,0,0-6.848-6.848V52.056l2.862.89A9.537,9.537,0,0,1,65.781,62.1Z" transform="translate(0)" fill="#398ab4"/>
        <circle id="Elipse_24" data-name="Elipse 24" cx="2.5" cy="2.5" r="2.5" transform="translate(32 20)" fill="#398ab4"/>
        <ellipse id="Elipse_25" data-name="Elipse 25" cx="3" cy="2.5" rx="3" ry="2.5" transform="translate(42 20)" fill="#398ab4"/>
        <path id="Caminho_28626" data-name="Caminho 28626" d="M31.37,11.478h2.739v-1.37h1.37V7.37h-1.37V6H31.37V7.37H30v2.739h1.37Z" transform="translate(7.021 1.478)" fill="#398ab4"/>
      </g>
    </g>
  </g>
</svg>
