<?xml version="1.0" encoding="utf-8"?>
<!-- Generator: Adobe Illustrator 24.3.0, SVG Export Plug-In . SVG Version: 6.00 Build 0)  -->
<svg version="1.1" id="Layer_1" xmlns="http://www.w3.org/2000/svg" xmlns:xlink="http://www.w3.org/1999/xlink" x="0px" y="0px"
	 viewBox="0 0 1080 269.7" style="enable-background:new 0 0 1080 269.7;" xml:space="preserve">
<style type="text/css">
	.st0{fill:url(#Subtração_3_1_);}
	.st1{fill:url(#Subtração_4_1_);}
	.st2{fill:url(#Subtração_5_1_);}
	.st3{fill:url(#Subtração_6_1_);}
	.st4{fill:url(#Caminho_28575_1_);}
	.st5{fill:#26CDA2;}
	.st6{fill:#31A1AD;}
	.st7{fill:#3D7EB6;}
	.st8{fill:#4C56C0;}
	.st9{fill:#5E29CC;}
	.st10{enable-background:new    ;}
	.st11{fill:#5839C8;}
	.st12{fill:#2ABEA6;}
	.st13{fill:#4273BA;}
	.st14{fill:#398AB4;}
</style>
<g id="Grupo_10403" transform="translate(-283 -1230.623)">
	<g id="Grupo_10355" transform="translate(283 1230.73)">
		<g id="Grupo_10354" transform="translate(7.667 0)">
			
				<linearGradient id="Subtração_3_1_" gradientUnits="userSpaceOnUse" x1="-424.1916" y1="672.3327" x2="-424.8886" y2="671.8727" gradientTransform="matrix(268.098 0 0 -126.495 113969.9297 85093.5234)">
				<stop  offset="0" style="stop-color:#5E2ACC;stop-opacity:0"/>
				<stop  offset="1" style="stop-color:#26CDA2"/>
			</linearGradient>
			<path id="Subtração_3" class="st0" d="M264.5,126.9L264.5,126.9c-0.1-2.2-0.3-4.4-0.6-6.6l4-0.4v0v0v0v0v0v0v0v0v0
				c0.2,2.2,0.4,4.4,0.6,6.6L264.5,126.9L264.5,126.9z M4.4,125.1L4.4,125.1l-4-0.3c0.1-1.7,0.3-3.5,0.5-5.2l0,0l0,0v0l0,0v0v0v0v0
				v0v0v0v0v0v0v0v0l0,0v0l0-0.1c0-0.3,0.1-0.6,0.1-1.1l4,0.5C4.7,120.7,4.5,122.9,4.4,125.1L4.4,125.1z M263,113.7L263,113.7
				c-0.4-2.2-0.8-4.4-1.2-6.5l3.9-0.8c0.1,0.6,0.3,1.2,0.4,1.8l0,0.1v0l0,0v0l0,0v0l0,0v0l0,0v0l0,0v0l0,0v0l0,0v0l0,0l0,0v0l0,0v0
				l0,0v0l0,0v0l0,0v0l0,0v0l0,0v0l0,0v0c0.1,0.7,0.3,1.4,0.4,2.1l0,0.1l0,0l0,0l0,0l0,0l0,0l0,0.1l0,0l0,0v0l0,0v0l0,0v0l0,0v0l0,0
				v0l0,0v0l0,0v0v0l0,0v0l0,0v0l0,0v0c0.1,0.4,0.1,0.8,0.2,1.2L263,113.7L263,113.7z M6,111.9L6,111.9l-4-0.7
				c0.3-1.4,0.5-2.9,0.8-4.3l0,0l0,0l0,0l0,0v0l0,0v0l0,0v0l0,0v0l0,0v0l0,0v0l0,0l0,0l0,0l0,0l0,0l0,0v0l0,0v0l0,0v0l0,0v0
				c0.1-0.6,0.2-1.1,0.4-1.7l3.9,0.9C6.8,107.6,6.4,109.7,6,111.9L6,111.9z M260.2,100.7L260.2,100.7c-0.6-2.1-1.2-4.3-1.9-6.4
				l3.8-1.2c0.2,0.7,0.5,1.5,0.7,2.2v0l0,0l0,0l0,0l0,0l0,0l0,0l0,0l0,0l0,0l0,0v0l0,0v0l0,0v0l0,0v0l0,0v0l0,0
				c0.3,0.8,0.5,1.7,0.7,2.5v0l0,0l0,0l0,0v0l0,0v0l0,0l0,0l0,0l0,0l0,0l0,0v0l0,0v0l0,0v0l0,0v0l0,0c0.1,0.3,0.1,0.5,0.2,0.8
				L260.2,100.7L260.2,100.7z M9,99L9,99l-3.9-1.1c0.5-1.9,1.1-3.8,1.7-5.6l0,0l0,0v0l0,0v0l0,0v0l0,0l0,0l0,0v0l0,0l0,0l0,0l0,0
				l0,0l0,0l0,0l0,0l0,0l0,0l0,0l0,0l0,0l0,0l0,0l0,0l0,0l0,0l0,0l0,0c0-0.1,0-0.1,0.1-0.2l3.8,1.3C10.3,94.7,9.6,96.8,9,99L9,99z
				 M256.1,88.1L256.1,88.1c-0.8-2.1-1.6-4.1-2.5-6.1l3.7-1.6c0.9,2.1,1.8,4.2,2.6,6.3L256.1,88.1L256.1,88.1z M13.3,86.4L13.3,86.4
				l-3.7-1.5c0.2-0.4,0.4-0.9,0.5-1.3c0.1-0.2,0.1-0.4,0.2-0.5v0l0,0l0,0l0,0l0,0l0,0l0,0l0,0l0,0l0,0l0,0l0,0l0,0l0,0l0,0l0,0l0,0
				l0,0l0,0l0,0l0,0l0,0l0,0l0,0l0,0l0,0l0,0l0,0l0,0l0,0l0,0l0,0l0,0l0,0l0,0l0,0l0,0l0-0.1l0,0l0,0l0,0l0,0l0,0l0,0l0,0l0,0l0,0
				l0,0l0,0l0,0l0,0l0,0l0,0l0,0l0,0l0,0l0,0l0,0l0,0l0,0l0,0l0,0l0,0l0,0l0,0l0,0l0,0l0,0l0,0l0,0l0,0l0,0l0,0l0,0l0,0l0-0.1l0-0.1
				l0,0l0,0l0,0l0,0l0,0l0,0l0,0l0,0l0,0l0,0l0,0l0,0l0,0l0,0l0,0l0,0l0,0l0,0l0,0l0,0l0,0l0,0l0,0l0,0l0,0l0,0l0,0l0,0l0,0l0,0l0,0
				l0,0l0,0v0c0.3-0.6,0.5-1.1,0.7-1.7l3.7,1.7C15,82.3,14.1,84.4,13.3,86.4L13.3,86.4z M250.7,76L250.7,76c-1-2-2.1-3.9-3.2-5.8
				l3.5-2c0.3,0.6,0.7,1.2,1,1.8l0,0l0,0l0,0l0,0l0,0l0,0l0,0l0,0l0,0l0,0l0,0l0,0l0,0l0.1,0.2l0,0.1l0,0l0,0l0,0v0l0,0l0,0l0,0l0,0
				l0,0l0,0l0,0l0,0l0,0l0,0l0,0l0,0l0,0l0,0l0,0l0,0l0,0l0,0l0,0l0,0l0,0l0,0l0,0l0,0l0,0l0,0l0,0l0,0l0,0l0,0l0,0l0,0l0,0l0,0l0,0
				l0,0l0,0l0,0l0,0l0,0l0,0l0,0l0,0l0,0l0,0l0,0l0,0l0,0l0,0l0,0l0,0l0,0l0,0l0,0l0,0l0,0l0,0l0,0l0,0l0,0l0,0l0,0l0,0l0,0l0,0
				l0.1,0.1l0,0l0,0l0,0l0,0l0,0l0,0l0,0l0,0l0,0l0,0l0,0l0,0l0,0l0,0l0,0l0,0l0,0l0,0l0,0l0,0l0,0l0,0l0,0l0,0l0,0l0,0l0,0l0,0l0,0
				l0,0l0,0l0,0l0,0v0l0,0l0,0v0l0,0l0,0l0,0v0l0,0l0,0l0,0l0,0l0,0l0,0l0,0l0,0l0,0l0,0l0,0l0,0l0,0l0,0l0,0v0l0,0v0l0,0v0l0,0l0,0
				l0.1,0.1l0.1,0.3L250.7,76L250.7,76z M18.9,74.3L18.9,74.3l-3.6-1.9c0.3-0.7,0.7-1.3,1.1-2v0l0,0l0,0l0,0l0,0l0,0l0,0l0,0l0,0
				l0,0l0,0l0,0l0,0l0,0l0,0l0,0l0,0l0,0l0,0l0,0l0,0l0,0c0.6-1.2,1.3-2.4,2-3.5l3.5,2.1C21,70.4,19.9,72.4,18.9,74.3L18.9,74.3z
				 M244.1,64.4L244.1,64.4c-1.2-1.9-2.5-3.7-3.7-5.5l3.3-2.3c1.3,1.8,2.6,3.8,3.8,5.7L244.1,64.4L244.1,64.4z M25.6,62.9L25.6,62.9
				l-3.4-2.2c0.2-0.3,0.4-0.6,0.5-0.8l0,0l0,0l0,0l0,0l0,0l0,0l0,0l0,0l0,0l0,0l0,0l0,0l0,0l0,0l0,0l0,0l0,0l0,0l0,0l0,0l0,0l0,0
				l0,0l0.1-0.1l0-0.1l0,0v0l0,0l0,0l0,0l0,0l0,0l0,0l0,0v0l0,0c0.8-1.2,1.6-2.3,2.5-3.5l0,0l0,0l0,0l0,0l0,0l0,0l0,0l0,0l0,0l0-0.1
				l0,0l0,0l0,0l0,0l0,0l0,0l0,0l0,0l3.2,2.4C28.1,59.2,26.8,61.1,25.6,62.9L25.6,62.9z M236.4,53.6L236.4,53.6
				c-1.4-1.7-2.8-3.4-4.3-5.1l3-2.7c1.5,1.7,3,3.5,4.4,5.2L236.4,53.6z M33.5,52.2L33.5,52.2l-3.1-2.6c1.4-1.8,2.9-3.5,4.5-5.2
				l3,2.7C36.4,48.8,34.9,50.5,33.5,52.2L33.5,52.2z M227.6,43.7L227.6,43.7c-1.5-1.6-3.1-3.1-4.8-4.6l2.7-3
				c0.3,0.3,0.6,0.6,0.9,0.9l0,0l0,0l0,0l0,0l0,0l0,0l0,0l0,0l0,0l0,0l0,0l0,0l0,0l0.1,0.1l0,0l0,0l0,0l0,0l0,0l0,0l0,0l0,0l0,0l0,0
				l0,0l0,0l0,0l0,0l0,0c0.6,0.5,1.1,1.1,1.7,1.6l0,0l0,0l0,0l0,0l0,0l0,0l0,0l0,0l0,0l0,0l0,0l0,0l0,0l0,0l0,0l0,0l0,0l0,0l0,0l0,0
				l0,0l0.1,0.1l0,0l0,0l0,0l0.1,0.1l0,0l0,0l0,0c0.3,0.3,0.7,0.7,1,1L227.6,43.7L227.6,43.7z M42.4,42.4L42.4,42.4l-2.8-2.9l0,0
				l0,0l0,0l0,0l0,0l0,0l0,0l0,0l0,0l0,0l0,0l0,0l0,0l0,0l0,0l0,0l0,0l0.1-0.1l0,0l0,0l0,0l0,0l0,0l0,0l0,0l0,0l0,0l0,0l0,0l0,0
				c1.4-1.3,2.7-2.6,4.1-3.9l0,0l0,0l0,0l0,0l0,0l0,0l0,0l0,0l0,0l2.7,3C45.6,39.3,44,40.9,42.4,42.4L42.4,42.4z M217.8,34.7
				L217.8,34.7c-1.7-1.4-3.4-2.8-5.2-4.1l2.4-3.2l0.1,0l0,0l0,0l0,0l0,0l0,0l0,0l0,0l0,0l0,0l0,0l0,0c1.7,1.3,3.4,2.7,5.1,4
				L217.8,34.7L217.8,34.7z M52.3,33.5L52.3,33.5l-2.5-3.1c1.8-1.4,3.6-2.8,5.4-4.2l2.4,3.3C55.8,30.7,54,32.1,52.3,33.5L52.3,33.5z
				 M207.2,26.7L207.2,26.7c-1.8-1.2-3.7-2.4-5.6-3.6l2.1-3.4c0.3,0.2,0.5,0.3,0.8,0.5h0l0,0l0,0l0,0l0,0l0,0l0,0l0,0l0,0l0,0l0,0
				l0,0l0,0l0,0l0,0l0,0l0,0l0,0c0.7,0.4,1.3,0.8,2,1.3l0,0l0,0h0l0,0l0,0l0,0l0,0l0,0l0,0l0,0l0,0l0,0l0,0l0,0l0,0l0,0l0,0l0,0l0,0
				l0,0c0.7,0.5,1.5,1,2.2,1.5L207.2,26.7L207.2,26.7z M63,25.7L63,25.7l-2.2-3.4c1.2-0.8,2.5-1.6,3.8-2.4l0,0l0,0l0,0l0,0l0,0l0,0
				h0l0,0l0,0l0,0l0,0l0,0h0l0,0l0,0l0.3-0.2h0l0,0l0,0h0l0,0h0l0,0l0,0l0,0l0,0l0,0l0,0l0,0h0l0,0l0,0c0.4-0.2,0.7-0.4,1-0.6l2,3.5
				C66.8,23.3,64.9,24.5,63,25.7L63,25.7z M195.9,19.8L195.9,19.8c-1.9-1-3.9-2-5.9-3l1.7-3.6c2,1,4.1,2,6.1,3.1l0,0l0,0L195.9,19.8
				L195.9,19.8z M74.5,19L74.5,19l-1.9-3.6c1.1-0.6,2.2-1.1,3.3-1.6l0,0l0,0h0l0,0h0l0,0h0l0,0l0,0l0,0l0,0l0,0l0,0l0,0l0,0l0,0h0
				l0,0l0,0l0,0l0,0c0.8-0.4,1.6-0.8,2.4-1.1l1.7,3.7C78.5,17,76.5,18,74.5,19L74.5,19z M183.8,14.2L183.8,14.2
				c-2-0.8-4.1-1.6-6.2-2.4L179,8l0.1,0l0.3,0.1l0.1,0l0,0l0,0l0,0l0,0l0,0l0,0l0,0l0,0h0l0,0l0,0l0,0h0l0.5,0.2l0,0l0,0h0l0,0h0
				l0,0h0l0,0h0l0,0l0,0l0,0l0,0l0,0l0,0l0,0l0,0l0,0l0,0l0,0l0,0l0,0l0,0l0,0l0,0l0,0l0,0l0,0l0,0l0,0l0,0l0,0h0l0,0h0l0.1,0h0
				l0.1,0l0,0l0,0h0l0,0l0,0l0,0l0,0l0,0l0,0l0,0l0,0l0,0l0,0l0,0l0,0l0,0l0,0l0,0l0,0l0,0l0,0l0,0l0,0l0,0l0,0l0,0l0,0l0,0l0,0l0,0
				l0,0l0,0l0,0l0,0l0,0l0,0l0,0h0l0,0l0,0l0,0h0l0.1,0.1h0l0.1,0.1l0,0l0,0h0l0,0h0l0,0h0l0,0l0,0l0,0h0l0,0l0,0l0,0l0,0l0,0l0,0
				l0,0h0l0,0l0,0l0,0c0.8,0.3,1.5,0.6,2.3,0.9L183.8,14.2L183.8,14.2z M86.6,13.5L86.6,13.5l-1.5-3.7c1.7-0.7,3.5-1.3,5.2-1.9l0,0
				l0,0h0l0,0h0l0,0h0l0,0l0,0l0,0h0l0,0l0,0l0,0h0l0.1,0l0,0l0,0c0.3-0.1,0.5-0.2,0.7-0.2l1.3,3.8C90.7,11.9,88.6,12.7,86.6,13.5
				L86.6,13.5z M171.3,9.7L171.3,9.7c-2.1-0.6-4.3-1.2-6.4-1.7l0.9-3.9l0.1,0l0.1,0h0l0,0h0l0,0h0l0,0h0l0,0h0l0,0h0l0,0h0l0,0h0
				l0,0h0l0,0h0l0,0h0l0,0h0l0,0h0l0,0l0,0l0,0h0l0,0h0l0,0h0l0,0h0l0.1,0l0,0h0l0,0h0l0,0l0,0l0,0l0,0l0,0l0,0l0,0l0,0l0,0l0,0l0,0
				l0,0l0,0l0,0l0,0l0,0l0,0l0,0l0,0l0,0l0,0l0,0l0,0l0,0l0,0l0,0l0,0l0,0l0,0l0,0l0,0l0,0l0,0l0,0l0,0h0l0,0h0l0,0h0l0,0h0l0,0h0
				l0,0h0l0,0h0l0,0h0l0,0l0,0c1.3,0.3,2.7,0.7,4,1.1l0,0l0,0l0,0L171.3,9.7L171.3,9.7z M99.2,9.2L99.2,9.2l-1.1-3.9
				c1.8-0.5,3.6-1,5.4-1.4l0,0l0.1,0l0,0l0,0h0l0,0h0l0,0l0,0l0,0l0,0l0,0l0,0h0l0,0h0l0,0h0l0,0h0l0,0h0l0.6-0.1l0.1,0l0.9,3.9
				C103.5,8.1,101.3,8.7,99.2,9.2L99.2,9.2z M158.4,6.6L158.4,6.6c-2.2-0.4-4.4-0.8-6.6-1l0.5-4c1.8,0.2,3.7,0.5,5.5,0.9h0l0,0l0,0
				h0c0.4,0.1,0.8,0.1,1.2,0.2L158.4,6.6L158.4,6.6z M112.1,6.3L112.1,6.3l-0.7-4l0.1,0l0.1,0l0,0l0,0h0l0,0h0l0,0h0h0l0,0h0
				c1.1-0.2,2.3-0.4,3.4-0.5l0,0h0l0,0h0l0,0h0l0,0h0h0h0h0h0h0h0h0l0,0c0.8-0.1,1.6-0.2,2.4-0.3l0.5,4C116.5,5.7,114.3,6,112.1,6.3
				L112.1,6.3z M145.2,4.9L145.2,4.9c-2.2-0.2-4.4-0.3-6.6-0.4l0.1-4c0.7,0,1.4,0.1,2.1,0.1h0.1h0.1h0h0h0h0h0h0h0h0h0h0h0h0h0h0
				h0.1h0h0.2h0h0h0h0h0h0h0h0h0h0h0h0h0h0h0.1l0,0h0.1c1.2,0.1,2.4,0.1,3.5,0.2L145.2,4.9L145.2,4.9z M125.3,4.7L125.3,4.7l-0.3-4
				l0.1,0l0.2,0h0h0h0.1h0l0.1,0h0h0h0h0h0h0h0h0h0h0h0h0h0h0h0h0h0h0h0h0h0h0h0h0h0h0h0h0h0h0h0h0h0h0h0h0h0h0h0h0h0h0h0h0h0h0h0h0
				h0h0h0h0h0h0l0,0h0h0h0l0,0h0h0l0.3,0l0.1,0c1.4-0.2,2.9-0.2,4.3-0.3l0.1,4C129.8,4.5,127.5,4.6,125.3,4.7L125.3,4.7z"/>
			
				<linearGradient id="Subtração_4_1_" gradientUnits="userSpaceOnUse" x1="-425.1742" y1="672.8279" x2="-423.8892" y2="672.1089" gradientTransform="matrix(268.725 0 0 -134.567 114502.1797 90683.4688)">
				<stop  offset="0" style="stop-color:#1DD1A1"/>
				<stop  offset="1" style="stop-color:#349AB0"/>
			</linearGradient>
			<path id="Subtração_4" class="st1" d="M401.9,269.1L401.9,269.1l-0.1-4c2.2,0,4.4-0.1,6.6-0.3l0.3,4l-0.1,0l-0.1,0h0h-0.1h0h0
				h-0.1h0l-0.1,0h0h0h0h0h0h0h0h0h0h0h0h0h0h0h0h0h0h0h0h0h0h0h0h0h0h0h0h-0.1h0h-0.1h0h0h0h0h0h0h0h0h0h0h0h0h0h0h0h0h0h0h0h0h0h0
				h0l0,0h0h0h0l0,0h0h0l-0.4,0C404.8,269.1,403.4,269.1,401.9,269.1z M395.1,269.1L395.1,269.1c-0.7,0-1.4-0.1-2.1-0.1h-0.1h-0.1h0
				h0h0h0h0h0h0h0h0h0h-0.1h0h0h0h-0.1h0h0h0h-0.1h0h0h0h0h0h0h0h0h0h0h0l0,0h-0.1l0,0h-0.1c-1.2-0.1-2.4-0.1-3.5-0.2l0.3-4
				c2.2,0.2,4.4,0.3,6.6,0.4L395.1,269.1L395.1,269.1z M415.6,268.2L415.6,268.2l-0.5-4c2.2-0.3,4.4-0.6,6.6-1l0.7,4l-0.1,0h0h0
				l-0.1,0l0,0l0,0h0l0,0h0l0,0h0h0l0,0h0c-1.1,0.2-2.3,0.4-3.4,0.5l0,0h0l0,0h0l0,0h0l0,0h0h0h0h0h0h0l0,0h0l0,0l0,0
				C417.2,268,416.4,268.1,415.6,268.2L415.6,268.2z M381.4,268L381.4,268c-1.8-0.2-3.7-0.5-5.5-0.9h0l0,0l0,0h0
				c-0.4-0.1-0.8-0.1-1.2-0.2l0.7-4c2.2,0.4,4.4,0.8,6.6,1.1L381.4,268L381.4,268z M429.1,265.9L429.1,265.9l-0.9-3.9
				c2.2-0.5,4.3-1,6.4-1.6l1.1,3.9c-1.8,0.5-3.6,1-5.4,1.4l-0.1,0l0,0l0,0h0l0,0h0l0,0l0,0l0,0l0,0l0,0l0,0h0l0,0h0l0,0h0l0,0h0l0,0
				h0L429.1,265.9L429.1,265.9z M368,265.4L368,265.4l-0.1,0l0,0l0,0l0,0h0l0,0h0l0,0h0l0,0h0l0,0h0l0,0h0l0,0h0l0,0h0l0,0h0l0,0h0
				l0,0h0l0,0h0l0,0l0,0l0,0l0,0l0,0h0l0,0h0l0,0h0l-0.1,0h0l0,0h0l0,0h0l0,0l0,0l0,0l0,0l0,0l0,0l0,0l0,0l0,0l0,0l0,0l0,0l0,0l0,0
				l0,0l0,0l0,0l0,0l0,0l0,0l0,0l0,0l0,0l0,0l0,0l0,0l0,0l0,0l0,0l0,0l0,0l0,0l0,0l0,0l0,0h0l0,0h0l0,0h0l0,0h0l0,0h0l0,0h0l0,0h0
				l0,0h0l0,0l0,0c-1.3-0.3-2.7-0.7-4-1.1l0,0l0,0l0,0l1.1-3.9c2.1,0.6,4.3,1.2,6.4,1.7L368,265.4L368,265.4z M442.3,262.2
				L442.3,262.2l-1.3-3.8c2.1-0.7,4.2-1.5,6.2-2.3l1.5,3.7c-1.7,0.7-3.5,1.3-5.2,1.9l0,0l0,0h0l0,0h0l0,0h0l0,0h0l0,0h0l0,0l0,0l0,0
				h0l-0.1,0l0,0l0,0h0L442.3,262.2L442.3,262.2z M354.9,261.6L354.9,261.6l-0.2-0.1l-0.1,0l-0.1,0l-0.1,0l0,0l0,0l0,0l0,0l0,0l0,0
				l0,0l0,0h0l0,0l0,0l0,0h0l-0.5-0.2l0,0l0,0h0l0,0h0l0,0l0,0l0,0h0l0,0l0,0l0,0l0,0l0,0l0,0l0,0l0,0l0,0l0,0l0,0l0,0l0,0l0,0l0,0
				l0,0l0,0l0,0l0,0l0,0l0,0l0,0l0,0h0l0,0h0l-0.1,0h0l-0.1,0l0,0l0,0h0l0,0l0,0l0,0l0,0l0,0l0,0l0,0l0,0l0,0l0,0l0,0l0,0l0,0l0,0
				l0,0l0,0l0,0l0-0.1l0,0l0,0l0,0l0,0l0,0l0,0l0,0l0,0l0,0l0,0l0,0l0,0l0,0l0,0l0,0l0,0h0l0,0l0,0l0,0h0l-0.1,0l-0.2-0.1l0,0l0,0h0
				l0,0h0l0,0h0l0,0l0,0l0,0h0l0,0l0,0l0,0l0,0l0,0l0,0l0,0h0l0,0l0,0l0,0c-0.8-0.3-1.5-0.6-2.3-0.9l1.5-3.7c2,0.8,4.1,1.6,6.2,2.4
				L354.9,261.6L354.9,261.6z M455,257.2L455,257.2l-1.7-3.7c2-0.9,4-1.9,6-2.9l1.9,3.6c-1.1,0.6-2.2,1.1-3.3,1.6l0,0l0,0h0l0,0l0,0
				l0,0h0l0,0l0,0l0,0l0,0l0,0l0,0l0,0h0l0,0h0l0,0l0,0l0,0l0,0C456.7,256.4,455.8,256.8,455,257.2L455,257.2z M342.2,256.4
				L342.2,256.4c-2-1-4.1-2-6.1-3.1l0,0l0,0l1.9-3.6c1.9,1,3.9,2,5.9,3L342.2,256.4L342.2,256.4z M467.2,250.9L467.2,250.9l-2-3.5
				c1.9-1.1,3.8-2.3,5.6-3.5l2.2,3.4c-1.2,0.8-2.5,1.6-3.8,2.4l0,0l0,0l0,0l0,0l0,0h0l0,0l0,0l0,0l0,0l0,0h0l0,0l0,0l-0.3,0.2l0,0
				l0,0l0,0h0l0,0h0l0,0l0,0l0,0l0,0l0,0l0,0l0,0h0l0,0l0,0C467.8,250.5,467.5,250.7,467.2,250.9L467.2,250.9z M330.1,249.9
				L330.1,249.9c-0.3-0.2-0.5-0.3-0.8-0.5h0l0,0l0,0l0,0l0,0l0,0l0,0l0,0l0,0l0,0l0,0l0,0l0,0l0,0l0,0l0,0l0,0l0,0
				c-0.7-0.4-1.3-0.8-2-1.3l0,0l0,0h0l0,0l0,0l0,0l0,0l0,0l0,0l0,0l0,0l0,0l0,0l0,0l0,0l0,0l0,0l0,0l0,0l0,0c-0.7-0.5-1.5-1-2.2-1.5
				l2.3-3.3c1.8,1.2,3.7,2.4,5.6,3.6L330.1,249.9L330.1,249.9z M478.6,243.4L478.6,243.4l-2.4-3.3c1.8-1.3,3.6-2.7,5.3-4.1l2.5,3.1
				C482.3,240.6,480.5,242,478.6,243.4L478.6,243.4z M318.8,242.2L318.8,242.2L318.8,242.2l-0.1-0.1l0,0l0,0l0,0l0,0l0,0l0,0l0,0
				l0,0l0,0l0,0c-1.7-1.3-3.4-2.6-5.1-4l2.6-3.1c1.7,1.4,3.4,2.8,5.2,4.1L318.8,242.2L318.8,242.2z M489.3,234.7L489.3,234.7l-2.7-3
				c1.6-1.5,3.3-3,4.8-4.6l2.8,2.9l0,0l0,0l0,0l0,0l0,0l0,0l0,0l0,0l0,0l0,0l0,0l0,0l0,0l0,0l0,0l0,0l0,0l-0.1,0.1l0,0l-0.1,0.1l0,0
				l0,0l0,0l0,0l0,0l0,0l0,0l0,0l0,0l0,0l0,0c-1.3,1.3-2.7,2.6-4.1,3.9l0,0l0,0l0,0L489.3,234.7L489.3,234.7L489.3,234.7
				L489.3,234.7L489.3,234.7L489.3,234.7L489.3,234.7z M308.3,233.5L308.3,233.5c-0.3-0.3-0.6-0.6-0.9-0.9l0,0l0,0l0,0l0,0l0,0l0,0
				l0,0l0,0l0,0l0,0l0,0l0,0l0,0l-0.1-0.1l0,0l0,0l0,0l0,0l0,0l0,0l0,0l0,0l0,0l0,0l0,0l0,0l0,0l0,0l0,0c-0.6-0.6-1.2-1.1-1.7-1.6
				l0,0l0,0l0,0l0,0l0,0l0,0l0,0l0,0l0,0l0,0l0,0l0,0l0,0l0,0l0,0l0,0l0,0l0,0l0,0l0,0l0,0l-0.1-0.1l0,0l0,0l0,0l0,0l-0.1-0.1l0,0
				l0,0l0,0c-0.3-0.3-0.6-0.7-1-1l2.9-2.8c1.5,1.6,3.1,3.1,4.8,4.6L308.3,233.5z M499,225.1L499,225.1l-3-2.7c1.5-1.6,2.9-3.3,4.3-5
				l3.1,2.6C502,221.6,500.5,223.4,499,225.1L499,225.1z M298.7,223.7L298.7,223.7c-1.5-1.7-3-3.5-4.4-5.2l3.2-2.5
				c1.4,1.7,2.8,3.4,4.3,5.1L298.7,223.7L298.7,223.7z M507.7,214.5L507.7,214.5l-3.2-2.4c1.3-1.8,2.6-3.6,3.8-5.4l3.4,2.2
				c-0.2,0.3-0.4,0.6-0.5,0.8l0,0l0,0l0,0l0,0l0,0l0,0l0,0l0,0l0,0l0,0l0,0l0,0l0,0l0,0l0,0l0,0l0,0l0,0l0,0l0,0l0,0l0,0l0,0
				l-0.1,0.1l-0.1,0.1l0,0v0l0,0l0,0l0,0v0l0,0l0,0l0,0v0l0,0c-0.8,1.2-1.6,2.4-2.5,3.5l0,0l0,0l0,0l0,0l0,0l0,0l0,0l0,0l0,0l0,0
				l0,0l0,0L507.7,214.5L507.7,214.5L507.7,214.5L507.7,214.5L507.7,214.5L507.7,214.5z M290.2,213L290.2,213
				c-1.3-1.8-2.6-3.8-3.8-5.7l3.4-2.2c1.2,1.8,2.4,3.7,3.7,5.5L290.2,213L290.2,213z M515.2,203.1L515.2,203.1l-3.5-2.1
				c1.1-1.9,2.2-3.8,3.2-5.8l3.6,1.9c-0.3,0.7-0.7,1.3-1.1,2v0l0,0l0,0l0,0l0,0l0,0l0,0l0,0l0,0l0,0l0,0l0,0l0,0l0,0l0,0l0,0l0,0
				l0,0l0,0l0,0l0,0v0C516.6,200.7,515.9,201.9,515.2,203.1L515.2,203.1z M282.8,201.4L282.8,201.4c-0.3-0.6-0.7-1.2-1-1.8l0,0l0,0
				l0,0l0,0l0,0l0,0l0,0l0,0l0,0l0,0l0,0l0,0l0,0l-0.2-0.3l0,0l0,0l0,0v0l0,0v0l0,0l0,0l0,0l0,0l0,0l0,0l0,0l0,0l0,0l0,0l0,0l0,0
				l0,0l0,0l0,0l0,0l0,0l0,0l0,0l0,0l0,0l0,0l0,0l0,0l0,0l0,0l0,0l0,0l0,0l0,0l0,0l0,0l0,0l0,0l0,0l0,0l0,0l0,0l0,0l0,0l0,0l0,0l0,0
				l0,0l0,0l0,0l0,0l0,0l0,0l0,0l0,0l0,0l0,0l0,0l0,0l0,0l0,0l0,0l0,0l0,0l0,0l0,0l0,0l-0.1-0.1l0,0l0,0l0,0l0,0l0,0l0,0l0,0l0,0
				l0,0l0,0l0,0l0,0l0,0l0,0l0,0l0,0l0,0l0,0l0,0l0,0l0,0l0,0l0,0l0,0l0,0l0,0l0,0l0,0l0,0l0,0l0,0l0,0l0,0v0l0,0l0,0v0l0,0l0,0l0,0
				v0l0,0l0,0l0,0l0,0l0,0l0,0l0,0l0,0l0,0l0,0l0,0l0,0l0,0l0,0l0,0v0l0,0v0l0,0l0,0l0,0l0,0c-0.1-0.1-0.1-0.3-0.2-0.4l3.6-1.8
				c1,2,2.1,3.9,3.2,5.8L282.8,201.4L282.8,201.4z M521.6,190.9L521.6,190.9l-3.7-1.7c0.9-2,1.8-4.1,2.6-6.1l3.7,1.5
				c-0.2,0.5-0.4,0.9-0.5,1.3l0,0.1l-0.2,0.4v0l0,0l0,0l0,0l0,0l0,0l0,0l0,0l0,0l0,0l0,0l0,0l0,0l0,0l0,0l0,0l0,0l0,0l0,0l0,0l0,0
				l0,0l0,0l0,0l0,0l0,0l0,0l0,0l0,0l0,0l0,0l0,0l0,0l0,0l0,0l0,0l0,0l0,0.1l0,0l0,0l0,0l0,0l0,0l0,0l0,0l0,0l0,0l0,0l0,0l0,0l0,0
				l0,0l0,0l0,0l0,0l0,0l0,0l0,0l0,0l0,0l0,0l0,0l0,0l0,0l0,0l0,0l0,0l0,0l0,0l0,0l0,0l0,0l0,0l0,0l0,0l0,0.1l0,0.1v0l0,0l0,0l0,0
				l0,0l0,0l0,0l0,0l0,0l0,0l0,0l0,0l0,0l0,0l0,0l0,0l0,0l0,0l0,0l0,0l0,0l0,0l0,0l0,0l0,0l0,0l0,0l0,0l0,0l0,0l0,0l0,0l0,0v0
				C522.1,189.8,521.8,190.4,521.6,190.9L521.6,190.9z M276.6,189.2L276.6,189.2c-0.9-2.1-1.8-4.2-2.6-6.3l3.8-1.4
				c0.8,2,1.6,4.1,2.5,6.1L276.6,189.2L276.6,189.2z M526.6,178.2L526.6,178.2l-3.8-1.3c0.7-2.1,1.4-4.2,2-6.3l3.9,1.1
				c-0.5,1.9-1.1,3.8-1.7,5.6l0,0l0,0v0l0,0v0l0,0v0l0,0v0l0,0v0l0,0l0,0l0,0l0,0l0,0l0,0l0,0l0,0l0,0l0,0l0,0l0,0l0,0l0,0l0,0l0,0
				l0,0l0,0l0,0l0,0v0v0L526.6,178.2L526.6,178.2z M271.7,176.4L271.7,176.4c-0.2-0.7-0.5-1.5-0.7-2.2v0l0,0l0,0l0,0l0,0l0,0l0,0
				l0,0l0,0v0l0,0v0l0,0v0l0,0v0l0,0v0l0,0v0l0,0c-0.3-0.8-0.5-1.7-0.7-2.5l0,0l0,0v0l0,0v0l0,0v0l0,0l0,0l0,0l0,0l0,0l0,0l0,0l0,0
				v0l0,0v0l0,0v0l0,0c-0.1-0.3-0.2-0.6-0.2-0.8l3.9-1c0.6,2.1,1.2,4.3,1.9,6.4L271.7,176.4L271.7,176.4z M530.4,165.1L530.4,165.1
				l-3.9-0.9c0.5-2.1,0.9-4.3,1.3-6.5l4,0.7c-0.3,1.4-0.5,2.9-0.8,4.3l0,0l0,0l0,0l0,0v0l0,0v0l0,0v0l0,0v0l0,0v0l0,0v0l0,0v0l0,0
				l0,0l0,0l0,0v0l0,0v0l0,0v0l0,0v0C530.7,163.9,530.6,164.5,530.4,165.1L530.4,165.1z M268.1,163.2L268.1,163.2
				c-0.1-0.6-0.3-1.2-0.4-1.8l0-0.1v0l0,0v0l0,0v0l0,0v0l0,0v0l0,0v0l0,0v0l0,0v0l0,0l0,0v0l0,0v0l0,0v0l0,0v0l0,0v0l0,0v0l0,0v0
				l0,0v0c-0.1-0.7-0.3-1.4-0.4-2.1l0-0.1l0,0l0,0l0,0l0-0.1l0-0.1l0,0l0,0v0l0,0v0l0,0v0l0,0v0l0,0v0l0,0v0l0,0v0v0l0,0v0l0,0v0
				l0,0v0c-0.1-0.4-0.1-0.8-0.2-1.2l4-0.6c0.4,2.2,0.8,4.4,1.2,6.5L268.1,163.2L268.1,163.2z M532.8,151.6L532.8,151.6l-4-0.5
				c0.3-2.2,0.5-4.4,0.7-6.6l4,0.3c-0.1,1.8-0.3,3.5-0.5,5.2l0,0l0,0v0l0,0v0v0v0v0v0v0v0v0v0v0v0v0l0,0v0l0,0.1l0,0
				C532.9,150.9,532.9,151.2,532.8,151.6L532.8,151.6z M265.9,149.7L265.9,149.7L265.9,149.7L265.9,149.7L265.9,149.7L265.9,149.7
				v-0.1v0v0l0,0v0c-0.2-2.2-0.4-4.4-0.6-6.6l4-0.2c0.1,2.2,0.3,4.4,0.6,6.6L265.9,149.7L265.9,149.7z M533.8,137.9L533.8,137.9
				l-4-0.1c0-1,0-2,0-3c0-0.1,0-0.1,0-0.2h4v1.2c0,0,0,0.1,0,0.1v0.3C533.8,136.8,533.8,137.4,533.8,137.9L533.8,137.9z M265.1,136
				L265.1,136c0-0.2,0-0.4,0-0.6v-0.1c0,0,0-0.1,0-0.1v-0.7h4c0,0.1,0,0.1,0,0.2c0,0.4,0,0.8,0,1.2L265.1,136z"/>
			
				<linearGradient id="Subtração_5_1_" gradientUnits="userSpaceOnUse" x1="-424.1811" y1="672.4265" x2="-425.1431" y2="672.2445" gradientTransform="matrix(268.73 0 0 -134.569 114769.4453 90550.6484)">
				<stop  offset="0" style="stop-color:#48DBFB"/>
				<stop  offset="1" style="stop-color:#30A4AD"/>
			</linearGradient>
			<path id="Subtração_5" class="st2" d="M798.9,135h-1.1l1.1-1.5c0,0.1,0,0.2,0,0.3c0,0.1,0,0.2,0,0.4l0,0c0,0.1,0,0.1,0,0.1
				L798.9,135L798.9,135z M534.2,135h-4v-1.2c0,0,0-0.1,0-0.1v-0.3c0-0.6,0-1.2,0-1.8l4,0.1c0,1,0,2,0,3
				C534.2,134.8,534.2,134.9,534.2,135L534.2,135z M794.7,126.9L794.7,126.9c-0.1-2.2-0.3-4.4-0.6-6.6l4-0.4v0v0v0v0v0v0v0v0v0
				c0.2,2.2,0.4,4.4,0.6,6.6L794.7,126.9L794.7,126.9z M534.6,125.1L534.6,125.1l-4-0.3c0.1-1.7,0.3-3.5,0.5-5.2l0,0l0,0v0v0v0v0v0
				v0v0v0v0v0v0v0l0,0v0l0,0v0l0,0c0-0.3,0.1-0.7,0.1-1.1l4,0.5C535,120.6,534.8,122.9,534.6,125.1L534.6,125.1z M793.2,113.7
				L793.2,113.7c-0.4-2.2-0.8-4.4-1.2-6.5l3.9-0.8c0.1,0.6,0.3,1.2,0.4,1.8l0,0.1v0l0,0v0l0,0v0l0,0v0l0,0v0l0,0v0l0,0v0l0,0v0l0,0
				l0,0v0l0,0v0l0,0v0l0,0v0l0,0v0l0,0v0l0,0v0l0,0v0c0.1,0.7,0.3,1.4,0.4,2.1l0,0.1l0,0l0,0l0,0l0,0l0,0l0,0.1l0,0l0,0v0l0,0v0l0,0
				v0l0,0v0l0,0v0l0,0v0l0,0v0v0l0,0v0l0,0v0l0,0v0c0.1,0.4,0.1,0.8,0.2,1.2L793.2,113.7L793.2,113.7z M536.2,111.9L536.2,111.9
				l-4-0.7c0.3-1.5,0.5-2.9,0.8-4.3l0,0l0,0l0,0l0,0v0l0,0v0l0,0v0l0,0v0l0,0v0l0,0v0l0,0l0,0l0,0v0l0,0l0,0l0,0l0,0v0l0,0v0l0,0v0
				c0.1-0.5,0.2-1.1,0.4-1.7l3.9,0.9C537.1,107.5,536.6,109.7,536.2,111.9L536.2,111.9z M790.4,100.7L790.4,100.7
				c-0.6-2.1-1.2-4.3-1.9-6.4l3.8-1.2c0.2,0.8,0.5,1.5,0.7,2.2v0l0,0l0,0l0,0l0,0l0,0l0,0l0,0l0,0l0,0l0,0l0,0l0,0v0l0,0v0l0,0v0
				l0,0v0l0,0c0.3,0.9,0.5,1.7,0.7,2.5v0l0,0l0,0l0,0v0l0,0v0l0,0l0,0l0,0l0,0l0,0l0,0l0,0l0,0v0l0,0v0l0,0v0l0,0
				c0.1,0.2,0.1,0.5,0.2,0.8L790.4,100.7L790.4,100.7z M539.2,98.9L539.2,98.9l-3.9-1.1c0.5-1.9,1.1-3.8,1.7-5.6l0,0l0,0v0l0,0v0
				l0,0v0l0,0l0,0l0,0v0l0,0l0,0l0,0l0,0l0,0l0,0l0,0l0,0l0,0l0,0l0,0l0,0l0,0l0,0l0,0l0,0l0,0l0,0l0,0l0,0l0.1-0.2l3.8,1.3
				C540.5,94.7,539.8,96.8,539.2,98.9L539.2,98.9z M786.3,88.1L786.3,88.1c-0.8-2.1-1.6-4.1-2.5-6.1l3.7-1.6
				c0.9,2.1,1.8,4.2,2.6,6.3L786.3,88.1z M543.5,86.4L543.5,86.4l-3.7-1.5c0.2-0.4,0.3-0.9,0.5-1.3c0.1-0.1,0.1-0.3,0.2-0.4l0,0
				l0-0.1v0l0,0l0,0l0,0l0,0l0,0l0,0l0,0l0,0l0,0l0,0l0,0l0,0l0,0l0,0l0,0l0,0l0,0l0,0l0,0l0,0l0,0l0,0l0,0l0,0l0,0l0,0l0,0l0,0l0,0
				l0,0l0,0l0,0l0,0l0,0l0,0l0,0l0-0.1l0,0l0,0l0,0l0,0l0,0l0,0l0,0l0,0l0,0l0,0l0,0l0,0l0,0l0,0l0,0l0,0l0,0l0,0l0,0l0,0l0,0l0,0
				l0,0l0,0l0,0l0,0l0,0l0,0l0,0l0,0l0,0l0,0l0,0l0,0l0,0l0,0l0,0l0-0.1l0,0l0-0.1l0,0l0,0l0,0l0,0l0,0l0,0l0,0l0,0l0,0l0,0l0,0l0,0
				l0,0l0,0l0,0l0,0l0,0l0,0l0,0l0,0l0,0l0,0l0,0l0,0l0,0l0,0l0,0l0,0l0,0l0,0l0,0l0,0l0,0v0c0.3-0.6,0.5-1.1,0.7-1.7l3.7,1.7
				C545.2,82.3,544.3,84.3,543.5,86.4L543.5,86.4z M780.9,75.9L780.9,75.9c-1-2-2.1-3.9-3.2-5.8l3.5-2c0.3,0.6,0.7,1.2,1,1.8l0,0
				l0,0l0,0l0,0l0,0l0,0l0,0l0,0l0,0l0,0l0,0l0,0l0,0l0.1,0.3l0,0l0,0l0,0l0,0v0l0,0v0l0,0l0,0l0,0l0,0l0,0l0,0l0,0l0,0l0,0l0,0l0,0
				l0,0l0,0l0,0l0,0l0,0l0,0l0,0l0,0l0,0l0,0l0,0l0,0l0,0l0,0l0,0l0,0l0,0l0,0l0,0l0,0l0,0l0,0l0,0l0,0l0,0l0,0l0,0l0,0l0,0l0,0l0,0
				l0,0l0,0l0,0l0,0l0,0l0,0l0,0l0,0l0,0l0,0l0,0l0,0l0,0l0,0l0,0l0,0l0,0l0,0l0,0l0,0l0,0l0,0.1l0,0l0,0l0,0l0,0l0,0l0,0l0,0l0,0
				l0,0l0,0l0,0l0,0l0,0l0,0l0,0l0,0l0,0l0,0l0,0l0,0l0,0l0,0l0,0l0,0l0,0l0,0l0,0l0,0l0,0l0,0l0,0l0,0l0,0v0l0,0l0,0v0l0,0l0,0l0,0
				v0l0,0l0,0l0,0l0,0l0,0l0,0l0,0l0,0l0,0l0,0l0,0l0,0l0,0l0,0l0,0v0l0,0v0l0,0v0l0,0l0,0l0.1,0.2l0.1,0.2L780.9,75.9L780.9,75.9z
				 M549.1,74.3L549.1,74.3l-3.6-1.9c0.4-0.7,0.7-1.3,1.1-2v0l0,0l0,0l0,0l0,0l0,0l0,0l0,0l0,0l0,0l0,0l0,0l0,0l0,0l0,0l0,0l0,0l0,0
				l0,0l0,0l0,0l0,0c0.6-1.2,1.3-2.4,2-3.5l3.5,2.1C551.2,70.4,550.1,72.4,549.1,74.3L549.1,74.3z M774.3,64.4L774.3,64.4
				c-1.2-1.9-2.4-3.7-3.7-5.5l3.3-2.3c1.3,1.8,2.6,3.8,3.8,5.7L774.3,64.4L774.3,64.4z M555.8,62.9L555.8,62.9l-3.4-2.2
				c0.2-0.3,0.4-0.6,0.5-0.8l0,0l0,0l0,0l0,0l0,0l0,0l0,0l0,0l0,0l0,0l0,0l0,0l0,0l0,0l0,0l0,0l0,0l0,0l0,0l0,0l0,0l0,0l0,0l0,0l0,0
				l0.1-0.2l0,0v0l0,0l0,0l0,0l0,0l0,0l0,0l0,0l0,0l0,0c0.8-1.2,1.6-2.3,2.5-3.5l0,0l0,0l0,0l0,0l0,0l0-0.1l0,0l0,0l0,0l0,0l0,0l0,0
				l0,0l0,0l0,0l0,0l0,0l0,0l3.2,2.4C558.3,59.2,557,61,555.8,62.9L555.8,62.9z M766.6,53.6L766.6,53.6c-1.4-1.7-2.8-3.4-4.3-5.1
				l3-2.7c1.5,1.7,3,3.5,4.4,5.2L766.6,53.6z M563.7,52.2L563.7,52.2l-3.1-2.6c1.4-1.8,2.9-3.5,4.5-5.2l3,2.7
				C566.6,48.8,565.1,50.5,563.7,52.2L563.7,52.2z M757.8,43.7L757.8,43.7c-1.5-1.6-3.1-3.1-4.8-4.6l2.7-3c0.3,0.3,0.6,0.6,0.9,0.9
				l0,0l0,0l0,0l0,0l0,0h0l0,0l0,0l0,0l0,0l0,0l0,0l0,0l0.1,0.1l0,0l0,0l0,0l0,0l0,0l0,0l0,0l0,0l0,0l0,0l0,0l0,0l0,0l0,0l0,0
				c0.6,0.5,1.1,1.1,1.7,1.6l0,0l0,0l0,0l0,0l0,0l0,0l0,0l0,0l0,0l0,0l0,0l0,0l0,0l0,0l0,0l0,0l0,0l0,0l0,0l0,0l0,0l0.1,0.1l0,0l0,0
				l0,0l0.1,0.1l0,0l0,0l0,0c0.3,0.3,0.7,0.7,1,1L757.8,43.7L757.8,43.7z M572.7,42.4L572.7,42.4l-2.8-2.9l0,0l0,0l0,0l0,0l0,0l0,0
				l0,0l0,0l0,0l0,0l0,0l0,0l0,0l0,0l0,0l0,0l0,0l0.2-0.1l0,0l0,0l0,0l0,0l0,0l0,0l0,0l0,0l0,0l0,0l0,0c1.4-1.3,2.7-2.6,4.1-3.9l0,0
				l0,0l0,0l0,0l0,0l0,0l0,0l0,0l0,0l2.7,3C575.8,39.3,574.2,40.8,572.7,42.4L572.7,42.4z M748.1,34.6L748.1,34.6
				c-1.7-1.4-3.4-2.8-5.2-4.1l2.4-3.2l0.1,0l0,0l0,0l0,0l0,0l0,0l0,0l0,0l0,0l0,0l0,0l0,0c1.7,1.3,3.4,2.6,5.1,4L748.1,34.6
				L748.1,34.6z M582.5,33.5L582.5,33.5l-2.5-3.1c1.8-1.4,3.6-2.8,5.4-4.2l2.4,3.3C586,30.7,584.2,32.1,582.5,33.5z M737.4,26.7
				L737.4,26.7c-1.8-1.2-3.7-2.4-5.6-3.6l2.1-3.4c0.3,0.2,0.5,0.3,0.8,0.5l0,0l0,0l0,0l0,0l0,0l0,0l0,0l0,0l0,0l0,0l0,0l0,0l0,0l0,0
				l0,0l0,0l0,0l0,0c0.7,0.4,1.3,0.8,2,1.3l0,0l0,0h0l0,0l0,0l0,0l0,0l0,0l0,0l0,0l0,0l0,0l0,0l0,0l0,0l0,0l0,0l0,0l0,0l0,0
				c0.7,0.5,1.5,1,2.2,1.5L737.4,26.7L737.4,26.7z M593.2,25.6L593.2,25.6l-2.2-3.4c1.3-0.8,2.5-1.6,3.8-2.4l0,0l0,0l0,0l0,0l0,0
				l0,0h0l0,0l0,0l0,0l0,0l0,0h0l0,0l0,0l0.3-0.2h0l0,0l0,0h0l0,0h0l0,0l0,0l0,0l0,0l0,0l0,0l0,0h0l0,0l0,0c0.3-0.2,0.7-0.4,1-0.6
				l2,3.5C597,23.3,595.1,24.4,593.2,25.6L593.2,25.6z M726.1,19.8L726.1,19.8c-1.9-1-3.9-2-5.9-3l1.7-3.6c2,1,4.1,2,6.1,3.1l0,0
				l0,0l0,0L726.1,19.8L726.1,19.8z M604.7,18.9L604.7,18.9l-1.9-3.6c1.1-0.6,2.2-1.1,3.3-1.6l0,0l0,0h0l0,0h0l0,0h0l0,0l0,0l0,0
				l0,0l0,0l0,0l0,0h0l0,0h0l0,0l0,0l0,0l0,0c0.8-0.4,1.6-0.8,2.4-1.1l1.7,3.7C608.7,17,606.7,18,604.7,18.9L604.7,18.9z
				 M714.1,14.1L714.1,14.1c-2-0.8-4.1-1.6-6.2-2.4l1.3-3.8l0.2,0.1l0.2,0.1l0.1,0l0,0l0,0l0,0l0,0l0,0l0,0l0,0l0,0h0l0,0l0,0l0,0h0
				l0.5,0.2l0,0l0,0h0l0,0h0l0,0h0l0,0h0l0,0l0,0l0,0l0,0l0,0l0,0l0,0l0,0l0,0l0,0l0,0l0,0l0,0l0,0l0,0h0l0,0l0,0l0,0l0,0l0,0l0,0
				l0,0h0l0,0h0l0.1,0h0l0.1,0l0,0l0,0h0l0,0l0,0l0,0l0,0l0,0l0,0l0,0l0,0l0,0l0,0l0,0l0,0l0,0l0,0l0,0l0,0l0,0l0,0l0,0l0,0l0,0l0,0
				l0,0l0,0l0,0l0,0l0,0l0,0l0,0l0,0l0,0l0,0l0,0l0,0h0l0,0l0,0l0,0h0l0.2,0.1l0,0l0,0l0,0l0,0h0l0,0h0l0,0h0l0,0l0,0l0,0h0l0,0l0,0
				l0,0l0,0l0,0h0l0,0h0l0,0l0,0l0,0c0.8,0.3,1.5,0.6,2.3,0.9L714.1,14.1L714.1,14.1z M616.8,13.4L616.8,13.4l-1.5-3.7
				c1.7-0.7,3.5-1.3,5.2-1.9l0,0l0,0h0l0,0h0l0,0h0l0,0l0,0l0,0h0l0,0l0,0l0,0h0l0.1,0l0,0h0l0.7-0.2l1.3,3.8
				C621,11.9,618.9,12.7,616.8,13.4L616.8,13.4z M701.5,9.7L701.5,9.7c-2.1-0.6-4.3-1.2-6.4-1.7l0.9-3.9l0.1,0l0.1,0l0,0l0,0h0l0,0
				h0l0,0h0l0,0h0l0,0h0l0,0h0l0,0h0l0,0h0l0,0h0l0,0h0l0,0h0l0,0h0l0,0l0,0l0,0h0l0,0h0l0,0h0l0,0h0l0,0l0.1,0h0l0,0h0l0,0l0,0l0,0
				l0,0l0,0l0,0l0,0l0,0l0,0l0,0l0,0l0,0l0,0l0,0l0,0l0,0h0l0,0l0,0l0,0l0,0l0,0l0,0l0,0l0,0l0,0l0,0l0,0l0,0l0,0l0,0l0,0l0,0l0,0
				l0,0h0l0,0h0l0,0h0l0,0h0l0,0h0l0,0h0l0,0h0l0,0h0l0,0l0,0c1.3,0.3,2.7,0.7,4,1.1l0,0l0,0l0,0L701.5,9.7L701.5,9.7z M629.4,9.2
				L629.4,9.2l-1.1-3.9c1.8-0.5,3.6-1,5.4-1.4l0.1,0l0,0l0,0h0l0,0h0l0,0l0,0l0,0l0,0l0,0l0,0h0l0,0h0l0,0h0l0,0h0l0,0h0l0.7-0.2
				l0.9,3.9C633.7,8.1,631.5,8.6,629.4,9.2L629.4,9.2z M688.6,6.6L688.6,6.6c-2.2-0.4-4.4-0.8-6.6-1.1l0.5-4
				c1.8,0.2,3.7,0.5,5.5,0.9h0l0,0l0,0h0c0.4,0.1,0.8,0.1,1.2,0.2L688.6,6.6L688.6,6.6z M642.3,6.3L642.3,6.3l-0.7-4l0.1,0l0.2,0
				l0,0l0,0h0l0,0h0l0,0h0h0l0,0h0c1.1-0.2,2.3-0.4,3.4-0.5l0,0h0l0,0h0l0,0h0h0h0h0h0h0h0h0h0h0l0,0c0.8-0.1,1.6-0.2,2.4-0.3l0.5,4
				C646.7,5.7,644.5,6,642.3,6.3L642.3,6.3z M675.5,4.9L675.5,4.9c-2.2-0.2-4.4-0.3-6.6-0.4l0.1-4c0.7,0,1.4,0.1,2.1,0.1h0.1h0.1h0
				h0h0h0h0h0h0h0h0.1h0h0.1h0h0h0h0.1h0h0h0h0h0h0h0h0h0h0h0h0h0h0h0l0,0h0.1c1.2,0.1,2.4,0.1,3.5,0.2L675.5,4.9L675.5,4.9z
				 M655.5,4.7L655.5,4.7l-0.3-4l0.1,0l0.1,0h0h0h0.1h0l0.1,0h0h0h0h0h0h0h0h0h0h0h0h0h0h0h0h0h0h0h0h0h0h0h0h0h0h0h0h0h0h0h0h0h0h0
				h0h0h0h0h0h0h0h0h0h0h0h0h0h0h0h0h0h0h0h0l0,0h0h0h0l0,0h0h0l0.4-0.1c1.4-0.1,2.9-0.1,4.3-0.1l0.1,4C660,4.5,657.7,4.6,655.5,4.7
				L655.5,4.7z"/>
			
				<linearGradient id="Subtração_6_1_" gradientUnits="userSpaceOnUse" x1="-424.2885" y1="672.9807" x2="-425.0075" y2="672.0596" gradientTransform="matrix(268.486 0 0 -132.599 114930.8438 89355.3281)">
				<stop  offset="0" style="stop-color:#5F27CD"/>
				<stop  offset="1" style="stop-color:#1DD1A1;stop-opacity:0"/>
			</linearGradient>
			<path id="Subtração_6" class="st3" d="M928,269.1L928,269.1c-0.7,0-1.4,0-2.1,0h-0.1h-0.1h0h0H925h0h0h0h0h0h0h0l0,0h-0.1
				c-1.2,0-2.4-0.1-3.5-0.2l0.3-4c2.2,0.1,4.4,0.2,6.6,0.3L928,269.1L928,269.1z M934.9,269.1L934.9,269.1l-0.1-4
				c2.2-0.1,4.4-0.2,6.6-0.4l0.3,4l-0.2,0h0l-0.1,0h0h0h-0.1h0l-0.1,0h0h0h0h0h0h0h0h0h0h0h0h0h0h0h0h0h0h0h0h0h0h0h0h0h0h0h0h0h0h0
				h0h0h0h0h0h0h0h0h0h0h0h0h0h0h0h0h0h0h0h0h0h0h0h0h0l0,0h0h0h0l0,0h0h0l-0.4,0h0C937.7,268.9,936.3,269,934.9,269.1L934.9,269.1z
				 M914.4,268.3L914.4,268.3c-1.8-0.2-3.7-0.5-5.5-0.8h0l0,0l0,0h0c-0.4-0.1-0.8-0.1-1.2-0.2l0.7-4c2.2,0.4,4.4,0.7,6.6,0.9
				L914.4,268.3L914.4,268.3z M948.5,267.9L948.5,267.9l-0.5-4c2.2-0.3,4.4-0.7,6.6-1.1l0.8,4l-0.2,0l0,0l-0.1,0l0,0l0,0h0l0,0h0
				l0,0l0,0h0l0,0h0c-1.1,0.2-2.3,0.4-3.4,0.6l0,0h0l0,0h0l0,0h0l0,0h0h0h0h0h0h0l0,0h0l0,0l0,0
				C950.1,267.6,949.3,267.7,948.5,267.9L948.5,267.9z M900.9,266L900.9,266L900.9,266l-0.1,0l0,0l0,0h0l0,0h0l0,0h0l0,0h0l0,0h0
				l0,0h0l0,0h0l0,0h0l0,0h0l0,0h0l0,0h0l0,0h0l0,0l0,0l0,0h0l0,0h0l0,0h0l0,0h0l-0.1,0h0l0,0h0l0,0l0,0l0,0l0,0l0,0l0,0l0,0l0,0
				l0,0l0,0l0,0l0,0l0,0l0,0l0,0l0,0l0,0l0,0l0,0l0,0l0,0l0,0l0,0l0,0l0,0l0,0l0,0l0,0l0,0l0,0l0,0h0l0,0l0,0l0,0h0l0,0h0l0,0h0l0,0
				h0l0,0h0l0,0h0l0,0h0l0,0h0l0,0l0,0c-1.3-0.3-2.7-0.7-4-1l0,0l0,0l0,0l1.1-3.9c2.1,0.6,4.3,1.1,6.4,1.6L900.9,266L900.9,266z
				 M962,265.3L962,265.3l-1-3.9c2.1-0.5,4.3-1.1,6.4-1.7l1.2,3.9c-1.8,0.5-3.6,1-5.4,1.5l-0.1,0l0,0l0,0h0l0,0h0l0,0l0,0l0,0l0,0
				l0,0l0,0l0,0l0,0h0l0,0h0l0,0h0l0,0h0L962,265.3L962,265.3z M887.7,262.3L887.7,262.3l-0.2-0.1l-0.1,0l-0.1,0l-0.1,0l0,0l0,0l0,0
				l0,0l0,0l0,0l0,0l0,0h0l0,0l0,0l0,0h0l-0.5-0.2l0,0l0,0h0l0,0h0l0,0l0,0l0,0h0l0,0l0,0l0,0l0,0l0,0l0,0l0,0l0,0l0,0l0,0l0,0l0,0
				l0,0l0,0l0,0h0l0,0l0,0l0,0h0l0,0l0,0l0,0h0l0,0h0l-0.1-0.1h0l-0.1,0l0,0l0,0h0l0,0l0,0l0,0l0,0l0,0l0,0l0,0l0,0l0,0l0,0l0,0l0,0
				l0,0l0,0l0,0l0,0l0,0l0,0l0,0l0,0l0,0l0,0l0,0l0,0l0,0l0,0l0,0l0,0l0,0l0,0l0,0l0,0l0,0l0,0h0l0,0l0,0l0,0h0l-0.3-0.1l0,0l0,0h0
				l0,0h0l0,0l0,0l0,0l0,0l0,0h0l0,0l0,0l0,0l0,0l0,0l0,0l0,0h0l0,0l0,0l0,0c-0.8-0.3-1.5-0.6-2.3-0.9l1.5-3.8
				c2.1,0.8,4.2,1.6,6.2,2.3L887.7,262.3L887.7,262.3z M975.1,261.4L975.1,261.4l-1.3-3.8c2.1-0.7,4.2-1.5,6.2-2.4l1.5,3.7
				c-1.7,0.7-3.4,1.4-5.2,2l0,0l0,0h0l0,0h0l0,0h0l0,0l0,0l0,0h0l0,0l0,0l0,0h0l-0.1,0l0,0l0,0L975.1,261.4L975.1,261.4z
				 M874.9,257.4L874.9,257.4c-2.1-0.9-4.1-1.9-6.1-2.9l0,0l0,0l1.8-3.6c2,1,4,2,6,2.9L874.9,257.4L874.9,257.4z M987.8,256.2
				L987.8,256.2l-1.7-3.6c2-0.9,4-2,5.9-3l1.9,3.5c-1.1,0.6-2.2,1.2-3.3,1.7l0,0l0,0h0l0,0l0,0l0,0h0l0,0l0,0l0,0l0,0l0,0l0,0l0,0h0
				l0,0h0l0,0l0,0l0,0l0,0C989.4,255.4,988.6,255.8,987.8,256.2L987.8,256.2z M862.7,251.1L862.7,251.1c-0.3-0.2-0.5-0.3-0.8-0.4h0
				l0,0l0,0l0,0l0,0l0,0l0,0l0,0l0,0l0,0l0,0l0,0l0,0l0,0l0,0l0,0l0,0l0,0c-0.7-0.4-1.3-0.8-2-1.2l0,0l0,0h0l0,0l0,0l0,0l0,0l0,0
				l0,0l0,0l0,0l0,0l0,0l0,0l0,0l0,0l0,0l0,0l0,0l0,0c-0.7-0.5-1.5-0.9-2.2-1.4l2.2-3.4c1.9,1.2,3.8,2.4,5.7,3.5L862.7,251.1
				L862.7,251.1z M999.8,249.7L999.8,249.7l-2.1-3.4c1.9-1.1,3.8-2.4,5.6-3.6l2.3,3.3c-1.2,0.8-2.5,1.7-3.8,2.5l0,0l0,0l0,0l0,0l0,0
				h0l0,0l0,0l0,0l0,0l0,0h0l0,0l0,0l-0.3,0.2l0,0l0,0l0,0l0,0h0l0,0h0l0,0l0,0l0,0l0,0l0,0l0,0l0,0h0l0,0l0,0
				C1000.5,249.3,1000.1,249.5,999.8,249.7L999.8,249.7z M851.3,243.6L851.3,243.6L851.3,243.6l-0.1-0.1l0,0l0,0l0,0l0,0l0,0l0,0
				l0,0l0,0l0,0l0,0c-1.7-1.3-3.5-2.6-5.1-3.9l2.5-3.1c1.7,1.4,3.5,2.7,5.3,4L851.3,243.6L851.3,243.6z M1011.1,242L1011.1,242
				l-2.4-3.2c1.8-1.3,3.5-2.7,5.2-4.1l2.6,3.1C1014.7,239.2,1012.9,240.6,1011.1,242L1011.1,242z M840.6,235L840.6,235
				c-0.3-0.3-0.7-0.6-1-0.9l0,0l0,0l0,0h0l0,0h0l0,0l0,0l0,0l0,0l0,0l0,0l0,0l-0.1-0.1l0,0l0,0l0,0l0,0l0,0l0,0l0,0l0,0l0,0l0,0l0,0
				l0,0l0,0l0,0l0,0c-0.6-0.5-1.2-1.1-1.7-1.6l0,0l0,0l0,0l0,0l0,0l0,0l0,0l0,0l0,0l0,0l0,0l0,0l0,0l0,0l0,0l0,0l0,0l0,0l0,0l0,0
				l0,0l-0.1-0.1l0,0l0,0l0,0l-0.1-0.1l0,0l0,0l0,0c-0.3-0.3-0.7-0.6-1-1l2.8-2.9c1.6,1.5,3.2,3.1,4.8,4.5L840.6,235L840.6,235z
				 M1021.6,233.2L1021.6,233.2l-2.7-2.9c1.6-1.5,3.2-3.1,4.7-4.7l2.9,2.8l0,0l0,0l0,0l0,0l0,0l0,0l0,0l0,0l0,0l0,0l0,0l0,0l0,0l0,0
				l0,0l0,0l0,0l0,0l0,0l-0.1,0.1l0,0l0,0l0,0h0l0,0l0,0l0,0l0,0l0,0l0,0c-1.3,1.3-2.7,2.7-4.1,4l0,0l0,0l0,0L1021.6,233.2
				L1021.6,233.2L1021.6,233.2L1021.6,233.2L1021.6,233.2L1021.6,233.2L1021.6,233.2z M830.9,225.4L830.9,225.4
				c-1.5-1.7-3-3.4-4.5-5.2l3.1-2.6c1.4,1.7,2.9,3.4,4.4,5L830.9,225.4L830.9,225.4z M1031.1,223.3L1031.1,223.3l-3-2.7
				c1.4-1.7,2.9-3.4,4.3-5.1l3.2,2.5C1034.1,219.9,1032.6,221.6,1031.1,223.3L1031.1,223.3z M822.1,214.9L822.1,214.9
				c-1.4-1.8-2.7-3.7-3.9-5.6l3.4-2.2c1.2,1.8,2.5,3.7,3.8,5.4L822.1,214.9L822.1,214.9z M1039.6,212.6L1039.6,212.6l-3.3-2.3
				c1.3-1.8,2.5-3.7,3.7-5.5l3.4,2.2c-0.2,0.3-0.4,0.6-0.5,0.8l0,0l0,0l0,0l0,0l0,0l0,0l0,0l0,0l0,0l0,0l0,0l0,0l0,0l0,0l0,0l0,0
				l0,0l0,0l0,0l0,0l0,0l0,0l0,0l0,0l0,0l-0.1,0.2l0,0v0l0,0l0,0l0,0l0,0l0,0l0,0l0,0v0l0,0c-0.8,1.2-1.6,2.4-2.4,3.5l0,0l0,0l0,0
				l0,0l0,0l0,0l0,0l0,0l0,0l0,0l0,0l0,0l0,0L1039.6,212.6L1039.6,212.6L1039.6,212.6L1039.6,212.6L1039.6,212.6L1039.6,212.6z
				 M814.5,203.5L814.5,203.5c-0.4-0.6-0.7-1.2-1-1.8l0,0l0,0l0,0l0,0l0,0l0,0l0,0l0,0l0,0l0,0l0,0l0,0l0,0l-0.2-0.3l0,0l0,0l0,0v0
				l0,0v0l0,0l0,0l0,0l0,0l0,0l0,0l0,0l0,0l0,0l0,0l0,0l0,0l0,0l0,0l0,0l0,0l0,0l0,0l0,0l0,0l0,0l0,0l0,0l0,0l0,0l0,0l0,0l0,0l0,0
				l0,0l0,0l0,0l0,0l0,0l0,0l0,0l0,0l0,0l0,0l0,0l0,0l0,0l0,0l0,0l0,0l0,0l0,0l0,0l0,0l0,0l0,0l0,0l0,0l0,0l0,0l0,0l0,0l0,0l0,0l0,0
				l0,0l0,0l0,0l-0.1-0.1l0,0l0,0l0,0l0,0l0,0l0,0l0,0l0,0l0,0l0,0l0,0l0,0l0,0l0,0l0,0l0,0l0,0l0,0l0,0l0,0l0,0l0,0l0,0l0,0l0,0
				l0,0l0,0l0,0l0,0l0,0l0,0l0,0l0,0v0l0,0l0,0v0l0,0l0,0l0,0v0l0,0l0,0l0,0l0,0l0,0l0,0l0,0l0,0l0,0l0,0l0,0l0,0l0,0l0,0l0,0v0l0,0
				v0l0,0v0l0,0l0,0l-0.2-0.4l3.6-1.9c1,1.9,2.1,3.9,3.3,5.8L814.5,203.5L814.5,203.5z M1047,201L1047,201l-3.5-2
				c1.1-1.9,2.1-3.9,3.1-5.9l3.6,1.8c-0.3,0.7-0.7,1.3-1,2v0l0,0l0,0l0,0l0,0l0,0l0,0l0,0l0,0l0,0l0,0l0,0l0,0l0,0l0,0l0,0l0,0l0,0
				l0,0l0,0l0,0v0C1048.3,198.7,1047.7,199.9,1047,201L1047,201z M808.1,191.4L808.1,191.4c-1-2.1-1.9-4.2-2.7-6.3l3.7-1.5
				c0.8,2,1.7,4.1,2.6,6.1L808.1,191.4L808.1,191.4z M1053.1,188.8L1053.1,188.8l-3.7-1.6c0.9-2,1.7-4.1,2.5-6.1l3.8,1.4
				c-0.2,0.5-0.3,0.9-0.5,1.3l-0.1,0.2l-0.1,0.3v0l0,0l0,0l0,0l0,0l0,0l0,0l0,0l0,0l0,0l0,0l0,0l0,0l0,0l0,0l0,0l0,0l0,0l0,0l0,0
				l0,0l0,0l0,0l0,0l0,0l0,0l0,0l0,0l0,0l0,0l0,0l0,0l0,0l0,0l0,0l0,0l0,0l0,0.1l0,0l0,0l0,0l0,0l0,0l0,0l0,0l0,0l0,0l0,0l0,0l0,0
				l0,0l0,0l0,0l0,0l0,0l0,0l0,0l0,0l0,0l0,0l0,0l0,0l0,0l0,0l0,0l0,0l0,0l0,0l0,0l0,0l0,0l0,0l0,0l0,0l0,0l0,0.1l0,0.1v0l0,0l0,0
				l0,0l0,0l0,0l0,0l0,0l0,0l0,0l0,0l0,0l0,0l0,0l0,0l0,0l0,0l0,0l0,0l0,0l0,0l0,0l0,0l0,0l0,0l0,0l0,0l0,0l0,0l0,0l0,0l0,0l0,0v0
				C1053.6,187.7,1053.4,188.3,1053.1,188.8L1053.1,188.8z M803,178.7L803,178.7c-0.3-0.7-0.5-1.5-0.7-2.2v0l0,0l0,0l0,0l0,0l0,0
				l0,0l0,0l0,0l0,0l0,0l0,0l0,0v0l0,0v0l0,0v0l0,0v0l0,0c-0.3-0.8-0.5-1.6-0.8-2.5l0,0l0,0v0l0,0v0l0,0l0,0l0,0l0,0l0,0l0,0l0,0
				l0,0l0,0l0,0v0l0,0v0l0,0v0l0,0c-0.1-0.3-0.2-0.5-0.2-0.8l3.9-1.1c0.6,2.1,1.3,4.2,2,6.3L803,178.7L803,178.7z M1058,176
				L1058,176l-3.8-1.2c0.7-2.1,1.3-4.2,1.9-6.4l3.9,1c-0.5,1.9-1.1,3.8-1.6,5.6v0l0,0v0l0,0v0l0,0v0l0,0v0l0,0v0l0,0l0,0l0,0l0,0
				l0,0l0,0l0,0l0,0l0,0l0,0l0,0l0,0l0,0l0,0l0,0l0,0l0,0l0,0v0l0,0L1058,176L1058,176L1058,176L1058,176z M799.2,165.5L799.2,165.5
				c-0.1-0.6-0.3-1.2-0.4-1.8l0-0.1v0l0,0v0l0,0v0l0,0v0l0,0v0l0,0v0l0,0v0l0,0v0l0,0l0,0v0l0,0v0l0,0v0l0,0v0l0,0v0l0,0v0l0,0v0
				l0,0v0c-0.1-0.7-0.3-1.4-0.4-2.1l0-0.1l0,0l0,0l0,0l0,0l0,0l0,0l0,0l0,0v0l0,0v0l0,0v0l0,0v0l0,0v0l0,0v0l0,0l0,0v0l0,0v0l0,0v0
				l0,0v0c-0.1-0.4-0.1-0.8-0.2-1.2l4-0.7c0.4,2.2,0.8,4.4,1.3,6.5L799.2,165.5L799.2,165.5z M1061.5,162.8L1061.5,162.8l-3.9-0.8
				c0.5-2.2,0.9-4.4,1.2-6.5l4,0.6c-0.2,1.4-0.5,2.9-0.8,4.4l0,0l0,0l0,0l0,0v0l0,0v0l0,0v0l0,0v0l0,0v0l0,0v0l0,0v0l0,0v0l0,0l0,0
				v0l0,0v0l0,0v0l0,0v0C1061.8,161.7,1061.7,162.2,1061.5,162.8L1061.5,162.8z M796.8,152L796.8,152L796.8,152L796.8,152L796.8,152
				L796.8,152v-0.1l0,0v0l0,0v0c-0.3-2.2-0.5-4.4-0.7-6.6l4-0.3c0.2,2.2,0.4,4.4,0.7,6.6L796.8,152L796.8,152z M1063.7,149.2
				L1063.7,149.2l-4-0.4c0.2-2.2,0.4-4.4,0.5-6.6l4,0.2c-0.1,1.8-0.2,3.5-0.4,5.3l0,0v0v0v0v0v0v0v0v0v0v0v0v0v0v0v0v0v0v0.1
				C1063.8,148.6,1063.7,148.9,1063.7,149.2L1063.7,149.2z M795.7,138.4L795.7,138.4c0-0.2,0-0.4,0-0.6v-0.1v-0.1v-0.2v-0.1v-0.7h4
				c0,0.1,0,0.3,0,0.5c0,0.4,0,0.8,0,1.2L795.7,138.4z"/>
			
				<linearGradient id="Caminho_28575_1_" gradientUnits="userSpaceOnUse" x1="-426.2384" y1="673.4352" x2="-425.3284" y2="674.3271" gradientTransform="matrix(1064.421 0 0 -268.969 453734.3438 181390.2812)">
				<stop  offset="0" style="stop-color:#26CDA2"/>
				<stop  offset="0.35" style="stop-color:#3691B2"/>
				<stop  offset="0.665" style="stop-color:#446BBB"/>
				<stop  offset="1" style="stop-color:#5E29CC"/>
			</linearGradient>
			<path id="Caminho_28575" class="st4" d="M929.9,0c-74.3,0-134.6,60.2-134.6,134.6c0,0.1,0,0.1,0,0.2l0,0
				c-0.2,72.1-58.8,130.4-130.9,130.2c-71.8-0.2-130-58.4-130.2-130.2l0,0c0-0.1,0-0.1,0-0.2C534.2,60.2,474,0,399.7,0
				S265.1,60.2,265.1,134.6c0,0.1,0,0.1,0,0.2l0,0c-0.2,72.1-58.8,130.4-130.9,130.2C62.4,264.7,4.2,206.6,4,134.8H0
				C0.2,209.1,60.6,269.2,134.9,269c74-0.2,134-60.2,134.2-134.2l0,0c0-0.1,0-0.1,0-0.2C269.1,62.5,327.5,4,399.6,4
				s130.6,58.4,130.6,130.5c0,0,0,0.1,0,0.1c0,0.1,0,0.1,0,0.2l0,0c0.2,74.3,60.6,134.4,134.9,134.2c74-0.2,134-60.2,134.2-134.2
				l0,0c0-0.1,0-0.1,0-0.2C799.3,62.5,857.7,4,929.8,4s130.6,58.4,130.6,130.5c0,0,0,0.1,0,0.1c0,0.1,0,0.1,0,0.2h4
				c0-0.1,0-0.1,0-0.2C1064.4,60.2,1004.2,0,929.9,0L929.9,0z"/>
		</g>
		<ellipse id="Elipse_20" class="st5" cx="9" cy="134.8" rx="9" ry="9.5"/>
		<ellipse id="Elipse_21" class="st6" cx="276" cy="134.8" rx="9" ry="9.5"/>
		<circle id="Elipse_22" class="st7" cx="539.5" cy="134.8" r="9.5"/>
		<ellipse id="Elipse_23" class="st8" cx="806" cy="134.8" rx="9" ry="9.5"/>
		<path id="Polígono_1" class="st9" d="M1071.3,138.1c-0.5,1-1.8,1.3-2.7,0.8c-0.3-0.2-0.6-0.5-0.8-0.8l-7.1-12.9
			c-0.5-1-0.2-2.2,0.8-2.7c0.3-0.2,0.6-0.2,1-0.2h14.2c1.1,0,2,0.9,2,2c0,0.3-0.1,0.7-0.2,1L1071.3,138.1z"/>
	</g>
	<g id="pdv">
		<g class="st10">
			<path class="st11" d="M1213.5,1419.9c0,4.5-2.8,6.6-7.3,6.6h-2.6v4.7c0,0.8-0.5,0.9-1.9,0.9c-1.4,0-1.9-0.1-1.9-0.9v-16.9
				c0-0.6,0.3-0.9,0.9-0.9h5.5C1210.6,1413.3,1213.5,1415.4,1213.5,1419.9z M1209.6,1419.9c0-2.3-1.1-3.5-3.4-3.5h-2.6v6.9h2.6
				C1208.5,1423.3,1209.6,1422.2,1209.6,1419.9z"/>
			<path class="st11" d="M1216.2,1431.1v-16.8c0-0.6,0.3-0.9,0.9-0.9h5.3c5.7,0,8.8,2.5,8.8,9.4s-3.1,9.4-8.8,9.4h-5.3
				C1216.6,1432,1216.2,1431.7,1216.2,1431.1z M1222.4,1428.9c3.3,0,4.9-1.6,4.9-6.3s-1.6-6.3-4.9-6.3h-2.4v12.5H1222.4z"/>
			<path class="st11" d="M1248.3,1414.2c0,5-2.2,12.7-5.4,17.1c-0.5,0.7-1,0.8-2.3,0.8c-1.4,0-1.8-0.1-2.3-0.8
				c-3.2-4.4-5.4-12.1-5.4-17.1c0-0.9,0.5-1,2-1c1.4,0,1.9,0.1,2,1c0.2,5.5,1.4,10.5,3.7,14.3c2.4-3.9,3.5-8.8,3.7-14.3
				c0.1-0.9,0.5-1,1.9-1S1248.3,1413.3,1248.3,1414.2z"/>
		</g>
		<g id="pharmacy" transform="translate(1167 1261.009)">
			<path id="Caminho_28627" class="st11" d="M102.9,115.2h-4.7V56.1h3.1c0.9,0,1.6-0.7,1.6-1.6v-9.3c0-0.9-0.7-1.6-1.6-1.6H73.9
				C70.6,33.9,60,28.7,50.2,32c-5.5,1.9-9.8,6.2-11.6,11.6H11.1c-0.9,0-1.6,0.7-1.6,1.6c0,0,0,0,0,0v9.3c0,0.9,0.7,1.6,1.6,1.6h3.1
				v59.1H9.6c-0.9,0-1.6,0.7-1.6,1.6c0,0.9,0.7,1.6,1.6,1.6h93.4c0.9,0,1.6-0.7,1.6-1.6C104.5,115.9,103.8,115.2,102.9,115.2
				L102.9,115.2z M74.7,46.8h25.1V53H74.6C75,50.9,75,48.8,74.7,46.8L74.7,46.8z M56.2,34.1c8.6,0,15.6,7,15.6,15.6
				s-7,15.6-15.6,15.6s-15.6-7-15.6-15.6c0,0,0,0,0,0C40.7,41.1,47.7,34.1,56.2,34.1z M12.7,53v-6.2h25.1c-0.3,2.1-0.3,4.2,0.1,6.2
				L12.7,53z M71.8,115.2H40.7v-1.6h31.1L71.8,115.2z M45.4,110.6V81h9.3v29.6H45.4z M57.8,110.6V81h9.3v29.6H57.8z M95.2,115.2
				H74.9v-3.1c0-0.9-0.7-1.6-1.6-1.6h-3.1V79.4c0-0.9-0.7-1.6-1.6-1.6c0,0,0,0,0,0H43.8c-0.9,0-1.6,0.7-1.6,1.6v31.1h-3.1
				c-0.9,0-1.6,0.7-1.6,1.6v3.1H17.3V56.1h21.4c3.5,9.7,14.3,14.7,24,11.1c5.2-1.9,9.2-6,11.1-11.1h21.4V115.2z"/>
			<path id="Caminho_28628" class="st11" d="M64.5,42.5l-1.1-1.1c-2.1-2.1-5.6-2.1-7.7,0L48,49.1c-2.1,2.1-2.1,5.6,0,7.7l1.1,1.1
				c2.1,2.1,5.6,2.1,7.7,0l7.7-7.7C66.6,48.1,66.6,44.6,64.5,42.5z M54.6,55.7c-0.9,0.9-2.4,0.9-3.3,0l-1.1-1.1
				c-0.9-0.9-0.9-2.4,0-3.3c0,0,0,0,0,0l2.8-2.8l4.4,4.4L54.6,55.7z M62.3,48l-2.7,2.7l-4.4-4.4l2.8-2.8c0.9-0.9,2.4-0.9,3.3,0
				l1.1,1.1C63.2,45.6,63.2,47.1,62.3,48C62.3,48,62.3,48,62.3,48L62.3,48z"/>
			<path id="Caminho_28629" class="st11" d="M37.6,77.9H22c-0.9,0-1.6,0.7-1.6,1.6V95c0,0.9,0.7,1.6,1.6,1.6h15.6
				c0.9,0,1.6-0.7,1.6-1.6V79.4C39.1,78.6,38.4,77.9,37.6,77.9z M23.6,81h4.7v12.5h-4.7V81z M36,93.4h-4.7V81H36L36,93.4z"/>
			<path id="Caminho_28630" class="st11" d="M90.5,77.9H74.9c-0.9,0-1.6,0.7-1.6,1.6V95c0,0.9,0.7,1.6,1.6,1.6h15.6
				c0.9,0,1.6-0.7,1.6-1.6V79.4C92,78.6,91.4,77.9,90.5,77.9z M76.5,81h4.7v12.5h-4.7V81z M88.9,93.4h-4.7V81h4.7L88.9,93.4z"/>
		</g>
	</g>
	<g id="força_de_vendas">
		<g class="st10">
			<path class="st12" d="M372.5,1400.8c0,1.2-0.1,1.6-0.9,1.6h-7.1v4.9h5.5c0.8,0,0.8,0.4,0.8,1.6c0,1.2-0.1,1.6-0.8,1.6h-5.5v6.7
				c0,0.8-0.5,0.9-1.9,0.9s-1.9-0.1-1.9-0.9v-16.9c0-0.6,0.3-0.9,0.9-0.9h10C372.4,1399.3,372.5,1399.7,372.5,1400.8z"/>
			<path class="st12" d="M373.7,1408.6c0-6.6,3-9.6,8.1-9.6c5.1,0,8.1,3,8.1,9.6c0,6.7-3,9.8-8.1,9.8
				C376.6,1418.3,373.7,1415.2,373.7,1408.6z M385.9,1408.6c0-4.5-1.5-6.4-4.2-6.4s-4.2,1.9-4.2,6.4c0,4.6,1.4,6.6,4.2,6.6
				S385.9,1413.1,385.9,1408.6z"/>
			<path class="st12" d="M392.9,1417.1v-16.9c0-0.6,0.3-0.9,0.9-0.9h5.6c4.7,0,7.2,1.8,7.2,5.4c0,3.2-2.1,4.8-4.7,5.3v0.1
				c0.8,0.2,1.6,0.7,2.3,1.5c1.5,1.5,2.7,3.7,2.8,5.5c0,0.9-0.6,1-2.1,1c-1.4,0-1.9-0.1-2.1-1c-0.6-2.2-1.6-3.9-2.9-5.1
				c-0.7-0.7-1.2-0.8-2-0.8h-1.3v6c0,0.8-0.5,0.9-1.9,0.9S392.9,1417.9,392.9,1417.1z M399.1,1408.1c2.1,0,3.6-0.9,3.6-2.9
				c0-1.8-1.1-2.7-3.3-2.7h-2.7v5.7H399.1z"/>
			<path class="st12" d="M422.6,1416.1c0,0.8-0.4,1.4-1.5,1.7c-1.2,0.3-2.3,0.5-3.4,0.5l-0.3,0.7c1.6,0.4,2.5,1.1,2.5,2.4
				c0,1.6-1.6,2.6-3.7,2.6c-0.6,0-1.1-0.1-1.7-0.2c-0.4-0.1-0.6-0.4-0.6-0.8s0.2-1,0.5-1c0.2,0,0.6,0.3,1.3,0.3
				c0.8,0,1.2-0.3,1.2-0.8c0-0.6-0.6-0.9-1.7-1c-0.3,0-0.4-0.3-0.3-0.5l0.8-1.7c-4.2-0.5-6.8-3.7-6.8-9.6c0-6.6,3.3-9.6,8.2-9.6
				c1.2,0,2.3,0.1,3.7,0.5c1.1,0.3,1.5,0.9,1.5,1.7c0,0.9-0.4,1.9-1,1.9c-0.5,0-1.8-0.9-4.1-0.9c-2.8,0-4.4,1.9-4.4,6.4
				c0,4.6,1.7,6.6,4.4,6.6c2.2,0,3.8-0.9,4.3-0.9C422.2,1414.2,422.6,1415.2,422.6,1416.1z"/>
			<path class="st12" d="M440.2,1417.1c0,0.9-0.5,1-1.9,1c-1.5,0-1.9-0.1-2-1c-0.1-1-0.1-2.1-0.2-3.1h-7.3c-0.1,1-0.2,2-0.2,3.1
				c-0.1,0.9-0.5,1-1.9,1s-2-0.1-2-1c0-5,2.2-12.9,5.4-17.1c0.5-0.7,1-0.8,2.3-0.8c1.4,0,1.8,0.1,2.3,0.8
				C438,1404.2,440.2,1412.1,440.2,1417.1z M435.6,1410.9c-0.6-3.1-1.7-6-3.1-8.3c-1.5,2.4-2.5,5.2-3.1,8.3H435.6z"/>
			<path class="st12" d="M448.4,1417.1v-16.8c0-0.6,0.3-0.9,0.9-0.9h5.3c5.7,0,8.8,2.5,8.8,9.4s-3.1,9.4-8.8,9.4h-5.3
				C448.7,1418,448.4,1417.7,448.4,1417.1z M454.6,1414.9c3.3,0,4.9-1.6,4.9-6.3s-1.6-6.3-4.9-6.3h-2.4v12.5H454.6z"/>
			<path class="st12" d="M478.7,1416.4c0,1.2-0.1,1.6-0.9,1.6h-10.4c-0.6,0-0.9-0.3-0.9-0.9v-16.8c0-0.6,0.3-0.9,0.9-0.9h10.2
				c0.8,0,0.8,0.4,0.8,1.6c0,1.2-0.1,1.6-0.8,1.6h-7.3v4.4h5.7c0.8,0,0.8,0.4,0.8,1.5c0,1.2-0.1,1.6-0.8,1.6h-5.7v4.9h7.5
				C478.6,1414.9,478.7,1415.3,478.7,1416.4z"/>
		</g>
		<g class="st10">
			<path class="st12" d="M387.3,1428.2c0,5-2.2,12.7-5.4,17.1c-0.5,0.7-1,0.8-2.3,0.8c-1.4,0-1.8-0.1-2.3-0.8
				c-3.2-4.4-5.4-12.1-5.4-17.1c0-0.9,0.5-1,2-1c1.4,0,1.9,0.1,2,1c0.2,5.5,1.4,10.5,3.7,14.3c2.4-3.9,3.5-8.8,3.7-14.3
				c0.1-0.9,0.5-1,2-1S387.3,1427.3,387.3,1428.2z"/>
			<path class="st12" d="M402.4,1444.4c0,1.2-0.1,1.6-0.9,1.6h-10.4c-0.6,0-0.9-0.3-0.9-0.9v-16.8c0-0.6,0.3-0.9,0.9-0.9h10.2
				c0.8,0,0.8,0.4,0.8,1.6c0,1.2-0.1,1.6-0.8,1.6h-7.3v4.4h5.7c0.8,0,0.8,0.4,0.8,1.5c0,1.2-0.1,1.6-0.8,1.6h-5.7v4.9h7.5
				C402.3,1442.9,402.4,1443.3,402.4,1444.4z"/>
			<path class="st12" d="M419.9,1428.2v17c0,0.8-0.4,0.9-1.6,0.9c-1.2,0-1.5-0.1-1.6-0.6c-1.2-4.5-4.3-9.8-7.6-12.8v12.5
				c0,0.8-0.5,0.9-1.9,0.9c-1.4,0-1.9-0.1-1.9-0.9v-17c0-0.8,0.4-0.9,1.6-0.9c0.8,0,1.1,0.1,1.5,0.4c2.9,2.2,5.8,5.8,7.7,9.2v-8.6
				c0-0.8,0.5-0.9,1.9-0.9S419.9,1427.3,419.9,1428.2z"/>
			<path class="st12" d="M423.9,1445.1v-16.8c0-0.6,0.3-0.9,0.9-0.9h5.3c5.7,0,8.8,2.5,8.8,9.4s-3.1,9.4-8.8,9.4h-5.3
				C424.3,1446,423.9,1445.7,423.9,1445.1z M430.1,1442.9c3.3,0,4.9-1.6,4.9-6.3s-1.6-6.3-4.9-6.3h-2.4v12.5H430.1z"/>
			<path class="st12" d="M456.4,1445.1c0,0.9-0.5,1-1.9,1c-1.5,0-1.9-0.1-2-1c-0.1-1-0.1-2.1-0.2-3.1H445c-0.1,1-0.2,2-0.2,3.1
				c-0.1,0.9-0.5,1-1.9,1s-2-0.1-2-1c0-5,2.2-12.9,5.4-17.1c0.5-0.7,1-0.8,2.3-0.8c1.4,0,1.8,0.1,2.3,0.8
				C454.2,1432.2,456.4,1440.1,456.4,1445.1z M451.7,1438.9c-0.6-3.1-1.7-6-3.1-8.3c-1.5,2.4-2.5,5.2-3.1,8.3H451.7z"/>
			<path class="st12" d="M465.4,1430.3c-2.1,0-2.7,0.8-2.7,2s0.9,1.8,3.4,2.4c3.7,0.9,5.7,2.5,5.7,5.7c0,3.3-2.6,5.9-7.3,5.9
				c-1.8,0-3.3-0.3-4.6-0.8c-1.1-0.4-1.4-1-1.4-1.9c0-0.9,0.4-1.9,1.1-1.9c0.7,0,2.2,1.2,5.1,1.2c2.2,0,3-0.8,3-2.1
				c0-1.2-0.8-2-3.6-2.7c-3.4-0.8-5.5-2.5-5.5-5.5c0-3.2,2.2-5.7,6.8-5.7c1.5,0,2.7,0.2,3.9,0.5c1.2,0.3,1.5,0.9,1.5,1.8
				s-0.4,2-1.1,2C469.2,1431.2,467.8,1430.3,465.4,1430.3z"/>
		</g>
		<g id="group_1_" transform="translate(376.98 1288.798)">
			<g id="Grupo_10362" transform="translate(21.915 3.809)">
				<g id="Grupo_10361">
					<path id="Caminho_28605" class="st12" d="M7.4,0.9C7.1,0.1,6.2-0.2,5.4,0.1C3.8,0.8,2.3,1.6,0.7,2.5c-0.7,0.4-1,1.3-0.6,2
						c0.4,0.7,1.3,1,2,0.6c0,0,0,0,0.1,0c1.4-0.8,2.9-1.6,4.4-2.2C7.4,2.5,7.7,1.6,7.4,0.9C7.4,0.9,7.4,0.9,7.4,0.9z"/>
				</g>
			</g>
			<g id="Grupo_10364" transform="translate(51.494 0.85)">
				<g id="Grupo_10363">
					<path id="Caminho_28606" class="st12" d="M6.9,1.2C5.2,0.7,3.5,0.3,1.7,0C0.9-0.1,0.2,0.5,0,1.3C-0.1,2,0.4,2.8,1.2,2.9
						C2.8,3.2,4.4,3.6,6,4.1c0.8,0.2,1.6-0.2,1.8-1C8.1,2.3,7.6,1.5,6.9,1.2L6.9,1.2z"/>
				</g>
			</g>
			<g id="Grupo_10366" transform="translate(41.312 0.202)">
				<g id="Grupo_10365">
					<path id="Caminho_28607" class="st12" d="M6.7,0.1C5.8,0,5,0,4.1,0l0,0C3.2,0,2.3,0,1.4,0.1C0.6,0.1,0,0.8,0,1.6
						C0.1,2.4,0.7,3,1.5,3c0,0,0.1,0,0.1,0C2.4,3,3.3,3,4.1,3l0,0C4.9,3,5.7,3,6.5,3C7.3,3.1,8,2.4,8,1.6C8.1,0.8,7.5,0.1,6.7,0.1
						L6.7,0.1z"/>
				</g>
			</g>
			<g id="Grupo_10368" transform="translate(86.676 33.916)">
				<g id="Grupo_10367">
					<path id="Caminho_28608" class="st12" d="M3.8,6.3C3.6,4.6,3.3,2.8,2.9,1.1C2.7,0.3,2-0.2,1.2,0C0.4,0.2-0.1,1,0,1.8
						c0,0,0,0,0,0.1C0.4,3.4,0.7,5,0.9,6.7C1,7.4,1.6,8,2.4,8c0.1,0,0.1,0,0.2,0C3.4,7.9,3.9,7.1,3.8,6.3z"/>
				</g>
			</g>
			<g id="Grupo_10370" transform="translate(85.233 54.267)">
				<g id="Grupo_10369">
					<path id="Caminho_28609" class="st12" d="M3.3,0C2.5-0.1,1.7,0.3,1.5,1.1c0,0,0,0,0,0C1.1,2.7,0.7,4.3,0.1,5.9
						c-0.3,0.8,0.1,1.6,0.8,1.9S2.5,7.7,2.8,7c0,0,0,0,0-0.1C3.5,5.2,4,3.5,4.4,1.8C4.6,1,4.1,0.2,3.3,0z"/>
				</g>
			</g>
			<g id="Grupo_10372" transform="translate(61.272 3.755)">
				<g id="Grupo_10371">
					<path id="Caminho_28610" class="st12" d="M6.8,2.5C5.3,1.6,3.7,0.8,2.1,0.1c-0.7-0.3-1.6,0-2,0.7s0,1.6,0.7,2c0,0,0,0,0.1,0
						c1.5,0.7,3,1.4,4.4,2.2c0.7,0.4,1.6,0.2,2-0.5C7.8,3.9,7.6,3,6.8,2.5C6.8,2.5,6.8,2.5,6.8,2.5L6.8,2.5z"/>
				</g>
			</g>
			<g id="Grupo_10374" transform="translate(1.185 54.313)">
				<g id="Grupo_10373">
					<path id="Caminho_28611" class="st12" d="M4.3,5.9c-0.6-1.5-1-3.1-1.4-4.7c-0.2-0.8-1-1.3-1.8-1.1C0.3,0.3-0.1,1,0,1.8
						C0.4,3.5,1,5.2,1.6,6.9C1.9,7.6,2.7,8,3.5,7.7C4.2,7.4,4.6,6.6,4.3,5.9L4.3,5.9z"/>
				</g>
			</g>
			<g id="Grupo_10376" transform="translate(31.269 0.874)">
				<g id="Grupo_10375">
					<path id="Caminho_28612" class="st12" d="M7.9,1.2C7.8,0.4,7-0.1,6.2,0c0,0,0,0,0,0C4.5,0.3,2.7,0.7,1.1,1.2
						c-0.8,0.2-1.2,1-1,1.8c0.2,0.8,1,1.2,1.8,1c0,0,0,0,0.1,0c1.6-0.5,3.2-0.9,4.8-1.1C7.5,2.8,8,2,7.9,1.2z"/>
				</g>
			</g>
			<g id="Grupo_10378" transform="translate(87.578 44.044)">
				<g id="Grupo_10377">
					<path id="Caminho_28613" class="st12" d="M1.8,0C1,0,0.3,0.7,0.3,1.5c0,0,0,0,0,0v0.1c0,1.6-0.1,3.3-0.3,4.9
						c-0.1,0.8,0.5,1.6,1.3,1.7s1.6-0.5,1.7-1.3c0,0,0,0,0,0c0.2-1.7,0.3-3.5,0.3-5.3V1.5C3.2,0.7,2.6,0,1.8,0z"/>
				</g>
			</g>
			<g id="Grupo_10380" transform="translate(46.513 87.408)">
				<g id="Grupo_10379">
					<path id="Caminho_28614" class="st12" d="M8,1.2C7.9,0.4,7.1-0.1,6.3,0c0,0,0,0,0,0C4.7,0.3,3,0.5,1.4,0.6
						C0.6,0.6-0.1,1.3,0,2.1c0,0.8,0.7,1.5,1.5,1.4l0,0h0.1c1.8-0.1,3.5-0.3,5.2-0.6C7.6,2.8,8.1,2,8,1.2C8,1.2,8,1.2,8,1.2z"/>
				</g>
			</g>
			<g id="Grupo_10382" transform="translate(36.331 87.416)">
				<g id="Grupo_10381">
					<path id="Caminho_28615" class="st12" d="M6.6,0.6C5,0.5,3.4,0.3,1.7,0C0.9-0.1,0.2,0.4,0,1.2C-0.2,2,0.4,2.8,1.2,2.9
						c0,0,0.1,0,0.1,0C3,3.2,4.7,3.4,6.5,3.5h0.1C7.4,3.5,8,2.9,8,2C8,1.3,7.4,0.6,6.6,0.6L6.6,0.6z"/>
				</g>
			</g>
			<g id="Grupo_10384" transform="translate(26.556 84.5)">
				<g id="Grupo_10383">
					<path id="Caminho_28616" class="st12" d="M6.7,1.8c-1.6-0.5-3.1-1-4.6-1.7C1.3-0.2,0.4,0.2,0.1,0.9c-0.3,0.7,0,1.6,0.8,1.9
						c1.6,0.7,3.3,1.3,5,1.8c0.8,0.2,1.6-0.2,1.8-1C7.9,2.9,7.5,2,6.7,1.8L6.7,1.8L6.7,1.8z"/>
				</g>
			</g>
			<g id="Grupo_10386" transform="translate(0.288 34.052)">
				<g id="Grupo_10385">
					<path id="Caminho_28617" class="st12" d="M2.7,0C1.9-0.1,1.1,0.3,0.9,1.1c0,0,0,0,0,0C0.5,2.9,0.2,4.6,0,6.3
						c-0.1,0.8,0.5,1.5,1.3,1.6C2.1,8,2.8,7.5,3,6.7C3.1,5,3.4,3.4,3.8,1.8C4,1,3.5,0.2,2.7,0C2.7,0,2.7,0,2.7,0z"/>
				</g>
			</g>
			<g id="Grupo_10388" transform="translate(56.557 84.483)">
				<g id="Grupo_10387">
					<path id="Caminho_28618" class="st12" d="M7.6,0.9C7.3,0.1,6.4-0.2,5.7,0.1c0,0,0,0,0,0C4.2,0.8,2.6,1.3,1.1,1.8
						C0.3,2-0.2,2.8,0,3.6c0.2,0.8,1,1.2,1.8,1c0,0,0,0,0.1,0c1.7-0.5,3.3-1.1,5-1.8C7.6,2.5,8,1.6,7.6,0.9z"/>
				</g>
			</g>
			<g id="Grupo_10390" transform="translate(0.001 44.184)">
				<g id="Grupo_10389">
					<path id="Caminho_28619" class="st12" d="M3.2,6.4C3.1,4.8,3,3.1,3,1.5C3,0.7,2.3,0,1.5,0l0,0C0.7,0,0,0.7,0,1.5c0,0,0,0,0,0
						C0,3.2,0.1,5,0.3,6.7C0.4,7.5,1,8.1,1.8,8.1c0.1,0,0.1,0,0.2,0C2.8,7.9,3.3,7.2,3.2,6.4z"/>
				</g>
			</g>
			<g id="Grupo_10392" transform="translate(0.835 5.977)">
				<g id="Grupo_10391">
					<path id="Caminho_28620" class="st12" d="M22.8,15c-0.2-0.7-1-1.1-1.7-0.8s-1.1,1-0.8,1.7c0,0,0,0,0,0c0.3,0.8,0.4,1.7,0.4,2.6
						v3.6c0,0.3-0.2,0.5-0.5,0.5H3.1c-0.3,0-0.5-0.2-0.5-0.5v-3.6c0-2.3,1-4.5,2.7-6c2.6,3.4,7.5,4.1,10.9,1.5s4.1-7.5,1.5-10.9
						S10.3-1,6.9,1.6c-2.6,2-3.7,5.4-2.8,8.5c-2.6,2-4.1,5.1-4.1,8.4v3.6c0,1.7,1.4,3.1,3.1,3.1h17.1c1.7,0,3.1-1.4,3.1-3.1v-3.6
						C23.4,17.3,23.2,16.2,22.8,15z M11.6,2.7c2.8,0,5.2,2.3,5.2,5.2c0,2.8-2.3,5.2-5.2,5.2s-5.2-2.3-5.2-5.2c0,0,0,0,0,0
						C6.4,5,8.7,2.7,11.6,2.7z"/>
				</g>
			</g>
			<g id="Grupo_10394" transform="translate(66.639 5.977)">
				<g id="Grupo_10393">
					<path id="Caminho_28621" class="st12" d="M22.8,15c-0.2-0.7-1-1.1-1.7-0.8c-0.7,0.2-1.1,1-0.8,1.7c0,0,0,0,0,0
						c0.3,0.8,0.4,1.7,0.4,2.6v3.6c0,0.3-0.2,0.5-0.5,0.5H3.1c-0.3,0-0.5-0.2-0.5-0.5v-3.6c0-2.3,1-4.5,2.7-6
						c2.6,3.4,7.5,4.1,10.9,1.5s4.1-7.5,1.5-10.9C15.2-0.3,10.3-1,6.9,1.6c-2.6,2-3.7,5.4-2.8,8.5c-2.6,2-4.1,5.1-4.1,8.4v3.6
						c0,1.7,1.4,3.1,3.1,3.1h17.1c1.7,0,3.1-1.4,3.1-3.1v-3.6C23.4,17.3,23.2,16.2,22.8,15z M11.6,2.7c2.8,0,5.2,2.3,5.2,5.2
						c0,2.8-2.3,5.2-5.2,5.2c-2.8,0-5.2-2.3-5.2-5.2c0,0,0,0,0,0C6.4,5,8.7,2.7,11.6,2.7z"/>
				</g>
			</g>
			<g id="Grupo_10396" transform="translate(66.639 60.059)">
				<g id="Grupo_10395">
					<path id="Caminho_28622" class="st12" d="M22.8,15c-0.2-0.7-1-1.1-1.7-0.8c-0.7,0.2-1.1,1-0.8,1.7c0,0,0,0,0,0
						c0.3,0.8,0.4,1.7,0.4,2.6v3.6c0,0.3-0.2,0.5-0.5,0.5H3.1c-0.3,0-0.5-0.2-0.5-0.5v-3.6c0-2.3,1-4.5,2.7-6
						c2.6,3.4,7.5,4.1,10.9,1.5s4.1-7.5,1.5-10.9S10.3-1,6.9,1.6c-2.6,2-3.7,5.4-2.8,8.5c-2.6,2-4.1,5.1-4.1,8.4v3.6
						c0,1.7,1.4,3.1,3.1,3.1h17.1c1.7,0,3.1-1.4,3.1-3.1v-3.6C23.4,17.3,23.2,16.2,22.8,15z M11.6,2.7c2.8,0,5.2,2.3,5.2,5.2
						c0,2.8-2.3,5.2-5.2,5.2c-2.8,0-5.2-2.3-5.2-5.2c0,0,0,0,0,0C6.4,5,8.7,2.7,11.6,2.7z"/>
				</g>
			</g>
			<g id="Grupo_10398" transform="translate(0.835 60.059)">
				<g id="Grupo_10397">
					<path id="Caminho_28623" class="st12" d="M22.8,15c-0.2-0.7-1-1.1-1.7-0.8c-0.7,0.2-1.1,1-0.8,1.7c0,0,0,0,0,0
						c0.3,0.8,0.4,1.7,0.4,2.6v3.6c0,0.3-0.2,0.5-0.5,0.5H3.1c-0.3,0-0.5-0.2-0.5-0.5v-3.6c0-2.3,1-4.5,2.7-6
						c2.6,3.4,7.5,4.1,10.9,1.5s4.1-7.5,1.5-10.9S10.3-1,6.9,1.6c-2.6,2-3.7,5.4-2.8,8.5c-2.6,2-4.1,5.1-4.1,8.4v3.6
						c0,1.7,1.4,3.1,3.1,3.1h17.1c1.7,0,3.1-1.4,3.1-3.1v-3.6C23.4,17.3,23.2,16.1,22.8,15z M11.6,2.7c2.8,0,5.2,2.3,5.2,5.2
						c0,2.8-2.3,5.2-5.2,5.2c-2.8,0-5.2-2.3-5.2-5.2c0,0,0,0,0,0C6.4,5,8.7,2.7,11.6,2.7z"/>
				</g>
			</g>
			<g id="Grupo_10400" transform="translate(21.128 30.885)">
				<g id="Grupo_10399">
					<path id="Caminho_28624" class="st12" d="M36.9,0H22.7c-6,0-11.2,4.4-12.2,10.3H10C4.4,10.4-0.1,15,0,20.7
						c0,3.9,2.2,7.5,5.7,9.3c1.7,4.1,7.1,6.1,7.3,6.2c0.7,0.3,1.5-0.1,1.7-0.8c0.1-0.3,0.1-0.7,0-1c-0.5-1.1-0.8-2.2-0.9-3.4h7.4
						c4,0,7.7-2.5,9.2-6.2h2.1c-0.1,1.6-0.5,3.2-1.2,4.6c-0.3,0.7,0,1.5,0.6,1.8c0.3,0.1,0.7,0.2,1,0.1c0.3-0.1,7-2.5,9.1-7.6
						c6.2-2.9,8.9-10.2,6-16.4C46.1,2.8,41.7,0,36.9,0L36.9,0z M40.5,21.4c-0.4,0.1-0.6,0.4-0.8,0.8c-0.7,2.3-3,4.1-4.9,5.2
						c0.3-1.3,0.4-2.7,0.3-4.1c-0.1-0.7-0.6-1.2-1.3-1.2H22.7c-1.2,0-2.5-0.2-3.6-0.7c-0.5-0.2-1.1-0.1-1.4,0.3l0,0
						c-0.5,0.5-0.5,1.4,0,1.9c0.1,0.1,0.3,0.2,0.4,0.3c1.5,0.6,3,0.9,4.6,0.9h4.7c-1.3,2.2-3.7,3.6-6.2,3.6h-8.7
						c-0.7,0-1.2,0.5-1.3,1.2c-0.1,0.9-0.1,1.9,0.1,2.8c-1.4-0.8-2.6-2.1-3.2-3.7c-0.1-0.4-0.4-0.7-0.8-0.9c-2.8-1.2-4.6-4-4.6-7.1
						C2.6,16.5,5.9,13.1,10,13h0.3c0.1,1.4,0.4,2.7,0.9,4c0.3,0.7,1,1,1.7,0.7c0.2-0.1,0.3-0.2,0.4-0.3l0,0c0.4-0.4,0.5-0.9,0.3-1.4
						c-0.5-1.2-0.7-2.5-0.7-3.8c0.2-5.3,4.5-9.5,9.8-9.5h13.9c5.4,0,9.8,4.3,9.9,9.7C46.6,16.3,44.2,19.9,40.5,21.4L40.5,21.4z"/>
				</g>
			</g>
		</g>
	</g>
	<g id="pacientes">
		<g class="st10">
			<path class="st13" d="M903.4,1419.9c0,4.5-2.8,6.6-7.3,6.6h-2.6v4.7c0,0.8-0.5,0.9-1.9,0.9c-1.4,0-1.9-0.1-1.9-0.9v-16.9
				c0-0.6,0.3-0.9,0.9-0.9h5.5C900.5,1413.3,903.4,1415.4,903.4,1419.9z M899.5,1419.9c0-2.3-1.1-3.5-3.4-3.5h-2.6v6.9h2.6
				C898.4,1423.3,899.5,1422.2,899.5,1419.9z"/>
			<path class="st13" d="M919.8,1431.1c0,0.9-0.5,1-2,1c-1.5,0-1.9-0.1-2-1c-0.1-1-0.1-2.1-0.2-3.1h-7.3c-0.1,1-0.2,2-0.2,3.1
				c-0.1,0.9-0.5,1-1.9,1s-2-0.1-2-1c0-5,2.2-12.9,5.4-17.1c0.5-0.7,1-0.8,2.3-0.8c1.4,0,1.8,0.1,2.3,0.8
				C917.6,1418.2,919.8,1426.1,919.8,1431.1z M915.2,1424.9c-0.6-3.1-1.7-6-3.1-8.3c-1.5,2.4-2.5,5.2-3.1,8.3H915.2z"/>
			<path class="st13" d="M929.9,1413c1.2,0,2.3,0.1,3.7,0.5c1.1,0.3,1.5,0.9,1.5,1.7c0,0.9-0.4,1.9-1,1.9c-0.5,0-1.8-0.9-4.1-0.9
				c-2.8,0-4.4,1.9-4.4,6.4c0,4.6,1.7,6.6,4.4,6.6c2.2,0,3.8-0.9,4.3-0.9c0.6,0,1,1,1,1.9c0,0.8-0.4,1.4-1.5,1.7
				c-1.4,0.4-2.6,0.5-3.8,0.5c-5,0-8.2-3.1-8.2-9.8C921.7,1415.9,924.9,1413,929.9,1413z"/>
			<path class="st13" d="M938.1,1431.1v-17c0-0.8,0.5-0.9,1.9-0.9c1.4,0,1.9,0.1,1.9,0.9v17c0,0.8-0.5,0.9-1.9,0.9
				C938.6,1432.1,938.1,1431.9,938.1,1431.1z"/>
			<path class="st13" d="M958.1,1430.4c0,1.2-0.1,1.6-0.9,1.6h-10.4c-0.6,0-0.9-0.3-0.9-0.9v-16.8c0-0.6,0.3-0.9,0.9-0.9h10.2
				c0.8,0,0.8,0.4,0.8,1.6c0,1.2-0.1,1.6-0.8,1.6h-7.3v4.4h5.7c0.8,0,0.8,0.4,0.8,1.5c0,1.2-0.1,1.6-0.8,1.6h-5.7v4.9h7.5
				C958,1428.9,958.1,1429.3,958.1,1430.4z"/>
			<path class="st13" d="M975.6,1414.2v17c0,0.8-0.4,0.9-1.6,0.9c-1.2,0-1.5-0.1-1.6-0.6c-1.2-4.5-4.3-9.8-7.6-12.8v12.5
				c0,0.8-0.5,0.9-1.9,0.9c-1.4,0-1.9-0.1-1.9-0.9v-17c0-0.8,0.4-0.9,1.6-0.9c0.8,0,1.1,0.1,1.5,0.4c2.9,2.2,5.8,5.8,7.7,9.2v-8.6
				c0-0.8,0.5-0.9,1.9-0.9C975.1,1413.2,975.6,1413.3,975.6,1414.2z"/>
			<path class="st13" d="M993.4,1414.9c0,1.2-0.1,1.6-0.8,1.6h-5v14.6c0,0.8-0.5,0.9-1.9,0.9c-1.4,0-1.9-0.1-1.9-0.9v-14.6h-5
				c-0.8,0-0.8-0.4-0.8-1.6c0-1.2,0.1-1.6,0.8-1.6h13.9C993.3,1413.3,993.4,1413.7,993.4,1414.9z"/>
			<path class="st13" d="M1007.8,1430.4c0,1.2-0.1,1.6-0.9,1.6h-10.4c-0.6,0-0.9-0.3-0.9-0.9v-16.8c0-0.6,0.3-0.9,0.9-0.9h10.2
				c0.8,0,0.8,0.4,0.8,1.6c0,1.2-0.1,1.6-0.8,1.6h-7.3v4.4h5.7c0.8,0,0.8,0.4,0.8,1.5c0,1.2-0.1,1.6-0.8,1.6h-5.7v4.9h7.5
				C1007.7,1428.9,1007.8,1429.3,1007.8,1430.4z"/>
			<path class="st13" d="M1016.8,1416.3c-2.1,0-2.7,0.8-2.7,2s0.9,1.8,3.4,2.4c3.7,0.9,5.7,2.5,5.7,5.7c0,3.3-2.6,5.9-7.3,5.9
				c-1.8,0-3.3-0.3-4.6-0.8c-1.1-0.4-1.4-1-1.4-1.9c0-0.9,0.4-1.9,1.1-1.9c0.7,0,2.2,1.2,5.1,1.2c2.2,0,3-0.8,3-2.1
				c0-1.2-0.8-2-3.6-2.7c-3.4-0.8-5.5-2.5-5.5-5.5c0-3.2,2.2-5.7,6.8-5.7c1.5,0,2.7,0.2,3.9,0.5c1.2,0.3,1.5,0.9,1.5,1.8
				s-0.4,2-1.1,2C1020.6,1417.2,1019.2,1416.3,1016.8,1416.3z"/>
		</g>
		<path id="team" class="st13" d="M927.9,1364.7c-1.3-0.3-2.6-0.5-3.9-0.7c2.2-1.7,3.5-4.4,3.4-7.2c0-4.1-2.5-6.7-6.5-6.7
			s-6.5,2.6-6.5,6.7c-0.1,2.8,1.2,5.5,3.4,7.2c-1.3,0.1-2.6,0.4-3.9,0.7c-3.8,1-5.9,3.1-5.9,5.9v7.5c0,0.7,0.6,1.3,1.3,1.3
			s1.3-0.6,1.3-1.3v-7.5c0-2,2.2-3,4-3.5c4.2-1.1,8.6-1.1,12.8,0c1.5,0.4,4,1.3,4,3.5v7.5c0,0.7,0.6,1.3,1.3,1.3s1.3-0.6,1.3-1.3
			v-7.5C933.8,1367.8,931.7,1365.6,927.9,1364.7L927.9,1364.7z M920.9,1352.7c1.8,0,4,0.7,4,4.2c0,3-1.8,5.6-4,5.6s-4-2.6-4-5.6
			C916.9,1353.4,919.1,1352.7,920.9,1352.7z M961.9,1364.7c-1.3-0.3-2.6-0.5-3.9-0.7c2.2-1.7,3.5-4.4,3.4-7.2c0-4.1-2.5-6.7-6.5-6.7
			s-6.5,2.6-6.5,6.7c-0.1,2.8,1.2,5.5,3.4,7.2c-1.3,0.1-2.6,0.4-3.9,0.7c-3.8,1-5.9,3.1-5.9,5.9v7.5c0,0.7,0.6,1.3,1.3,1.3
			s1.3-0.6,1.3-1.3v-7.5c0-2,2.2-3,4-3.5c4.2-1.1,8.6-1.1,12.8,0c1.5,0.4,4,1.3,4,3.5v7.5c0,0.7,0.6,1.3,1.3,1.3s1.3-0.6,1.3-1.3
			v-7.5C967.9,1367.8,965.7,1365.6,961.9,1364.7L961.9,1364.7z M954.9,1352.7c1.8,0,4,0.7,4,4.2c0,3-1.8,5.6-4,5.6s-4-2.6-4-5.6
			C951,1353.4,953.1,1352.7,954.9,1352.7z M996,1364.7c-1.3-0.3-2.6-0.5-3.9-0.7c2.2-1.7,3.5-4.4,3.4-7.2c0-4.1-2.5-6.7-6.5-6.7
			c-4,0-6.5,2.6-6.5,6.7c-0.1,2.8,1.2,5.5,3.4,7.2c-1.3,0.1-2.6,0.4-3.9,0.7c-3.8,1-5.9,3.1-5.9,5.9v7.5c0,0.7,0.6,1.3,1.3,1.3
			c0.7,0,1.3-0.6,1.3-1.3v-7.5c0-2,2.2-3,4-3.5c4.2-1.1,8.6-1.1,12.8,0c1.5,0.4,4,1.3,4,3.5v7.5c0,0.7,0.6,1.3,1.3,1.3
			s1.3-0.6,1.3-1.3v-7.5C1001.9,1367.8,999.7,1365.6,996,1364.7L996,1364.7z M988.9,1352.7c1.8,0,4,0.7,4,4.2c0,3-1.8,5.6-4,5.6
			s-4-2.6-4-5.6C985,1353.4,987.1,1352.7,988.9,1352.7z M948.3,1346.2c0,0.7,0.6,1.3,1.3,1.3s1.3-0.6,1.3-1.3c0-2.8-2.1-5-5.9-5.9
			c-1.3-0.3-2.6-0.5-3.9-0.7c2.2-1.7,3.5-4.4,3.4-7.2c0-4.1-2.5-6.7-6.5-6.7s-6.5,2.6-6.5,6.7c-0.1,2.8,1.2,5.5,3.4,7.1
			c-1.3,0.1-2.6,0.4-3.9,0.7c-3.8,1-5.9,3.1-5.9,5.9c0,0.7,0.6,1.3,1.3,1.3c0.7,0,1.3-0.6,1.3-1.3c0-2,2.2-3,4-3.5
			c4.2-1.1,8.6-1.1,12.8,0C945.8,1343,948.3,1344,948.3,1346.2L948.3,1346.2z M937.9,1328.2c1.8,0,4,0.7,4,4.2c0,3-1.8,5.6-4,5.6
			c-2.2,0-4-2.6-4-5.6C933.9,1328.9,936.1,1328.2,937.9,1328.2z M982.3,1346.2c0,0.7,0.6,1.3,1.3,1.3c0.7,0,1.3-0.6,1.3-1.3l0,0
			c0-2.8-2.1-5-5.9-5.9c-1.3-0.3-2.6-0.5-3.9-0.7c2.2-1.7,3.5-4.4,3.4-7.2c0-4.1-2.5-6.7-6.5-6.7s-6.5,2.6-6.5,6.7
			c-0.1,2.8,1.2,5.5,3.4,7.2c-1.3,0.1-2.6,0.4-3.9,0.7c-3.8,1-5.9,3.1-5.9,5.9c0,0.7,0.6,1.3,1.3,1.3c0.7,0,1.3-0.6,1.3-1.3
			c0-2,2.2-3,4-3.5c4.2-1.1,8.6-1.1,12.8,0C979.8,1343,982.3,1344,982.3,1346.2L982.3,1346.2z M971.9,1328.2c1.8,0,4,0.7,4,4.2
			c0,3-1.8,5.6-4,5.6s-4-2.6-4-5.6C968,1328.9,970.1,1328.2,971.9,1328.2z M943.3,1322.8c0.7,0,1.3-0.6,1.3-1.3l0,0c0-2,2.2-3,4-3.5
			c4.2-1.1,8.6-1.1,12.8,0c1.5,0.4,4,1.3,4,3.5c0,0.7,0.6,1.3,1.3,1.3c0.7,0,1.3-0.6,1.3-1.3l0,0c0-2.8-2.1-5-5.9-5.9
			c-1.3-0.3-2.6-0.5-3.9-0.7c2.2-1.7,3.5-4.4,3.4-7.2c0-4.1-2.5-6.7-6.5-6.7s-6.5,2.6-6.5,6.7c-0.1,2.8,1.2,5.5,3.4,7.2
			c-1.3,0.1-2.6,0.4-3.9,0.7c-3.8,1-5.9,3.1-5.9,5.9C942,1322.2,942.6,1322.8,943.3,1322.8L943.3,1322.8z M954.9,1303.5
			c1.8,0,4,0.7,4,4.2c0,3-1.8,5.6-4,5.6s-4-2.6-4-5.6C951,1304.3,953.1,1303.5,954.9,1303.5z M996,1315.6c-1.3-0.3-2.6-0.5-3.9-0.7
			c2.2-1.7,3.5-4.4,3.4-7.2c0-4.1-2.5-6.7-6.5-6.7c-4,0-6.5,2.6-6.5,6.7c-0.1,2.8,1.2,5.5,3.4,7.2c-1.3,0.1-2.6,0.4-3.9,0.7
			c-3.8,1-5.9,3.1-5.9,5.9c0,0.7,0.6,1.3,1.3,1.3s1.3-0.6,1.3-1.3c0-2,2.2-3,4-3.5c4.2-1.1,8.6-1.1,12.8,0c1.5,0.4,4,1.3,4,3.5v7.5
			c0,0.7,0.6,1.3,1.3,1.3s1.3-0.6,1.3-1.3v-7.5C1001.8,1318.7,999.7,1316.5,996,1315.6z M988.9,1303.5c1.8,0,4,0.7,4,4.2
			c0,3-1.8,5.6-4,5.6s-4-2.6-4-5.6C985,1304.3,987.1,1303.5,988.9,1303.5z M909.3,1330.3c0.7,0,1.3-0.6,1.3-1.3v-7.5
			c0-2,2.2-3,4-3.5c4.2-1.1,8.6-1.1,12.8,0c1.5,0.4,4,1.3,4,3.5c0,0.7,0.6,1.3,1.3,1.3c0.7,0,1.3-0.6,1.3-1.3l0,0
			c0-2.8-2.1-5-5.9-5.9c-1.3-0.3-2.6-0.5-3.9-0.7c2.2-1.7,3.5-4.4,3.4-7.2c0-4.1-2.5-6.7-6.5-6.7s-6.5,2.6-6.5,6.7
			c-0.1,2.8,1.2,5.5,3.4,7.2c-1.3,0.1-2.6,0.4-3.9,0.7c-3.8,1-5.9,3.1-5.9,5.9v7.5C908,1329.7,908.6,1330.3,909.3,1330.3
			L909.3,1330.3z M920.9,1303.5c1.8,0,4,0.7,4,4.2c0,3-1.8,5.6-4,5.6s-4-2.6-4-5.6C916.9,1304.3,919.1,1303.5,920.9,1303.5z"/>
	</g>
	<g id="médicos">
		<g class="st10">
			<path class="st14" d="M658.5,1431.1c0,0.8-0.5,0.9-1.9,0.9c-1.4,0-1.9-0.1-1.9-0.9c0-4.1-0.4-8.9-1.1-13.2
				c-2,3.2-3.5,7.3-4.2,10.9c-0.1,0.5-0.5,0.6-1.6,0.6c-1.1,0-1.6-0.1-1.7-0.6c-0.7-3.6-2.3-7.7-4.2-10.9c-0.7,4.3-1,9.2-1,13.2
				c0,0.8-0.5,0.9-1.9,0.9c-1.4,0-1.9-0.1-1.9-0.9c0-5.3,0.8-11.5,1.9-16.9c0.2-0.9,0.7-1,1.9-1c1.2,0,1.5,0.1,1.8,0.5
				c2,2.5,3.9,6.5,4.9,10h0.2c1-3.4,2.9-7.4,4.9-10c0.3-0.4,0.7-0.5,1.8-0.5c1.2,0,1.7,0.1,1.9,0.9
				C657.7,1419.6,658.5,1425.8,658.5,1431.1z"/>
			<path class="st14" d="M674.5,1430.4c0,1.2-0.1,1.6-0.9,1.6h-10.4c-0.6,0-0.9-0.3-0.9-0.9v-16.8c0-0.6,0.3-0.9,0.9-0.9h10.2
				c0.8,0,0.8,0.4,0.8,1.6c0,1.2-0.1,1.6-0.8,1.6h-7.3v4.4h5.7c0.8,0,0.8,0.4,0.8,1.5c0,1.2-0.1,1.6-0.8,1.6h-5.7v4.9h7.5
				C674.4,1428.9,674.5,1429.3,674.5,1430.4z M666.4,1411.5c-0.3-0.6-0.4-0.9,0.1-1.2l3.5-2.6c0.5-0.4,0.9-0.6,1.3-0.6
				c1,0,1.7,1.3,1.7,2.1c0,0.4-0.2,0.7-0.7,0.9l-4.9,1.9C666.8,1412.2,666.7,1412.1,666.4,1411.5z"/>
			<path class="st14" d="M677.4,1431.1v-16.8c0-0.6,0.3-0.9,0.9-0.9h5.3c5.7,0,8.8,2.5,8.8,9.4s-3.1,9.4-8.8,9.4h-5.3
				C677.7,1432,677.4,1431.7,677.4,1431.1z M683.6,1428.9c3.3,0,4.9-1.6,4.9-6.3s-1.6-6.3-4.9-6.3h-2.4v12.5H683.6z"/>
			<path class="st14" d="M695.5,1431.1v-17c0-0.8,0.5-0.9,1.9-0.9c1.4,0,1.9,0.1,1.9,0.9v17c0,0.8-0.5,0.9-1.9,0.9
				C696,1432.1,695.5,1431.9,695.5,1431.1z"/>
			<path class="st14" d="M710.6,1413c1.2,0,2.3,0.1,3.7,0.5c1.1,0.3,1.5,0.9,1.5,1.7c0,0.9-0.4,1.9-1,1.9c-0.5,0-1.8-0.9-4.1-0.9
				c-2.8,0-4.4,1.9-4.4,6.4c0,4.6,1.7,6.6,4.4,6.6c2.2,0,3.8-0.9,4.3-0.9c0.6,0,1,1,1,1.9c0,0.8-0.4,1.4-1.5,1.7
				c-1.4,0.4-2.6,0.5-3.8,0.5c-5,0-8.2-3.1-8.2-9.8C702.4,1415.9,705.7,1413,710.6,1413z"/>
			<path class="st14" d="M717.9,1422.6c0-6.6,3-9.6,8.1-9.6c5.1,0,8.1,3,8.1,9.6c0,6.7-3,9.8-8.1,9.8
				C720.9,1432.3,717.9,1429.2,717.9,1422.6z M730.2,1422.6c0-4.5-1.5-6.4-4.2-6.4s-4.2,1.9-4.2,6.4c0,4.6,1.4,6.6,4.2,6.6
				S730.2,1427.1,730.2,1422.6z"/>
			<path class="st14" d="M743.3,1416.3c-2.1,0-2.7,0.8-2.7,2s0.9,1.8,3.4,2.4c3.7,0.9,5.7,2.5,5.7,5.7c0,3.3-2.6,5.9-7.3,5.9
				c-1.8,0-3.3-0.3-4.6-0.8c-1.1-0.4-1.4-1-1.4-1.9c0-0.9,0.4-1.9,1.1-1.9c0.7,0,2.2,1.2,5.1,1.2c2.2,0,3-0.8,3-2.1
				c0-1.2-0.8-2-3.6-2.7c-3.4-0.8-5.5-2.5-5.5-5.5c0-3.2,2.2-5.7,6.8-5.7c1.5,0,2.7,0.2,3.9,0.5c1.2,0.3,1.5,0.9,1.5,1.8
				s-0.4,2-1.1,2C747.1,1417.2,745.7,1416.3,743.3,1416.3z"/>
		</g>
		<g id="Doctor-Surgeon-Mask-Avatar-Medical" transform="translate(653 1290)">
			<path id="Caminho_28625" class="st14" d="M59.9,50.3l-3.8-1.2c-0.4-3.4-3.3-6.1-6.8-6.1h-2.7v-1.7c4.6-2.4,7.7-6.9,8.1-12h0.1
				c3,0,5.5-2.5,5.5-5.5s-2.5-5.5-5.5-5.5c0,0,0,0,0,0V8.8C54.8,5.1,51.8,2,48,2c0,0,0,0,0,0H31.5c-3.8,0-6.8,3.1-6.8,6.8v9.6
				c-3,0-5.5,2.5-5.5,5.5c0,3,2.5,5.5,5.5,5.5h0.1c0.5,5.1,3.6,9.7,8.1,12v1.7h-2.7c-3.5,0-6.4,2.6-6.8,6.1l-3.8,1.2
				c-5.2,1.6-8.7,6.4-8.7,11.8v20.7c0,0.8,0.6,1.4,1.4,1.4c0,0,0,0,0,0h54.8c0.8,0,1.4-0.6,1.4-1.4c0,0,0,0,0,0V62.1
				C68.5,56.7,65,51.9,59.9,50.3L59.9,50.3z M54.8,21.2c1.5,0,2.7,1.2,2.7,2.7s-1.2,2.7-2.7,2.7V21.2z M24.7,26.7
				c-1.5,0-2.7-1.2-2.7-2.7s1.2-2.7,2.7-2.7l0,0V26.7z M49.3,45.8c1.6,0,3,0.9,3.7,2.4l-6.5-2v-0.4H49.3z M46.6,33.5
				c0,3.8-3.1,6.8-6.8,6.8c-3.8,0-6.9-3.1-6.9-6.8v-3.1c2.2-0.6,4.5-1,6.8-1c2.3,0.1,4.6,0.4,6.8,1L46.6,33.5z M52.1,28
				c0,3-1.1,5.9-3.1,8.2c0.3-0.9,0.4-1.8,0.4-2.7v-3.7l2.7-4.8L52.1,28z M27.4,8.8c0-2.3,1.8-4.1,4.1-4.1H48c2.3,0,4.1,1.8,4.1,4.1
				v7.1c-0.4-0.2-0.9-0.2-1.4-0.2H28.8c-0.5,0-0.9,0.1-1.4,0.2L27.4,8.8z M27.4,28V25l2.7,4.8v3.7c0,0.9,0.1,1.8,0.4,2.7
				C28.6,34,27.4,31,27.4,28L27.4,28z M32.2,27.8l-4.7-8.2c0.1-0.6,0.7-1.1,1.3-1.1h21.9c0.6,0,1.2,0.5,1.3,1.1l-4.7,8.2
				c-2.5-0.7-5-1.1-7.6-1.1C37.2,26.7,34.7,27.1,32.2,27.8L32.2,27.8z M34.7,48.5c0.6-0.2,1-0.7,1-1.3v-4.7c1,0.3,2.1,0.5,3.1,0.5
				c0.6,0.1,1.3,0.1,1.9,0c1.1-0.1,2.1-0.2,3.1-0.5v4.7c0,0.6,0.4,1.1,1,1.3l4.2,1.3c-1.4,5.1-6.7,8.1-11.8,6.6
				c-3.2-0.9-5.7-3.4-6.6-6.6L34.7,48.5z M30.2,45.8h2.7v0.4l-6.5,2C27.1,46.8,28.6,45.8,30.2,45.8z M24.7,63.6
				c1.5,0,2.7,1.2,2.7,2.7c0,1.5-1.2,2.7-2.7,2.7c-1.5,0-2.7-1.2-2.7-2.7S23.2,63.6,24.7,63.6L24.7,63.6z M65.8,81.4h-8.2v-8.2h-2.7
				v8.2H24.7v-8.2H22v8.2h-8.2V62.1c0-4.2,2.7-7.9,6.7-9.1l2.9-0.9v9c-2.9,0.8-4.7,3.7-3.9,6.7c0.8,2.9,3.7,4.7,6.7,3.9
				S30.8,68,30,65c-0.5-1.9-2-3.4-3.9-3.9v-9.9l1.9-0.6c1.9,6.5,8.7,10.3,15.2,8.4c4.1-1.2,7.2-4.4,8.4-8.4l1.9,0.6v7
				c-3.8,0-6.8,3.1-6.8,6.8c0,0,0,0,0,0v5.5c0,0.8,0.6,1.4,1.4,1.4l0,0h2.7v-2.7h-1.4V65c0-2.3,1.8-4.1,4.1-4.1h2.7
				c2.3,0,4.1,1.8,4.1,4.1v4.1h-1.4v2.7h2.7c0.8,0,1.4-0.6,1.4-1.4l0,0V65c0-3.8-3.1-6.8-6.8-6.8v-6.1l2.9,0.9c4,1.2,6.7,5,6.7,9.2
				L65.8,81.4z"/>
			<circle id="Elipse_24" class="st14" cx="34.5" cy="22.5" r="2.5"/>
			<ellipse id="Elipse_25" class="st14" cx="45" cy="22.5" rx="3" ry="2.5"/>
			<path id="Caminho_28626" class="st14" d="M38.4,13h2.7v-1.4h1.4V8.8h-1.4V7.5h-2.7v1.4H37v2.7h1.4V13z"/>
		</g>
	</g>
</g>
</svg>
