<svg xmlns="http://www.w3.org/2000/svg" width="76" height="71.25" viewBox="0 0 76 71.25"><defs><style>.a{fill:#330c95;}.b{fill:#1dd1a1;}</style></defs><g transform="translate(0 -16)"><g transform="translate(57.297 48.656)"><path class="a" d="M387.484,236a1.484,1.484,0,1,0,1.484,1.484A1.485,1.485,0,0,0,387.484,236Z" transform="translate(-386 -236)"/></g><g transform="translate(15.734 48.656)"><path class="a" d="M107.484,236a1.484,1.484,0,1,0,1.484,1.484A1.485,1.485,0,0,0,107.484,236Z" transform="translate(-106 -236)"/></g><g transform="translate(23.156 45.688)"><path class="b" d="M184.2,224.906h-7.422v-7.422A1.485,1.485,0,0,0,175.3,216h-8.906a1.485,1.485,0,0,0-1.484,1.484v7.422h-7.422A1.485,1.485,0,0,0,156,226.391V235.3a1.485,1.485,0,0,0,1.484,1.484h7.422V244.2a1.485,1.485,0,0,0,1.484,1.484H175.3a1.485,1.485,0,0,0,1.484-1.484v-7.422H184.2a1.485,1.485,0,0,0,1.484-1.484v-8.906A1.485,1.485,0,0,0,184.2,224.906Zm-1.484,8.906H175.3a1.485,1.485,0,0,0-1.484,1.484v7.422h-5.937V235.3a1.485,1.485,0,0,0-1.484-1.484h-7.422v-5.937h7.422a1.485,1.485,0,0,0,1.484-1.484v-7.422h5.938v7.422a1.485,1.485,0,0,0,1.484,1.484h7.422Z" transform="translate(-156 -216)"/></g><g transform="translate(0 16)"><path class="a" d="M68.578,33.813H57.3V24.906A8.916,8.916,0,0,0,48.391,16H27.609A8.916,8.916,0,0,0,18.7,24.906v8.906H7.422A7.43,7.43,0,0,0,0,41.234V79.828A7.43,7.43,0,0,0,7.422,87.25H68.578A7.43,7.43,0,0,0,76,79.828V41.234A7.43,7.43,0,0,0,68.578,33.813ZM21.672,24.906a5.944,5.944,0,0,1,5.938-5.937H48.391a5.944,5.944,0,0,1,5.938,5.938v8.906H51.359V26.391a4.458,4.458,0,0,0-4.453-4.453H29.094a4.458,4.458,0,0,0-4.453,4.453v7.422H21.672Zm26.719,1.484v7.422H27.609V26.391a1.486,1.486,0,0,1,1.484-1.484H46.906A1.486,1.486,0,0,1,48.391,26.391ZM9.8,84.281H7.422a4.458,4.458,0,0,1-4.453-4.453V41.234a4.458,4.458,0,0,1,4.453-4.453H9.8Zm53.438,0H60.266v-28.2a1.484,1.484,0,0,0-2.969,0v28.2H18.7v-28.2a1.484,1.484,0,1,0-2.969,0v28.2H12.766v-47.5h2.969V44.2a1.484,1.484,0,1,0,2.969,0V36.781H57.3V44.2a1.484,1.484,0,0,0,2.969,0V36.781h2.969Zm9.8-4.453a4.458,4.458,0,0,1-4.453,4.453H66.2v-47.5h2.375a4.458,4.458,0,0,1,4.453,4.453Z" transform="translate(0 -16)"/></g></g></svg>