<svg xmlns="http://www.w3.org/2000/svg" width="21.088" height="14.498" viewBox="0 0 21.088 14.498">
  <defs>
    <style>
      .cls-1 {
        fill: #bfbfbf;
      }
    </style>
  </defs>
  <g id="email" transform="translate(-373.452 -3855.536)">
    <g id="Grupo_9911" data-name="Grupo 9911" transform="translate(387.431 3858.209)">
      <g id="Grupo_9910" data-name="Grupo 9910" transform="translate(0 0)">
        <path id="Caminho_23325" data-name="Caminho 23325" class="cls-1" d="M339.392,149.584l7.109,4.494V144.9Z" transform="translate(-339.392 -144.9)"/>
      </g>
    </g>
    <g id="Grupo_9913" data-name="Grupo 9913" transform="translate(373.452 3858.209)">
      <g id="Grupo_9912" data-name="Grupo 9912" transform="translate(0 0)">
        <path id="Caminho_23326" data-name="Caminho 23326" class="cls-1" d="M0,144.9v9.179l7.109-4.494Z" transform="translate(0 -144.9)"/>
      </g>
    </g>
    <g id="Grupo_9915" data-name="Grupo 9915" transform="translate(373.491 3855.536)">
      <g id="Grupo_9914" data-name="Grupo 9914" transform="translate(0)">
        <path id="Caminho_23327" data-name="Caminho 23327" class="cls-1" d="M20.691,80H2.239A1.3,1.3,0,0,0,.96,81.122l10.5,6.921,10.5-6.921A1.3,1.3,0,0,0,20.691,80Z" transform="translate(-0.96 -80)"/>
      </g>
    </g>
    <g id="Grupo_9917" data-name="Grupo 9917" transform="translate(373.494 3863.688)">
      <g id="Grupo_9916" data-name="Grupo 9916">
        <path id="Caminho_23328" data-name="Caminho 23328" class="cls-1" d="M13.754,277.921l-1.865,1.228a.662.662,0,0,1-.725,0L9.3,277.92l-8.275,5.234A1.3,1.3,0,0,0,2.3,284.266H20.753a1.3,1.3,0,0,0,1.276-1.112Z" transform="translate(-1.024 -277.92)"/>
      </g>
    </g>
  </g>
</svg>
