<svg xmlns="http://www.w3.org/2000/svg" width="76" height="76" viewBox="0 0 76 76"><defs><style>.a{fill:#330c95;}</style></defs><path class="a" d="M477.3,497h-3.627a1.113,1.113,0,0,0,0,2.227H477.3a1.113,1.113,0,0,0,0-2.227Zm0,0" transform="translate(-402.417 -423.227)"/><path class="a" d="M74.887,6.68A1.113,1.113,0,0,0,76,5.566V1.113A1.113,1.113,0,0,0,74.887,0H1.113A1.113,1.113,0,0,0,0,1.113V5.566A1.113,1.113,0,0,0,1.113,6.68h8.4V7.5H6.179A1.113,1.113,0,0,0,5.065,8.609v.148H1.113A1.113,1.113,0,0,0,0,9.871v32.86a1.113,1.113,0,0,0,2.227,0V10.984H5.065v3.563A1.113,1.113,0,0,0,6.179,15.66h8.906A1.113,1.113,0,0,0,16.2,14.547V10.984H32.434v3.563a1.113,1.113,0,0,0,1.113,1.113h8.906a1.113,1.113,0,0,0,1.113-1.113V10.984h8.7a1.113,1.113,0,0,0,0-2.227h-8.7V8.609A1.113,1.113,0,0,0,42.453,7.5h-3.34V6.68H64.255V7.5h-3.34A1.113,1.113,0,0,0,59.8,8.609v.148H56.951a1.113,1.113,0,0,0,0,2.227H59.8v3.563a1.113,1.113,0,0,0,1.113,1.113h8.906a1.113,1.113,0,0,0,1.113-1.113V10.984h2.839V50.32H2.227V47.481a1.113,1.113,0,0,0-2.227,0v3.952a1.113,1.113,0,0,0,1.113,1.113H12.135V73.773H1.113a1.113,1.113,0,0,0,0,2.227H66.472a1.113,1.113,0,0,0,0-2.227H63.865V52.547H74.887A1.113,1.113,0,0,0,76,51.434V9.871a1.113,1.113,0,0,0-1.113-1.113H70.935V8.609A1.113,1.113,0,0,0,69.821,7.5H66.482V6.68Zm-17.7,45.867V73.773H18.814V52.547ZM14.361,73.773V52.547h2.227V73.773Zm47.277,0H59.412V52.547h2.227Zm7.069-60.34h-6.68V9.886s0-.01,0-.014,0-.009,0-.014V9.723h6.68ZM2.227,2.227H73.773V4.453H2.227ZM7.292,13.434V9.723h6.68v.134s0,.01,0,.014,0,.009,0,.014v3.548Zm34.048,0H34.66V9.723h6.68ZM36.887,7.5h-3.34a1.113,1.113,0,0,0-1.113,1.113v.148H16.2V8.609A1.113,1.113,0,0,0,15.085,7.5h-3.34V6.68H36.887Zm0,0"/></svg>