<svg xmlns="http://www.w3.org/2000/svg" width="76" height="76" viewBox="0 0 76 76">
  <defs>
    <style>
      .cls-1 {
        fill: #1dd1a1;
      }

      .cls-2 {
        fill: #330c95;
      }
    </style>
  </defs>
  <g id="evento" transform="translate(-374 -2193)">
    <path id="Caminho_28512" data-name="Caminho 28512" class="cls-1" d="M39.353,11.734h-3.5V9.422h2.665c.353,0,.4-.183.4-.73s-.049-.718-.4-.718H35.849V5.894h3.419c.353,0,.4-.183.4-.73s-.049-.73-.4-.73H34.5a.4.4,0,0,0-.438.438v7.884a.4.4,0,0,0,.438.438h4.855c.353,0,.389-.183.389-.73S39.705,11.734,39.353,11.734ZM46.847,4.41c-.681,0-.9.049-.913.45a14.025,14.025,0,0,1-1.752,6.7,14.025,14.025,0,0,1-1.752-6.7c-.012-.4-.243-.45-.913-.45s-.913.049-.913.45a15.813,15.813,0,0,0,2.519,8.006c.231.316.426.365,1.059.365s.84-.049,1.071-.365A15.915,15.915,0,0,0,47.76,4.86C47.76,4.458,47.529,4.41,46.847,4.41Zm7.58,7.325h-3.5V9.422h2.665c.353,0,.4-.183.4-.73s-.049-.718-.4-.718H50.923V5.894h3.419c.353,0,.4-.183.4-.73s-.049-.73-.4-.73H49.573a.4.4,0,0,0-.438.438v7.884a.4.4,0,0,0,.438.438h4.855c.353,0,.389-.183.389-.73S54.78,11.734,54.428,11.734ZM62.141,4.41c-.657,0-.876.049-.876.438V8.863A15.148,15.148,0,0,0,57.64,4.58a1.063,1.063,0,0,0-.718-.17c-.548,0-.742.049-.742.438v7.933c0,.389.219.438.876.438s.888-.049.888-.438V6.928a13.842,13.842,0,0,1,3.565,6.01c.061.219.195.28.754.28s.754-.049.754-.438V4.848C63.017,4.458,62.8,4.41,62.141,4.41Zm8.821.024H64.49c-.353,0-.4.195-.4.767s.049.767.4.767h2.324v6.814c0,.389.219.438.9.438s.888-.049.888-.438V5.967h2.36c.353,0,.4-.195.4-.767S71.315,4.434,70.962,4.434Zm4.514,8.906c2.4,0,3.784-1.448,3.784-4.563s-1.387-4.49-3.784-4.49S71.7,5.675,71.7,8.778,73.092,13.34,75.476,13.34Zm0-1.484c-1.278,0-1.947-.937-1.947-3.078s.669-3.005,1.947-3.005,1.959.876,1.959,3.005S76.754,11.856,75.476,11.856Z" transform="translate(355.12 2215.426)"/>
    <g id="event" transform="translate(374 2193)">
      <path id="Caminho_28510" data-name="Caminho 28510" class="cls-2" d="M477.3,497h-3.627a1.113,1.113,0,0,0,0,2.227H477.3a1.113,1.113,0,0,0,0-2.227Zm0,0" transform="translate(-402.417 -423.227)"/>
      <path id="Caminho_28511" data-name="Caminho 28511" class="cls-2" d="M74.887,6.68A1.113,1.113,0,0,0,76,5.566V1.113A1.113,1.113,0,0,0,74.887,0H1.113A1.113,1.113,0,0,0,0,1.113V5.566A1.113,1.113,0,0,0,1.113,6.68h8.4V7.5H6.179A1.113,1.113,0,0,0,5.065,8.609v.148H1.113A1.113,1.113,0,0,0,0,9.871v32.86a1.113,1.113,0,0,0,2.227,0V10.984H5.065v3.563A1.113,1.113,0,0,0,6.179,15.66h8.906A1.113,1.113,0,0,0,16.2,14.547V10.984H32.434v3.563a1.113,1.113,0,0,0,1.113,1.113h8.906a1.113,1.113,0,0,0,1.113-1.113V10.984h8.7a1.113,1.113,0,0,0,0-2.227h-8.7V8.609A1.113,1.113,0,0,0,42.453,7.5h-3.34V6.68H64.255V7.5h-3.34A1.113,1.113,0,0,0,59.8,8.609v.148H56.951a1.113,1.113,0,0,0,0,2.227H59.8v3.563a1.113,1.113,0,0,0,1.113,1.113h8.906a1.113,1.113,0,0,0,1.113-1.113V10.984h2.839V50.32H2.227V47.481a1.113,1.113,0,0,0-2.227,0v3.952a1.113,1.113,0,0,0,1.113,1.113H12.135V73.773H1.113a1.113,1.113,0,0,0,0,2.227H66.472a1.113,1.113,0,0,0,0-2.227H63.865V52.547H74.887A1.113,1.113,0,0,0,76,51.434V9.871a1.113,1.113,0,0,0-1.113-1.113H70.935V8.609A1.113,1.113,0,0,0,69.821,7.5H66.482V6.68Zm-17.7,45.867V73.773H18.814V52.547ZM14.361,73.773V52.547h2.227V73.773Zm47.277,0H59.412V52.547h2.227Zm7.069-60.34h-6.68V9.886s0-.01,0-.014,0-.009,0-.014V9.723h6.68ZM2.227,2.227H73.773V4.453H2.227ZM7.292,13.434V9.723h6.68v.134s0,.01,0,.014,0,.009,0,.014v3.548Zm34.048,0H34.66V9.723h6.68ZM36.887,7.5h-3.34a1.113,1.113,0,0,0-1.113,1.113v.148H16.2V8.609A1.113,1.113,0,0,0,15.085,7.5h-3.34V6.68H36.887Zm0,0"/>
    </g>
  </g>
</svg>
