<svg xmlns="http://www.w3.org/2000/svg" width="144" height="163" viewBox="0 0 144 163">
  <defs>
    <style>
      .cls-1, .cls-2 {
        fill: #2abea6;
      }

      .cls-1 {
        font-size: 26px;
        font-family: Helvetica-Bold, Helvetica;
        font-weight: 700;
      }
    </style>
  </defs>
  <g id="força_de_vendas" transform="translate(-350 -1289)">
    <text id="FORÇA_DE_VENDAS-2" data-name="FORÇA DE 
VENDAS" class="cls-1" transform="translate(422 1418)"><tspan x="-71.024" y="0">FORÇA DE </tspan><tspan x="-54.177" y="28">VENDAS</tspan></text>
    <g id="group_1_" data-name="group (1)" transform="translate(376.98 1288.798)">
      <g id="Grupo_10362" data-name="Grupo 10362" transform="translate(21.915 3.809)">
        <g id="Grupo_10361" data-name="Grupo 10361">
          <path id="Caminho_28605" data-name="Caminho 28605" class="cls-2" d="M130.923,21.428a1.478,1.478,0,0,0-1.943-.768,45.459,45.459,0,0,0-4.711,2.379,1.478,1.478,0,1,0,1.483,2.556,42.445,42.445,0,0,1,4.4-2.223A1.478,1.478,0,0,0,130.923,21.428Z" transform="translate(-123.532 -20.537)"/>
        </g>
      </g>
      <g id="Grupo_10364" data-name="Grupo 10364" transform="translate(51.494 0.85)">
        <g id="Grupo_10363" data-name="Grupo 10363">
          <path id="Caminho_28606" data-name="Caminho 28606" class="cls-2" d="M297.151,5.079a45.272,45.272,0,0,0-5.141-1.2,1.478,1.478,0,0,0-.505,2.912,42.349,42.349,0,0,1,4.8,1.126,1.478,1.478,0,0,0,.842-2.833Z" transform="translate(-290.279 -3.852)"/>
        </g>
      </g>
      <g id="Grupo_10366" data-name="Grupo 10366" transform="translate(41.312 0.202)">
        <g id="Grupo_10365" data-name="Grupo 10365">
          <path id="Caminho_28607" data-name="Caminho 28607" class="cls-2" d="M239.548.273C238.7.226,237.836.2,236.982.2h0c-.9,0-1.81.027-2.706.08a1.478,1.478,0,0,0,.085,2.953c.029,0,.059,0,.088,0,.839-.049,1.691-.075,2.532-.075h0c.8,0,1.608.023,2.4.067a1.478,1.478,0,0,0,.165-2.951Z" transform="translate(-232.88 -0.202)"/>
        </g>
      </g>
      <g id="Grupo_10368" data-name="Grupo 10368" transform="translate(86.676 33.916)">
        <g id="Grupo_10367" data-name="Grupo 10367">
          <path id="Caminho_28608" data-name="Caminho 28608" class="cls-2" d="M492.438,196.587a45.427,45.427,0,0,0-.922-5.2,1.478,1.478,0,1,0-2.875.685,42.507,42.507,0,0,1,.862,4.86,1.478,1.478,0,0,0,1.465,1.305,1.493,1.493,0,0,0,.175-.01A1.478,1.478,0,0,0,492.438,196.587Z" transform="translate(-488.601 -190.252)"/>
        </g>
      </g>
      <g id="Grupo_10370" data-name="Grupo 10370" transform="translate(85.233 54.267)">
        <g id="Grupo_10369" data-name="Grupo 10369">
          <path id="Caminho_28609" data-name="Caminho 28609" class="cls-2" d="M483.753,305.018a1.478,1.478,0,0,0-1.778,1.1,42.346,42.346,0,0,1-1.414,4.731,1.478,1.478,0,1,0,2.777,1.01,45.273,45.273,0,0,0,1.513-5.063A1.478,1.478,0,0,0,483.753,305.018Z" transform="translate(-480.472 -304.978)"/>
        </g>
      </g>
      <g id="Grupo_10372" data-name="Grupo 10372" transform="translate(61.272 3.755)">
        <g id="Grupo_10371" data-name="Grupo 10371">
          <path id="Caminho_28610" data-name="Caminho 28610" class="cls-2" d="M352.183,22.715a45.4,45.4,0,0,0-4.723-2.366,1.478,1.478,0,1,0-1.167,2.715,42.481,42.481,0,0,1,4.414,2.212,1.478,1.478,0,1,0,1.475-2.56Z" transform="translate(-345.398 -20.228)"/>
        </g>
      </g>
      <g id="Grupo_10374" data-name="Grupo 10374" transform="translate(1.185 54.313)">
        <g id="Grupo_10373" data-name="Grupo 10373">
          <path id="Caminho_28611" data-name="Caminho 28611" class="cls-2" d="M11.007,311.1a42.309,42.309,0,0,1-1.418-4.727,1.478,1.478,0,0,0-2.876.682,45.248,45.248,0,0,0,1.517,5.059,1.478,1.478,0,0,0,2.776-1.014Z" transform="translate(-6.674 -305.235)"/>
        </g>
      </g>
      <g id="Grupo_10376" data-name="Grupo 10376" transform="translate(31.269 0.874)">
        <g id="Grupo_10375" data-name="Grupo 10375">
          <path id="Caminho_28612" data-name="Caminho 28612" class="cls-2" d="M184.168,5.211a1.478,1.478,0,0,0-1.712-1.2,45.291,45.291,0,0,0-5.138,1.221,1.478,1.478,0,1,0,.851,2.83,42.343,42.343,0,0,1,4.8-1.141A1.477,1.477,0,0,0,184.168,5.211Z" transform="translate(-176.265 -3.99)"/>
        </g>
      </g>
      <g id="Grupo_10378" data-name="Grupo 10378" transform="translate(87.578 44.044)">
        <g id="Grupo_10377" data-name="Grupo 10377">
          <path id="Caminho_28613" data-name="Caminho 28613" class="cls-2" d="M495.46,247.347a1.477,1.477,0,0,0-1.477,1.478v.093a43.124,43.124,0,0,1-.283,4.929,1.478,1.478,0,1,0,2.936.34,46.071,46.071,0,0,0,.3-5.269v-.093A1.478,1.478,0,0,0,495.46,247.347Z" transform="translate(-493.69 -247.347)"/>
        </g>
      </g>
      <g id="Grupo_10380" data-name="Grupo 10380" transform="translate(46.513 87.408)">
        <g id="Grupo_10379" data-name="Grupo 10379">
          <path id="Caminho_28614" data-name="Caminho 28614" class="cls-2" d="M270.2,493.022a1.477,1.477,0,0,0-1.711-1.2,42.735,42.735,0,0,1-4.9.57,1.477,1.477,0,0,0,.084,2.953l.087,0a45.638,45.638,0,0,0,5.244-.609A1.477,1.477,0,0,0,270.2,493.022Z" transform="translate(-262.197 -491.8)"/>
        </g>
      </g>
      <g id="Grupo_10382" data-name="Grupo 10382" transform="translate(36.331 87.416)">
        <g id="Grupo_10381" data-name="Grupo 10381">
          <path id="Caminho_28615" data-name="Caminho 28615" class="cls-2" d="M211.434,492.432a42.773,42.773,0,0,1-4.9-.564,1.478,1.478,0,1,0-.508,2.911,45.7,45.7,0,0,0,5.244.6l.085,0a1.478,1.478,0,0,0,.082-2.953Z" transform="translate(-204.799 -491.845)"/>
        </g>
      </g>
      <g id="Grupo_10384" data-name="Grupo 10384" transform="translate(26.556 84.5)">
        <g id="Grupo_10383" data-name="Grupo 10383">
          <path id="Caminho_28616" data-name="Caminho 28616" class="cls-2" d="M156.4,477.215a42.241,42.241,0,0,1-4.64-1.686,1.478,1.478,0,0,0-1.17,2.714,45.292,45.292,0,0,0,4.966,1.8,1.477,1.477,0,1,0,.844-2.832Z" transform="translate(-149.695 -475.408)"/>
        </g>
      </g>
      <g id="Grupo_10386" data-name="Grupo 10386" transform="translate(0.288 34.052)">
        <g id="Grupo_10385" data-name="Grupo 10385">
          <path id="Caminho_28617" data-name="Caminho 28617" class="cls-2" d="M4.309,191.062a1.477,1.477,0,0,0-1.777,1.1,45.477,45.477,0,0,0-.9,5.2,1.478,1.478,0,0,0,2.936.336,42.47,42.47,0,0,1,.846-4.862A1.477,1.477,0,0,0,4.309,191.062Z" transform="translate(-1.618 -191.022)"/>
        </g>
      </g>
      <g id="Grupo_10388" data-name="Grupo 10388" transform="translate(56.557 84.483)">
        <g id="Grupo_10387" data-name="Grupo 10387">
          <path id="Caminho_28618" data-name="Caminho 28618" class="cls-2" d="M326.452,476.2a1.477,1.477,0,0,0-1.943-.77,42.352,42.352,0,0,1-4.637,1.69,1.478,1.478,0,1,0,.848,2.831,45.289,45.289,0,0,0,4.962-1.809A1.478,1.478,0,0,0,326.452,476.2Z" transform="translate(-318.819 -475.31)"/>
        </g>
      </g>
      <g id="Grupo_10390" data-name="Grupo 10390" transform="translate(0.001 44.184)">
        <g id="Grupo_10389" data-name="Grupo 10389">
          <path id="Caminho_28619" data-name="Caminho 28619" class="cls-2" d="M3.244,254.541a43.084,43.084,0,0,1-.288-4.929,1.477,1.477,0,0,0-1.478-1.476h0A1.478,1.478,0,0,0,0,249.615a46.059,46.059,0,0,0,.308,5.269,1.478,1.478,0,0,0,1.466,1.306,1.51,1.51,0,0,0,.173-.01A1.478,1.478,0,0,0,3.244,254.541Z" transform="translate(-0.001 -248.136)"/>
        </g>
      </g>
      <g id="Grupo_10392" data-name="Grupo 10392" transform="translate(0.835 5.977)">
        <g id="Grupo_10391" data-name="Grupo 10391">
          <path id="Caminho_28620" data-name="Caminho 28620" class="cls-2" d="M27.484,47.8a1.333,1.333,0,1,0-2.523.861,8.011,8.011,0,0,1,.428,2.593v3.56a.475.475,0,0,1-.474.474H7.842a.475.475,0,0,1-.474-.474v-3.56a8.04,8.04,0,0,1,2.673-5.979A7.8,7.8,0,1,0,8.8,42.834a10.707,10.707,0,0,0-4.1,8.417v3.56a3.144,3.144,0,0,0,3.141,3.14H24.915a3.144,3.144,0,0,0,3.141-3.141v-3.56A10.679,10.679,0,0,0,27.484,47.8ZM16.291,35.424a5.154,5.154,0,1,1-5.153,5.154A5.159,5.159,0,0,1,16.291,35.424Z" transform="translate(-4.702 -32.758)"/>
        </g>
      </g>
      <g id="Grupo_10394" data-name="Grupo 10394" transform="translate(66.639 5.977)">
        <g id="Grupo_10393" data-name="Grupo 10393">
          <path id="Caminho_28621" data-name="Caminho 28621" class="cls-2" d="M398.435,47.8a1.333,1.333,0,1,0-2.523.861,8.015,8.015,0,0,1,.428,2.593v3.56a.475.475,0,0,1-.474.474H378.793a.475.475,0,0,1-.474-.474v-3.56a8.04,8.04,0,0,1,2.673-5.979,7.8,7.8,0,1,0-1.237-2.438,10.707,10.707,0,0,0-4.1,8.417v3.56a3.144,3.144,0,0,0,3.141,3.141h17.072a3.144,3.144,0,0,0,3.141-3.141v-3.56A10.681,10.681,0,0,0,398.435,47.8ZM387.241,35.425a5.154,5.154,0,1,1-5.153,5.154A5.159,5.159,0,0,1,387.241,35.425Z" transform="translate(-375.653 -32.759)"/>
        </g>
      </g>
      <g id="Grupo_10396" data-name="Grupo 10396" transform="translate(66.639 60.059)">
        <g id="Grupo_10395" data-name="Grupo 10395">
          <path id="Caminho_28622" data-name="Caminho 28622" class="cls-2" d="M398.434,352.665a1.333,1.333,0,1,0-2.523.861,8.013,8.013,0,0,1,.428,2.593v3.56a.475.475,0,0,1-.474.474H378.792a.475.475,0,0,1-.474-.474v-3.56a8.04,8.04,0,0,1,2.673-5.979,7.8,7.8,0,1,0-1.237-2.438,10.707,10.707,0,0,0-4.1,8.418v3.56a3.144,3.144,0,0,0,3.141,3.141h17.072a3.144,3.144,0,0,0,3.141-3.141v-3.56A10.679,10.679,0,0,0,398.434,352.665Zm-11.193-12.372a5.154,5.154,0,1,1-5.153,5.154A5.159,5.159,0,0,1,387.241,340.293Z" transform="translate(-375.652 -337.627)"/>
        </g>
      </g>
      <g id="Grupo_10398" data-name="Grupo 10398" transform="translate(0.835 60.059)">
        <g id="Grupo_10397" data-name="Grupo 10397">
          <path id="Caminho_28623" data-name="Caminho 28623" class="cls-2" d="M27.484,352.665a1.333,1.333,0,1,0-2.523.861,8.01,8.01,0,0,1,.428,2.593v3.56a.475.475,0,0,1-.474.474H7.842a.475.475,0,0,1-.474-.474v-3.56a8.04,8.04,0,0,1,2.673-5.979A7.8,7.8,0,1,0,8.8,347.7a10.707,10.707,0,0,0-4.1,8.418v3.56a3.144,3.144,0,0,0,3.141,3.141H24.915a3.144,3.144,0,0,0,3.141-3.141v-3.56A10.679,10.679,0,0,0,27.484,352.665ZM16.291,340.293a5.154,5.154,0,1,1-5.153,5.154A5.159,5.159,0,0,1,16.291,340.293Z" transform="translate(-4.702 -337.627)"/>
        </g>
      </g>
      <g id="Grupo_10400" data-name="Grupo 10400" transform="translate(21.128 30.885)">
        <g id="Grupo_10399" data-name="Grupo 10399">
          <path id="Caminho_28624" data-name="Caminho 28624" class="cls-2" d="M155.992,173.165H141.806a12.384,12.384,0,0,0-12.2,10.343h-.484A10.184,10.184,0,0,0,119.1,193.82a10.3,10.3,0,0,0,5.7,9.3c1.711,4.145,7.051,6.134,7.287,6.22a1.333,1.333,0,0,0,1.67-1.8,9.647,9.647,0,0,1-.9-3.407H140.3a10.039,10.039,0,0,0,9.208-6.235h2.123a11.587,11.587,0,0,1-1.184,4.6,1.333,1.333,0,0,0,1.651,1.823c.3-.1,7.025-2.531,9.091-7.572a12.366,12.366,0,0,0-5.2-23.586Zm3.645,21.356a1.311,1.311,0,0,0-.762.81c-.748,2.336-3.025,4.074-4.9,5.159a11.974,11.974,0,0,0,.263-4.066,1.337,1.337,0,0,0-1.326-1.193h-11.1a9.63,9.63,0,0,1-3.612-.7,1.326,1.326,0,0,0-1.437.286l-.019.019a1.323,1.323,0,0,0,.443,2.162,12.284,12.284,0,0,0,4.625.9h4.719a7.3,7.3,0,0,1-6.223,3.568h-8.749a1.33,1.33,0,0,0-1.324,1.178,10.059,10.059,0,0,0,.092,2.8,7.552,7.552,0,0,1-3.183-3.67,1.377,1.377,0,0,0-.766-.861,7.62,7.62,0,0,1-4.61-7.091,7.516,7.516,0,0,1,7.361-7.646h.333a12.263,12.263,0,0,0,.874,3.961,1.323,1.323,0,0,0,2.163.448l.02-.02a1.323,1.323,0,0,0,.288-1.431,9.64,9.64,0,0,1-.694-3.818,9.79,9.79,0,0,1,9.835-9.484h13.885a9.862,9.862,0,0,1,9.863,9.731A9.664,9.664,0,0,1,159.637,194.521Z" transform="translate(-119.097 -173.165)"/>
        </g>
      </g>
    </g>
  </g>
</svg>
