<?xml version="1.0" encoding="utf-8"?>
<!-- Generator: Adobe Illustrator 25.0.0, SVG Export Plug-In . SVG Version: 6.00 Build 0)  -->
<svg version="1.1" xmlns="http://www.w3.org/2000/svg" xmlns:xlink="http://www.w3.org/1999/xlink" x="0px" y="0px"
	 viewBox="0 0 847.2 354.4" style="enable-background:new 0 0 847.2 354.4;" xml:space="preserve">
<style type="text/css">
	.st0{enable-background:new    ;}
	.st1{fill:#FFFFFF;}
</style>
<g id="Layer_1">
	<g class="st0">
		<path class="st1" d="M7.6,187.5h9.5v15.6H26v7.7h-8.9v36.5c0,2,0.7,3.3,2,3.9c0.7,0.4,2,0.6,3.7,0.6c0.5,0,0.9,0,1.5,0
			c0.5,0,1.1-0.1,1.8-0.2v7.5c-1.1,0.3-2.2,0.5-3.4,0.7c-1.2,0.1-2.4,0.2-3.8,0.2c-4.4,0-7.4-1.1-8.9-3.4c-1.6-2.2-2.4-5.2-2.4-8.8
			v-37H0v-7.7h7.6V187.5z"/>
	</g>
	<g class="st0">
		<path class="st1" d="M65.9,204.7c3.7,1.9,6.5,4.3,8.5,7.2c1.9,2.8,3.1,6.1,3.7,9.9c0.6,2.6,0.8,6.7,0.8,12.3H38.3
			c0.2,5.7,1.5,10.3,4,13.7c2.5,3.4,6.3,5.2,11.6,5.2c4.9,0,8.8-1.6,11.7-4.9c1.6-1.9,2.8-4.1,3.5-6.6h9.2c-0.2,2.1-1.1,4.3-2.4,6.9
			c-1.4,2.5-2.9,4.6-4.6,6.2c-2.8,2.8-6.3,4.7-10.5,5.6c-2.2,0.6-4.8,0.8-7.6,0.8c-6.9,0-12.8-2.5-17.6-7.6
			c-4.8-5.1-7.2-12.2-7.2-21.3c0-9,2.4-16.3,7.3-21.9c4.8-5.6,11.2-8.4,19-8.4C58.4,201.9,62.2,202.8,65.9,204.7z M69.3,226.6
			c-0.4-4.1-1.3-7.3-2.6-9.8c-2.6-4.5-6.8-6.8-12.8-6.8c-4.3,0-7.9,1.6-10.8,4.7c-2.9,3.1-4.4,7.1-4.6,11.9H69.3z"/>
	</g>
	<g class="st0">
		<path class="st1" d="M124.6,206.1c4,3.1,6.3,8.3,7.1,15.8h-9.1c-0.6-3.4-1.8-6.3-3.8-8.6s-5.2-3.4-9.6-3.4c-6,0-10.3,2.9-12.9,8.8
			c-1.7,3.8-2.5,8.5-2.5,14c0,5.6,1.2,10.3,3.6,14.1c2.4,3.8,6.1,5.7,11.2,5.7c3.9,0,7-1.2,9.3-3.6c2.3-2.4,3.9-5.6,4.7-9.8h9.1
			c-1,7.4-3.7,12.8-7.8,16.3s-9.5,5.1-16,5.1c-7.3,0-13.1-2.7-17.5-8c-4.4-5.3-6.5-12-6.5-20c0-9.8,2.4-17.5,7.2-22.9
			c4.8-5.5,10.8-8.2,18.2-8.2C115.5,201.5,120.7,203,124.6,206.1z"/>
	</g>
	<g class="st0">
		<path class="st1" d="M138.1,182.1h9.4v28.6c2.2-2.8,4.2-4.8,6-6c3-2,6.8-3,11.3-3c8.1,0,13.6,2.8,16.5,8.5
			c1.6,3.1,2.4,7.4,2.4,12.9v35.9H174v-35.3c0-4.1-0.5-7.1-1.6-9c-1.7-3.1-4.9-4.6-9.6-4.6c-3.9,0-7.4,1.3-10.6,4
			c-3.2,2.7-4.8,7.8-4.8,15.2v29.7h-9.4V182.1z"/>
	</g>
	<g class="st0">
		<path class="st1" d="M3.2,59.9h12.7v38.5c3-3.8,5.7-6.5,8.1-8c4.1-2.7,9.2-4,15.3-4c10.9,0,18.3,3.8,22.2,11.5
			c2.1,4.2,3.2,10,3.2,17.4v48.3h-13V116c0-5.5-0.7-9.6-2.1-12.2c-2.3-4.1-6.6-6.2-12.9-6.2c-5.3,0-10,1.8-14.3,5.4
			c-4.3,3.6-6.4,10.4-6.4,20.5v39.9H3.2V59.9z"/>
	</g>
	<g class="st0">
		<path class="st1" d="M119,90.3c5,2.5,8.8,5.8,11.4,9.7c2.5,3.8,4.2,8.2,5,13.3c0.7,3.5,1.1,9,1.1,16.6H81.7
			c0.2,7.7,2,13.8,5.4,18.4s8.5,6.9,15.6,6.9c6.6,0,11.8-2.2,15.7-6.6c2.2-2.5,3.7-5.5,4.6-8.8h12.4c-0.3,2.8-1.4,5.8-3.3,9.2
			c-1.9,3.4-3.9,6.2-6.2,8.3c-3.8,3.8-8.5,6.3-14.2,7.6c-3,0.7-6.4,1.1-10.3,1.1c-9.3,0-17.2-3.4-23.7-10.2s-9.7-16.4-9.7-28.7
			c0-12.1,3.3-21.9,9.8-29.5c6.5-7.5,15-11.3,25.6-11.3C108.8,86.5,114,87.8,119,90.3z M123.5,119.8c-0.5-5.5-1.7-9.9-3.6-13.1
			c-3.4-6.1-9.2-9.1-17.2-9.1c-5.8,0-10.6,2.1-14.5,6.3c-3.9,4.2-6,9.5-6.2,16H123.5z"/>
	</g>
	<g class="st0">
		<path class="st1" d="M183.5,117.9c2.9-0.4,4.9-1.6,5.8-3.6c0.6-1.1,0.8-2.8,0.8-4.9c0-4.3-1.5-7.5-4.6-9.4
			c-3.1-2-7.5-2.9-13.2-2.9c-6.6,0-11.3,1.8-14,5.4c-1.5,2-2.5,4.9-3,8.8h-11.8c0.2-9.3,3.2-15.8,9-19.4c5.8-3.6,12.5-5.5,20.1-5.5
			c8.8,0,16,1.7,21.6,5.1c5.5,3.4,8.2,8.6,8.2,15.8v43.4c0,1.3,0.3,2.4,0.8,3.2c0.5,0.8,1.7,1.2,3.4,1.2c0.6,0,1.2,0,1.9-0.1
			s1.5-0.2,2.2-0.3v9.4c-2,0.6-3.5,0.9-4.5,1.1c-1,0.1-2.4,0.2-4.2,0.2c-4.4,0-7.5-1.5-9.5-4.6c-1-1.6-1.8-4-2.2-7
			c-2.6,3.4-6.3,6.3-11.1,8.8c-4.8,2.5-10.1,3.7-16,3.7c-7,0-12.7-2.1-17.1-6.4s-6.6-9.5-6.6-15.9c0-7,2.2-12.4,6.5-16.2
			c4.4-3.8,10.1-6.2,17.2-7.1L183.5,117.9z M156.9,152.1c2.7,2.1,5.8,3.2,9.5,3.2c4.5,0,8.8-1,12.9-3.1c7-3.4,10.5-9,10.5-16.8
			v-10.2c-1.5,1-3.5,1.8-6,2.5c-2.4,0.7-4.8,1.1-7.2,1.4l-7.6,1c-4.6,0.6-8,1.6-10.3,2.9c-3.9,2.2-5.9,5.7-5.9,10.5
			C152.9,147.1,154.2,150,156.9,152.1z"/>
	</g>
	<g class="st0">
		<path class="st1" d="M213.7,60.2h12.7v103.3h-12.7V60.2z"/>
	</g>
	<g class="st0">
		<path class="st1" d="M237.8,67.2h12.8v21h12v10.3h-12v49.1c0,2.6,0.9,4.4,2.7,5.3c1,0.5,2.6,0.8,4.9,0.8c0.6,0,1.3,0,2,0
			c0.7,0,1.5-0.1,2.5-0.2v10.1c-1.5,0.4-3,0.7-4.5,0.9c-1.6,0.2-3.3,0.3-5.1,0.3c-5.9,0-9.9-1.5-12-4.5s-3.2-6.9-3.2-11.8V98.5
			h-10.2V88.2h10.2V67.2z"/>
	</g>
	<g class="st0">
		<path class="st1" d="M265.3,59.9H278v38.5c3-3.8,5.7-6.5,8.1-8c4.1-2.7,9.2-4,15.3-4c10.9,0,18.3,3.8,22.2,11.5
			c2.1,4.2,3.2,10,3.2,17.4v48.3h-13V116c0-5.5-0.7-9.6-2.1-12.2c-2.3-4.1-6.6-6.2-12.9-6.2c-5.3,0-10,1.8-14.3,5.4
			c-4.3,3.6-6.4,10.4-6.4,20.5v39.9h-12.7V59.9z"/>
	</g>
	<g id="Grupo_10339" transform="translate(179.195 1554.792)">
		<path id="Caminho_28567" class="st1" d="M668-1554.8c-112.5,61.4-178.2,83.5-270.2,91c-64.7,5.3-64.3,34-64,67.2
			c0.3,28.8,0.7,61.4-41.7,86.5c-28.2,16.7-54.8,26.4-106.9,26.6l-14-0.2l0.4-42.7c0.1-5.7,0.8-17.3,3.3-26.5
			c9.9-3,12.5-7.5,13.2-9.3c0.8-1.8,0.4-4-1-5.4c-1.5-1.4-3.9-1.4-6.3-0.2c-3.7,1.9-6.3,6.9-8,12.7c-6.3,1.5-12.8,2.3-19.2,2.3
			l-69.4-0.6c-0.2,0-18.3,0-31.2-3.1c-1.1-3.6-2.7-7.1-4.9-10.2c-2.4-3.2-5.6-5-8.1-4.4c-1,0.2-2.8,1.1-3.4,4c-0.8,4,3,7.8,6.5,9.8
			c2.5,1.3,5.1,2.3,7.8,3c2.6,8.8,4.5,21.6,3.8,38.3c-0.5,10.8-1.2,22.7-2.7,31.6c-12.7,1.4-16,5.3-16.8,7.9
			c-0.8,2.6,0.5,5.5,3.2,7.4c2.8,1.9,7,2.6,10.2,0.1c2.4-1.9,4.2-6,5.6-13c2.2-0.2,4.7-0.3,7.5-0.3l107,1.2l0,1.2
			c-2,24.9-11.3,50.7-27.5,76.8c-0.6,0.9-1.1,1.8-1.7,2.7h3.1c0.3-0.4,0.5-0.8,0.8-1.3c16.4-26.4,25.8-52.7,27.9-78l0-1.4l14.1,0.2
			c25.2-0.1,45.3-2.4,63.1-7.2c15.1-4.1,29-10.2,45.1-19.7c19.5-11.5,31.9-25.7,38-43.2c5.3-15.3,5.2-30.7,5-45.6
			c-0.2-16.1-0.3-31.3,7.2-42.6c8.4-12.6,25.7-19.6,54.3-21.9c92.4-7.5,158.3-29.7,271.2-91.3L668-1554.8z M182-1365.4
			c0.6-0.3,1.3-0.5,2-0.6c0.5,0,0.9,0.1,1.3,0.4c0.6,0.7,0.7,1.7,0.3,2.5c-0.9,2.4-3.9,5.1-9.8,7.1
			C177.4-1360.5,179.4-1364,182-1365.4z M44.3-1359.7c-2.8-1.6-5.7-4.5-5.2-7c0.2-1.1,0.7-1.8,1.4-2c0.1,0,0.3,0,0.4,0
			c1.3,0,3.3,1.1,5,3.4c1.6,2.4,3,5,3.9,7.8C47.9-1358,46-1358.7,44.3-1359.7z M46.8-1271.1c-2.1,1.7-5.1,1.1-7-0.2
			c-1.4-1-2.8-2.7-2.2-4.5c0.4-1.2,2.4-4.6,13.7-6C50.2-1276.5,48.8-1272.7,46.8-1271.1z M169-1326.4l-0.4,42.7l-107-1.2
			c-2.6,0-4.9,0.1-7,0.2c1.2-7.4,2.1-17.7,2.7-31.2c0.7-16.1-0.9-28.7-3.4-37.7c13,2.9,29.5,2.9,30.4,2.9l69.4,0.6
			c6.2,0,12.4-0.7,18.4-2C169.1-1340.7,169-1327.3,169-1326.4z"/>
	</g>
	<path id="Caminho_28569" class="st1" d="M301.1,234.5l-18.1-8.9c-1.7-0.8-3.7-0.1-4.5,1.5c-0.3,0.6-0.4,1.2-0.3,1.8l2.3,21.3
		c0.2,1.8,1.8,3.2,3.7,3c0.6-0.1,1.2-0.3,1.7-0.7l15.9-12.5c1.5-1.1,1.7-3.3,0.6-4.7C302,235.1,301.6,234.8,301.1,234.5z"/>
</g>
<g id="Layer_2">
</g>
</svg>
