<?xml version="1.0" encoding="utf-8"?>
<!-- Generator: Adobe Illustrator 25.0.0, SVG Export Plug-In . SVG Version: 6.00 Build 0)  -->
<svg version="1.1" id="Layer_1" xmlns="http://www.w3.org/2000/svg" xmlns:xlink="http://www.w3.org/1999/xlink" x="0px" y="0px"
	 viewBox="0 0 847.2 354.4" style="enable-background:new 0 0 847.2 354.4;" xml:space="preserve">
<style type="text/css">
	.st0{fill:#FFFFFF;}
	.st1{fill:none;}
	.st2{enable-background:new    ;}
</style>
<g id="Grupo_10339" transform="translate(179.195 1554.792)">
	<path id="Caminho_28567" class="st0" d="M668-1554.8c-112.5,61.4-178.2,83.5-270.2,91c-64.7,5.3-64.3,34-64,67.2
		c0.3,28.8,0.7,61.4-41.7,86.5c-28.2,16.7-54.8,26.4-106.9,26.6l-14-0.2l0.4-42.7c0.1-5.7,0.8-17.3,3.3-26.5
		c9.9-3,12.5-7.5,13.2-9.3c0.8-1.8,0.4-4-1-5.4c-1.5-1.4-3.9-1.4-6.3-0.2c-3.7,1.9-6.3,6.9-8,12.7c-6.3,1.5-12.8,2.3-19.2,2.3
		l-69.4-0.6c-0.2,0-18.3,0-31.2-3.1c-1.1-3.6-2.7-7.1-4.9-10.2c-2.4-3.2-5.6-5-8.1-4.4c-1,0.2-2.8,1.1-3.4,4c-0.8,4,3,7.8,6.5,9.8
		c2.5,1.3,5.1,2.3,7.8,3c2.6,8.8,4.5,21.6,3.8,38.3c-0.5,10.8-1.2,22.7-2.7,31.6c-12.7,1.4-16,5.3-16.8,7.9s0.5,5.5,3.2,7.4
		c2.8,1.9,7,2.6,10.2,0.1c2.4-1.9,4.2-6,5.6-13c2.2-0.2,4.7-0.3,7.5-0.3l107,1.2v1.2c-2,24.9-11.3,50.7-27.5,76.8
		c-0.6,0.9-1.1,1.8-1.7,2.7h3.1c0.3-0.4,0.5-0.8,0.8-1.3c16.4-26.4,25.8-52.7,27.9-78v-1.4l14.1,0.2c25.2-0.1,45.3-2.4,63.1-7.2
		c15.1-4.1,29-10.2,45.1-19.7c19.5-11.5,31.9-25.7,38-43.2c5.3-15.3,5.2-30.7,5-45.6c-0.2-16.1-0.3-31.3,7.2-42.6
		c8.4-12.6,25.7-19.6,54.3-21.9c92.4-7.5,158.3-29.7,271.2-91.3L668-1554.8z M182-1365.4c0.6-0.3,1.3-0.5,2-0.6
		c0.5,0,0.9,0.1,1.3,0.4c0.6,0.7,0.7,1.7,0.3,2.5c-0.9,2.4-3.9,5.1-9.8,7.1C177.4-1360.5,179.4-1364,182-1365.4z M44.3-1359.7
		c-2.8-1.6-5.7-4.5-5.2-7c0.2-1.1,0.7-1.8,1.4-2c0.1,0,0.3,0,0.4,0c1.3,0,3.3,1.1,5,3.4c1.6,2.4,3,5,3.9,7.8
		C47.9-1358,46-1358.7,44.3-1359.7z M46.8-1271.1c-2.1,1.7-5.1,1.1-7-0.2c-1.4-1-2.8-2.7-2.2-4.5c0.4-1.2,2.4-4.6,13.7-6
		C50.2-1276.5,48.8-1272.7,46.8-1271.1z M169-1326.4l-0.4,42.7l-107-1.2c-2.6,0-4.9,0.1-7,0.2c1.2-7.4,2.1-17.7,2.7-31.2
		c0.7-16.1-0.9-28.7-3.4-37.7c13,2.9,29.5,2.9,30.4,2.9l69.4,0.6c6.2,0,12.4-0.7,18.4-2C169.1-1340.7,169-1327.3,169-1326.4z"/>
</g>
<path id="Caminho_28569" class="st0" d="M301.1,234.5l-18.1-8.9c-1.7-0.8-3.7-0.1-4.5,1.5c-0.3,0.6-0.4,1.2-0.3,1.8l2.3,21.3
	c0.2,1.8,1.8,3.2,3.7,3c0.6-0.1,1.2-0.3,1.7-0.7l15.9-12.5c1.5-1.1,1.7-3.3,0.6-4.7C302,235.1,301.6,234.8,301.1,234.5z"/>
<g id="Layer_2_1_">
</g>
<rect x="-150" y="209.2" class="st1" width="928" height="522"/>
<g class="st2">
	<path class="st0" d="M34.4,256.6c0,1.4-0.4,2-2.1,2.6c-2.5,0.9-5.1,1.4-8.2,1.4c-6.6,0-12.9-2.9-12.9-14.1v-36.4H3.8
		c-1,0-1.2-0.4-1.2-1.7c0-1.2,0.2-1.5,1-1.6l7.7-0.6l0.9-11.7c0.2-1,0.5-1.2,2.1-1.2c1.5,0,1.9,0.2,1.9,1.3V206h16.4
		c1,0,1.2,0.5,1.2,2s-0.2,2-1.2,2H16.3v35.6c0,7.7,3.2,10.5,9,10.5c4,0,7.2-1.9,8-1.9C34,254.3,34.4,255.5,34.4,256.6z"/>
</g>
<g class="st2">
	<path class="st0" d="M82.9,255.1c0,1.4-0.5,1.9-2.6,2.8c-3.3,1.4-7.9,2.6-13.4,2.6c-12.9,0-24.8-5.9-24.8-27.7
		c0-20.5,10.6-27.5,23.1-27.5c11.7,0,18.7,6,18.7,15.8c0,9.7-7.2,14.4-21.8,14.4c-5.2,0-10.3-0.6-14.6-1.3
		c0.5,17.8,9.2,21.8,18.8,21.8c9.2,0,13.7-4,14.8-4C82.2,252.1,82.9,253.8,82.9,255.1z M47.6,230.6c5.2,0.7,9.7,1.1,13.8,1.1
		c11.9,0,17.3-3.2,17.3-10.9c0-7.3-4.9-11.2-13.6-11.2C56,209.5,48.3,213.9,47.6,230.6z"/>
</g>
<g class="st2">
	<path class="st0" d="M94.5,232.9c0-20.8,10.9-27.6,22.6-27.6c4.2,0,8.5,0.6,12.1,2c2,0.7,2.8,1.5,2.8,2.8c0,1.4-0.9,3-1.8,3
		s-5.2-3.3-12.7-3.3c-9.4,0-17.4,4.9-17.4,23.1c0,18.3,8,23.2,17.4,23.2c7.8,0,12.5-3.7,13.6-3.7c1,0,1.7,1.6,1.7,3
		c0,1.3-0.5,1.9-2.6,2.8c-3.3,1.4-7.9,2.4-13.1,2.4C105.4,260.5,94.5,253.7,94.5,232.9z"/>
</g>
<g class="st2">
	<path class="st0" d="M185.4,221.5v37c0,1.2-0.5,1.3-2.6,1.3s-2.6-0.1-2.6-1.3v-36.1c0-6.7-2.6-12.5-11.4-12.5
		c-7,0-13.3,3.6-16.7,8.5c-1.2,1.7-1.7,4-1.7,6.5v33.6c0,1.2-0.5,1.3-2.6,1.3c-2,0-2.6-0.1-2.6-1.3v-77.9c0-1.2,0.5-1.3,2.6-1.3
		c2,0,2.6,0.1,2.6,1.3v34.9c4.3-6.2,12-10.1,19.3-10.1C180.8,205.5,185.4,211.9,185.4,221.5z"/>
</g>
<g class="st2">
	<path class="st0" d="M64.3,113.3V161c0,3-1.6,3.5-6.5,3.5s-6.5-0.4-6.5-3.5v-45.2c0-7.8-2.9-14.1-12.8-14.1
		c-7.2,0-13.8,3.7-17.7,8.8c-1.6,2-2.6,4.8-2.6,7.9V161c0,3-1.6,3.5-6.5,3.5S5.2,164,5.2,161V59.3c0-3,1.6-3.5,6.5-3.5
		s6.5,0.4,6.5,3.5v42.2c6.3-7.2,15.6-11.1,23.6-11.1C57.7,90.4,64.3,99.3,64.3,113.3z"/>
</g>
<g class="st2">
	<path class="st0" d="M132.5,156.2c0,3.2-1.4,4.5-4.8,5.8c-4.8,1.9-11.4,3.5-19.3,3.5c-20.2,0-35.7-9.2-35.7-37.7
		c0-27.1,14-37.6,33.4-37.6c17.9,0,27.9,9.1,27.9,22.8c0,14.4-11.8,21-31.8,21c-5.6,0-10.8-0.6-15.7-1.3
		c1.4,17.7,10.2,22.2,21.5,22.2c13,0,18.9-5.2,20.7-5.2C130.8,149.6,132.5,153,132.5,156.2z M86.5,123.4c5.8,0.7,10.7,1,14.7,1
		c14,0,19.9-3.7,19.9-12.1c0-8.1-5.6-12.2-15.3-12.2C95.5,100.1,87.3,104.7,86.5,123.4z"/>
</g>
<g class="st2">
	<path class="st0" d="M196.8,117.5V161c0,2.7-0.9,3.5-4.9,3.5c-3.9,0-5-0.6-5.5-3.2l-1.3-8.4c-5.9,7.5-15.3,12.5-25.6,12.5
		c-12,0-21.6-7.1-21.6-20.2c0-14.1,11.1-27.4,45.9-26.5v-3.6c0-8.9-4-14.4-15.6-14.4c-13.2,0-19.9,5.3-22,5.3c-2,0-3.6-3.3-3.6-6.6
		c0-3,1.4-4.8,5.2-5.9c5.5-2,14-3.5,21.3-3.5C188.4,90.1,196.8,98.5,196.8,117.5z M183.8,137.5v-9.8c-24.8-0.3-32.7,6.9-32.7,15.7
		c0,7.2,5.2,11.4,12.2,11.4c7.3,0,14.4-4.6,17.7-9.2C182.5,143.7,183.8,141.2,183.8,137.5z"/>
</g>
<g class="st2">
	<path class="st0" d="M210,161V59.3c0-3,1.6-3.5,6.5-3.5s6.5,0.4,6.5,3.5V161c0,3-1.6,3.5-6.5,3.5S210,164,210,161z"/>
</g>
<g class="st2">
	<path class="st0" d="M275.7,157.9c0,3.2-1,4.6-4,5.5c-3.6,1.2-7.5,1.9-12.2,1.9c-11.2,0-19.9-4.6-19.9-20.4v-43.6h-7.9
		c-2.2,0-2.9-1.2-2.9-4.2c0-2.9,0.4-3.7,2.2-4.2l9.1-1l2-14.5c0.6-2.2,1.6-2.7,5.3-2.7c3.7,0,5.2,0.6,5.2,3.5v13.5h19.4
		c2.3,0,2.9,1.2,2.9,4.8c0,3.7-0.6,4.9-2.9,4.9h-19.4V142c0,9.4,3.6,12.5,10.8,12.5c4.9,0,8.6-2.2,9.9-2.2
		C274.8,152.3,275.7,155.5,275.7,157.9z"/>
</g>
<g class="st2">
	<path class="st0" d="M341.3,113.3V161c0,3-1.6,3.5-6.5,3.5s-6.5-0.4-6.5-3.5v-45.2c0-7.8-2.9-14.1-12.8-14.1
		c-7.2,0-13.8,3.7-17.7,8.8c-1.6,2-2.6,4.8-2.6,7.9V161c0,3-1.6,3.5-6.5,3.5s-6.5-0.4-6.5-3.5V59.3c0-3,1.6-3.5,6.5-3.5
		s6.5,0.4,6.5,3.5v42.2c6.3-7.2,15.6-11.1,23.6-11.1C334.7,90.4,341.3,99.3,341.3,113.3z"/>
</g>
</svg>
