<svg xmlns="http://www.w3.org/2000/svg" xmlns:xlink="http://www.w3.org/1999/xlink" width="478.001" height="52.757" viewBox="0 0 478.001 52.757">
  <defs>
    <style>
      .cls-1 {
        fill: url(#linear-gradient);
      }
    </style>
    <linearGradient id="linear-gradient" x1="-0.064" x2="1.122" y2="1.416" gradientUnits="objectBoundingBox">
      <stop offset="0" stop-color="#1dd1a1"/>
      <stop offset="1" stop-color="#5f27cd"/>
    </linearGradient>
  </defs>
  <path id="Caminho_28507" data-name="Caminho 28507" class="cls-1" d="M-210.439-52.656c-1.489,0-1.844.071-1.844.851v21.84h-27.3v-21.84c0-.78-.355-.851-1.773-.851-1.489,0-1.844.071-1.844.851V-2.31c0,.78.355.851,1.844.851,1.418,0,1.773-.071,1.773-.851V-26.774h27.3V-2.31c0,.78.355.851,1.844.851,1.418,0,1.773-.071,1.773-.851V-51.805C-208.667-52.585-209.021-52.656-210.439-52.656Zm46.233,48.148h-24.96V-26.845h19.358c.78,0,.851-.284.851-1.489s-.071-1.489-.851-1.489h-19.358V-49.607h24.535c.709,0,.851-.284.851-1.489,0-1.135-.142-1.489-.851-1.489h-27.229a.857.857,0,0,0-.922.922V-2.452a.857.857,0,0,0,.922.922h27.655c.78,0,.851-.355.851-1.489C-163.355-4.225-163.426-4.508-164.206-4.508Zm30.42-47.3c-.567-.709-.993-.851-2.2-.851a2.372,2.372,0,0,0-2.2.851c-10.566,12.764-16.1,35.88-16.1,49.353,0,.922.355.993,1.844.993,1.347,0,1.773-.071,1.773-.993a86.643,86.643,0,0,1,1.347-13.615h26.591a86.639,86.639,0,0,1,1.347,13.615c0,.922.425.993,1.844.993s1.773-.071,1.773-.993C-117.761-15.925-123.292-39.041-133.786-51.805Zm-14.962,32.76c2.34-11.346,6.736-22.975,12.693-30.633,6.027,7.658,10.424,19.287,12.764,30.633ZM-103.437-1.53h26.449c.709,0,.851-.355.851-1.56s-.142-1.56-.851-1.56h-23.755V-51.805c0-.78-.355-.851-1.773-.851-1.489,0-1.844.071-1.844.851V-2.452A.857.857,0,0,0-103.437-1.53Zm61.9-51.055H-79.044c-.709,0-.851.355-.851,1.56s.142,1.56.851,1.56H-62.1V-2.31c0,.78.355.851,1.844.851,1.418,0,1.773-.071,1.773-.851V-49.465h16.947c.709,0,.851-.355.851-1.56S-40.824-52.585-41.533-52.585Zm43.042-.071c-1.489,0-1.844.071-1.844.851v21.84h-27.3v-21.84c0-.78-.355-.851-1.773-.851-1.489,0-1.844.071-1.844.851V-2.31c0,.78.355.851,1.844.851,1.418,0,1.773-.071,1.773-.851V-26.774h27.3V-2.31c0,.78.355.851,1.844.851,1.418,0,1.773-.071,1.773-.851V-51.805C3.282-52.585,2.927-52.656,1.509-52.656ZM32.851-27.27c0,18.153,8.722,26.591,22.478,26.591A38.561,38.561,0,0,0,65.824-2.168c3.191-.851,4.184-2.34,4.184-4.538,0-2.34-1.064-5.176-2.553-5.176-1.418,0-5.744,2.553-11.842,2.553-7.587,0-12.126-5.46-12.126-17.94,0-12.409,4.538-17.515,12.126-17.515,6.169,0,9.856,2.34,11.275,2.34,1.489,0,2.553-2.765,2.553-5.105,0-2.2-1.064-3.829-4.184-4.609a38.364,38.364,0,0,0-10.069-1.276C41.715-53.436,32.851-45.352,32.851-27.27ZM109.5-52.727c-3.9,0-5.035.284-5.247,2.695-.78,8.651-3.687,17.16-9.431,23.542C88.8-32.872,85.82-41.381,85.04-50.032c-.213-2.411-1.347-2.695-5.318-2.695s-5.389.284-5.318,2.624c.355,9.431,6.169,23.329,15.033,31.484V-3.941c0,2.269,1.276,2.553,5.247,2.553,3.9,0,5.176-.284,5.176-2.553V-18.619c8.722-8.225,14.678-22.053,14.962-31.484C114.893-52.443,113.475-52.727,109.5-52.727Zm8.722,25.457c0,18.153,8.722,26.591,22.478,26.591A38.561,38.561,0,0,0,151.2-2.168c3.191-.851,4.184-2.34,4.184-4.538,0-2.34-1.064-5.176-2.553-5.176-1.418,0-5.744,2.553-11.842,2.553-7.587,0-12.126-5.46-12.126-17.94,0-12.409,4.538-17.515,12.126-17.515,6.169,0,9.856,2.34,11.275,2.34,1.489,0,2.553-2.765,2.553-5.105,0-2.2-1.064-3.829-4.184-4.609a38.364,38.364,0,0,0-10.069-1.276C127.09-53.436,118.226-45.352,118.226-27.27Zm47.3,25.74h26.591c2.056,0,2.34-1.135,2.34-4.467s-.284-4.467-2.34-4.467h-18.72V-50.174c0-2.269-1.276-2.553-5.176-2.553-3.971,0-5.247.284-5.247,2.553V-4.083A2.316,2.316,0,0,0,165.523-1.53Zm67.009-8.509H212.11V-23.512h15.529c2.056,0,2.34-1.064,2.34-4.255,0-3.12-.284-4.184-2.34-4.184H212.11V-44.076h19.926c2.056,0,2.34-1.064,2.34-4.255s-.284-4.255-2.34-4.255h-27.8a2.316,2.316,0,0,0-2.553,2.553V-4.083a2.316,2.316,0,0,0,2.553,2.553h28.293c2.056,0,2.269-1.064,2.269-4.255S234.589-10.039,232.532-10.039Z" transform="translate(243.199 53.436)"/>
</svg>
