<svg xmlns="http://www.w3.org/2000/svg" width="16.173" height="16.524" viewBox="0 0 16.173 16.524">
  <defs>
    <style>
      .cls-1 {
        fill: #bfbfbf;
      }
    </style>
  </defs>
  <g id="instagram" transform="translate(-342.328 -3854.287)">
    <path id="Caminho_23320" data-name="Caminho 23320" class="cls-1" d="M93.031,90.791a3.08,3.08,0,0,0-1.05,3.443C92.6,96,94.837,97.4,96.609,96.3,100.2,94.11,95.988,88.15,93.031,90.791Z" transform="translate(255.534 3769.239)"/>
    <path id="Caminho_23321" data-name="Caminho 23321" class="cls-1" d="M59.708,45.493c-2.608-.339-12.046-1.445-12.091,3.037a.377.377,0,0,0-.056.135c-.339,3-.564,6.988.226,9.934.5,1.863,1.908,2.4,3.7,2.664,2.687.4,6.57.689,9.2-.192,2-.677,2.348-2.168,2.427-4.109C63.252,53.418,64.731,46.137,59.708,45.493ZM58.387,57.324c-2.213,1.806-5.295,1.084-7.09-.914a.541.541,0,0,0-.169-.124,5.533,5.533,0,0,1,.463-6.232,5,5,0,1,1,6.8,7.27Zm1.389-7.981a1.845,1.845,0,0,1-.689-1.118,1.28,1.28,0,0,1,.339-.869,1.379,1.379,0,0,1,2.359.869A1.355,1.355,0,0,1,59.775,49.343Z" transform="translate(295.078 3809.163)"/>
  </g>
</svg>
