<svg xmlns="http://www.w3.org/2000/svg" width="16.522" height="16.489" viewBox="0 0 16.522 16.489">
  <defs>
    <style>
      .cls-1 {
        fill: #bfbfbf;
      }
    </style>
  </defs>
  <g id="linkedin" transform="translate(-284.145 -3852.932)">
    <g id="linkeidn">
      <path id="XMLID_802_" class="cls-1" d="M8.511,99.73H5.194a.267.267,0,0,0-.267.267v10.657a.266.266,0,0,0,.267.267H8.511a.266.266,0,0,0,.267-.267V100a.267.267,0,0,0-.267-.267Z" transform="translate(279.479 3758.5)"/>
      <path id="XMLID_803_" class="cls-1" d="M2.2.341A2.187,2.187,0,1,0,4.392,2.528,2.187,2.187,0,0,0,2.2.341Z" transform="translate(284.127 3852.591)"/>
      <path id="XMLID_804_" class="cls-1" d="M112.8,94.761a3.9,3.9,0,0,0-2.915,1.224v-.692a.267.267,0,0,0-.267-.267h-3.177a.267.267,0,0,0-.267.267v10.657a.266.266,0,0,0,.267.267h3.31a.266.266,0,0,0,.267-.267v-5.273c0-1.777.483-2.469,1.721-2.469,1.349,0,1.456,1.11,1.456,2.56v5.182a.266.266,0,0,0,.267.267h3.311a.266.266,0,0,0,.267-.267V100.1C117.041,97.462,116.537,94.761,112.8,94.761Z" transform="translate(183.627 3763.204)"/>
    </g>
  </g>
</svg>
