<svg xmlns="http://www.w3.org/2000/svg" width="122" height="146" viewBox="0 0 122 146">
  <defs>
    <style>
      .cls-1, .cls-2 {
        fill: #398ab4;
      }

      .cls-1 {
        font-size: 26px;
        font-family: Helvetica-Bold, Helvetica;
        font-weight: 700;
      }
    </style>
  </defs>
  <g id="médicos" transform="translate(-632 -1292)">
    <text id="MÉDICOS-2" data-name="MÉDICOS" class="cls-1" transform="translate(693 1432)"><tspan x="-60.671" y="0">MÉDICOS</tspan></text>
    <g id="Doctor-Surgeon-Mask-Avatar-Medical" transform="translate(653 1290)">
      <path id="Caminho_28625" data-name="Caminho 28625" class="cls-2" d="M59.865,50.331l-3.753-1.178a6.831,6.831,0,0,0-6.765-6.067H46.608V41.429a15.1,15.1,0,0,0,8.149-12.038h.068a5.478,5.478,0,1,0,0-10.956V8.848A6.848,6.848,0,0,0,47.977,2H31.543A6.848,6.848,0,0,0,24.7,8.848v9.587a5.478,5.478,0,0,0,0,10.956h.068a15.1,15.1,0,0,0,8.149,12.038v1.657H30.173a6.831,6.831,0,0,0-6.765,6.067l-3.753,1.178A12.27,12.27,0,0,0,11,62.1V82.8a1.37,1.37,0,0,0,1.37,1.37H67.151a1.37,1.37,0,0,0,1.37-1.37V62.1a12.27,12.27,0,0,0-8.655-11.764Zm-5.04-29.157a2.739,2.739,0,0,1,0,5.478ZM24.7,26.652a2.739,2.739,0,0,1,0-5.478ZM49.347,45.825a4.092,4.092,0,0,1,3.711,2.383l-6.451-2.027v-.356ZM46.608,33.5a6.848,6.848,0,0,1-13.7,0V30.418a27.545,27.545,0,0,1,6.848-1.027,27.545,27.545,0,0,1,6.848,1.027Zm5.478-5.478a12.3,12.3,0,0,1-3.136,8.19,9.343,9.343,0,0,0,.4-2.712V29.76l2.739-4.793ZM27.434,8.848a4.121,4.121,0,0,1,4.109-4.109H47.977a4.121,4.121,0,0,1,4.109,4.109v7.094a4.109,4.109,0,0,0-1.37-.247H28.8a4.109,4.109,0,0,0-1.37.247Zm0,19.173V24.967l2.739,4.793V33.5a9.343,9.343,0,0,0,.4,2.712,12.3,12.3,0,0,1-3.136-8.19Zm4.766-.247L27.489,19.53a1.35,1.35,0,0,1,1.315-1.1H50.716a1.35,1.35,0,0,1,1.315,1.1L47.32,27.775a29.89,29.89,0,0,0-7.56-1.123,29.89,29.89,0,0,0-7.56,1.123ZM34.693,48.5a1.352,1.352,0,0,0,.959-1.3V42.5a14.722,14.722,0,0,0,3.136.534,11.527,11.527,0,0,0,1.945,0,14.722,14.722,0,0,0,3.136-.534v4.7a1.352,1.352,0,0,0,.959,1.3l4.163,1.3a9.587,9.587,0,0,1-18.461,0Zm-4.519-2.671h2.739v.356l-6.45,2.027a4.092,4.092,0,0,1,3.711-2.383ZM24.7,63.629a2.739,2.739,0,1,1-2.739,2.739A2.739,2.739,0,0,1,24.7,63.629Zm41.086,17.8H57.564V73.216H54.825v8.217H24.7V73.216H21.956v8.217H13.739V62.1a9.537,9.537,0,0,1,6.724-9.148l2.862-.89v9.025a5.478,5.478,0,1,0,2.739,0V51.194l1.863-.575a12.315,12.315,0,0,0,23.666,0l1.863.575v6.957A6.848,6.848,0,0,0,46.608,65v5.478a1.37,1.37,0,0,0,1.37,1.37h2.739V69.107h-1.37V65a4.121,4.121,0,0,1,4.109-4.109h2.739A4.121,4.121,0,0,1,60.3,65v4.109h-1.37v2.739h2.739a1.37,1.37,0,0,0,1.37-1.37V65a6.848,6.848,0,0,0-6.848-6.848V52.056l2.862.89A9.537,9.537,0,0,1,65.781,62.1Z" transform="translate(0)"/>
      <circle id="Elipse_24" data-name="Elipse 24" class="cls-2" cx="2.5" cy="2.5" r="2.5" transform="translate(32 20)"/>
      <ellipse id="Elipse_25" data-name="Elipse 25" class="cls-2" cx="3" cy="2.5" rx="3" ry="2.5" transform="translate(42 20)"/>
      <path id="Caminho_28626" data-name="Caminho 28626" class="cls-2" d="M31.37,11.478h2.739v-1.37h1.37V7.37h-1.37V6H31.37V7.37H30v2.739h1.37Z" transform="translate(7.021 1.478)"/>
    </g>
  </g>
</svg>
