<svg xmlns="http://www.w3.org/2000/svg" width="148" height="137" viewBox="0 0 148 137">
  <defs>
    <style>
      .cls-1, .cls-2 {
        fill: #4273ba;
      }

      .cls-1 {
        font-size: 26px;
        font-family: Helvetica-Bold, Helvetica;
        font-weight: 700;
      }
    </style>
  </defs>
  <g id="pacientes" transform="translate(-882 -1301)">
    <text id="PACIENTES-2" data-name="PACIENTES" class="cls-1" transform="translate(956 1432)"><tspan x="-73.442" y="0">PACIENTES</tspan></text>
    <path id="team" class="cls-2" d="M19.924,105.847a30.11,30.11,0,0,0-3.9-.694,8.641,8.641,0,0,0,3.4-7.16c0-4.145-2.494-6.72-6.507-6.72S6.4,93.848,6.4,97.993a8.645,8.645,0,0,0,3.386,7.152,28.006,28.006,0,0,0-3.9.7C2.09,106.826,0,108.936,0,111.791v7.476a1.268,1.268,0,0,0,2.537,0v-7.476c0-2.034,2.164-3.017,3.981-3.485a25.864,25.864,0,0,1,12.8,0c1.483.368,3.97,1.309,3.97,3.482v7.476a1.268,1.268,0,0,0,2.537,0v-7.476c0-2.848-2.149-5.015-5.9-5.944ZM12.909,93.81c1.812,0,3.971.726,3.971,4.183,0,3.045-1.818,5.617-3.971,5.617s-3.97-2.572-3.97-5.617C8.94,94.536,11.1,93.81,12.909,93.81Zm41.03,12.037a30.079,30.079,0,0,0-3.9-.694,8.641,8.641,0,0,0,3.4-7.16c0-4.145-2.494-6.72-6.507-6.72s-6.507,2.575-6.507,6.72a8.644,8.644,0,0,0,3.386,7.152,28.006,28.006,0,0,0-3.9.7c-3.795.976-5.885,3.086-5.885,5.941v7.476a1.268,1.268,0,0,0,2.537,0v-7.476c0-2.034,2.164-3.018,3.981-3.485a25.861,25.861,0,0,1,12.8,0c1.483.368,3.97,1.309,3.97,3.482v7.476a1.268,1.268,0,0,0,2.537,0v-7.476c0-2.848-2.149-5.015-5.9-5.944ZM46.925,93.81c1.812,0,3.971.726,3.971,4.183,0,3.045-1.818,5.617-3.971,5.617s-3.971-2.572-3.971-5.617c0-3.457,2.159-4.183,3.971-4.183Zm41.03,12.037a30.115,30.115,0,0,0-3.9-.694,8.642,8.642,0,0,0,3.4-7.16c0-4.145-2.493-6.72-6.506-6.72s-6.507,2.575-6.507,6.72a8.644,8.644,0,0,0,3.386,7.152,28.015,28.015,0,0,0-3.9.7c-3.795.976-5.885,3.086-5.885,5.941v7.476a1.268,1.268,0,0,0,2.537,0v-7.476c0-2.034,2.164-3.017,3.981-3.485a25.864,25.864,0,0,1,12.8,0c1.483.368,3.97,1.31,3.97,3.482v7.476a1.268,1.268,0,1,0,2.536,0v-7.476c0-2.848-2.149-5.014-5.9-5.944ZM80.94,93.81c1.811,0,3.97.726,3.97,4.183,0,3.045-1.818,5.617-3.97,5.617s-3.971-2.572-3.971-5.617C76.97,94.536,79.129,93.81,80.94,93.81ZM40.291,87.3a1.268,1.268,0,0,0,2.537,0c0-2.848-2.149-5.014-5.9-5.944a30.117,30.117,0,0,0-3.9-.694,8.64,8.64,0,0,0,3.4-7.16c0-4.145-2.494-6.72-6.507-6.72s-6.507,2.575-6.507,6.72A8.643,8.643,0,0,0,26.8,80.649a27.986,27.986,0,0,0-3.9.7c-3.8.976-5.886,3.085-5.886,5.941a1.268,1.268,0,1,0,2.537,0c0-2.034,2.165-3.018,3.981-3.485a25.841,25.841,0,0,1,12.8,0c1.483.368,3.97,1.309,3.97,3.482ZM29.918,69.314c1.812,0,3.971.726,3.971,4.183,0,3.045-1.818,5.617-3.971,5.617s-3.971-2.572-3.971-5.617C25.947,70.04,28.106,69.314,29.918,69.314ZM74.306,87.3a1.268,1.268,0,0,0,2.537,0c0-2.848-2.149-5.014-5.9-5.944a30.133,30.133,0,0,0-3.9-.694,8.64,8.64,0,0,0,3.4-7.16c0-4.145-2.494-6.72-6.507-6.72s-6.507,2.575-6.507,6.72a8.644,8.644,0,0,0,3.386,7.152,27.957,27.957,0,0,0-3.9.7c-3.8.975-5.885,3.085-5.885,5.941a1.268,1.268,0,1,0,2.537,0c0-2.034,2.164-3.018,3.981-3.485a25.841,25.841,0,0,1,12.8,0c1.483.368,3.971,1.31,3.971,3.482ZM63.932,69.314c1.812,0,3.971.726,3.971,4.183,0,3.045-1.818,5.617-3.971,5.617s-3.971-2.572-3.971-5.617C59.962,70.04,62.121,69.314,63.932,69.314Zm-28.65-5.4a1.268,1.268,0,0,0,1.268-1.268c0-2.034,2.165-3.018,3.981-3.485a25.841,25.841,0,0,1,12.8,0c1.483.368,3.97,1.309,3.97,3.482a1.268,1.268,0,1,0,2.537,0c0-2.849-2.149-5.015-5.9-5.944a30.123,30.123,0,0,0-3.9-.694,8.64,8.64,0,0,0,3.4-7.16c0-4.145-2.494-6.72-6.507-6.72s-6.507,2.575-6.507,6.72A8.643,8.643,0,0,0,43.8,56a27.985,27.985,0,0,0-3.9.7c-3.8.976-5.886,3.085-5.886,5.941a1.269,1.269,0,0,0,1.268,1.268ZM46.925,44.667c1.812,0,3.971.726,3.971,4.183,0,3.045-1.818,5.617-3.971,5.617s-3.971-2.572-3.971-5.617C42.954,45.392,45.113,44.667,46.925,44.667ZM87.955,56.7a30.115,30.115,0,0,0-3.9-.694,8.642,8.642,0,0,0,3.4-7.16c0-4.145-2.493-6.72-6.506-6.72s-6.507,2.575-6.507,6.72A8.644,8.644,0,0,0,77.819,56a27.982,27.982,0,0,0-3.9.7c-3.795.976-5.885,3.086-5.885,5.941a1.268,1.268,0,1,0,2.537,0c0-2.034,2.164-3.017,3.981-3.485a25.853,25.853,0,0,1,12.8,0c1.483.368,3.97,1.309,3.97,3.482v7.475a1.268,1.268,0,1,0,2.537,0V62.648C93.85,59.8,91.7,57.633,87.955,56.7ZM80.94,44.667c1.811,0,3.97.726,3.97,4.183,0,3.045-1.818,5.617-3.97,5.617S76.97,51.895,76.97,48.85C76.97,45.392,79.129,44.667,80.94,44.667ZM1.268,71.391a1.268,1.268,0,0,0,1.268-1.268V62.647c0-2.034,2.164-3.017,3.981-3.485a25.853,25.853,0,0,1,12.8,0c1.483.368,3.97,1.31,3.97,3.482a1.268,1.268,0,0,0,2.537,0c0-2.848-2.149-5.014-5.9-5.944a30.1,30.1,0,0,0-3.9-.694,8.641,8.641,0,0,0,3.4-7.16c0-4.145-2.494-6.72-6.507-6.72S6.4,44.705,6.4,48.85A8.645,8.645,0,0,0,9.789,56a28.006,28.006,0,0,0-3.9.7C2.09,57.683,0,59.793,0,62.647v7.475a1.268,1.268,0,0,0,1.268,1.268ZM12.909,44.667c1.812,0,3.971.726,3.971,4.183,0,3.045-1.818,5.617-3.971,5.617S8.94,51.895,8.94,48.85C8.94,45.392,11.1,44.667,12.909,44.667Z" transform="translate(908 1258.87)"/>
  </g>
</svg>
