<svg xmlns="http://www.w3.org/2000/svg" width="96.5" height="146" viewBox="0 0 96.5 146">
  <defs>
    <style>
      .cls-1, .cls-2 {
        fill: #5839c8;
      }

      .cls-1 {
        font-size: 26px;
        font-family: Helvetica-Bold, Helvetica;
        font-weight: 700;
      }
    </style>
  </defs>
  <g id="pdv" transform="translate(-1175 -1292)">
    <text id="PDV-2" data-name="PDV" class="cls-1" transform="translate(1223.5 1432)"><tspan x="-26.73" y="0">PDV</tspan></text>
    <g id="pharmacy" transform="translate(1167 1261.009)">
      <path id="Caminho_28627" data-name="Caminho 28627" class="cls-2" d="M102.944,115.236H98.274V56.091h3.113a1.556,1.556,0,0,0,1.556-1.556V45.2a1.556,1.556,0,0,0-1.556-1.556H73.927a18.677,18.677,0,0,0-35.355,0H11.113A1.556,1.556,0,0,0,9.556,45.2v9.339a1.556,1.556,0,0,0,1.556,1.556h3.113v59.145H9.556a1.556,1.556,0,0,0,0,3.113h93.387a1.556,1.556,0,1,0,0-3.113ZM74.7,46.752H99.831v6.226h-25.2a18.791,18.791,0,0,0,.066-6.226ZM56.25,34.106A15.565,15.565,0,1,1,40.685,49.67,15.565,15.565,0,0,1,56.25,34.106ZM12.669,52.978V46.752H37.8a18.791,18.791,0,0,0,.066,6.226Zm59.145,62.258H40.685V113.68H71.815Zm-26.46-4.669V80.994h9.339v29.573Zm12.452,0V80.994h9.339v29.573Zm37.355,4.669H74.927v-3.113a1.556,1.556,0,0,0-1.556-1.556H70.258V79.438A1.556,1.556,0,0,0,68.7,77.881H43.8a1.556,1.556,0,0,0-1.556,1.556v31.129H39.129a1.556,1.556,0,0,0-1.556,1.556v3.113H17.339V56.091h21.37a18.68,18.68,0,0,0,35.082,0h21.37Z"/>
      <path id="Caminho_28628" data-name="Caminho 28628" class="cls-2" d="M223.474,79.065l-1.1-1.1a5.448,5.448,0,0,0-7.7,0l-7.7,7.7a5.448,5.448,0,0,0,0,7.7l1.1,1.1a5.448,5.448,0,0,0,7.7,0l7.7-7.7A5.448,5.448,0,0,0,223.474,79.065Zm-9.907,13.206a2.337,2.337,0,0,1-3.3,0l-1.1-1.1a2.332,2.332,0,0,1,0-3.3l2.751-2.753,4.4,4.4Zm7.7-7.7L218.52,87.32l-4.4-4.4,2.753-2.751a2.337,2.337,0,0,1,3.3,0l1.1,1.1a2.332,2.332,0,0,1,0,3.3Z" transform="translate(-158.969 -36.548)"/>
      <path id="Caminho_28629" data-name="Caminho 28629" class="cls-2" d="M89.121,272H73.556A1.556,1.556,0,0,0,72,273.556v15.565a1.556,1.556,0,0,0,1.556,1.556H89.121a1.556,1.556,0,0,0,1.556-1.556V273.556A1.556,1.556,0,0,0,89.121,272Zm-14.008,3.113h4.669v12.452H75.113Zm12.452,12.452H82.9V275.113h4.669Z" transform="translate(-51.548 -194.119)"/>
      <path id="Caminho_28630" data-name="Caminho 28630" class="cls-2" d="M361.121,272H345.556A1.556,1.556,0,0,0,344,273.556v15.565a1.556,1.556,0,0,0,1.556,1.556h15.565a1.556,1.556,0,0,0,1.556-1.556V273.556A1.556,1.556,0,0,0,361.121,272Zm-14.008,3.113h4.669v12.452h-4.669Zm12.452,12.452H354.9V275.113h4.669Z" transform="translate(-270.629 -194.119)"/>
    </g>
  </g>
</svg>
