<svg id="pharmacist" xmlns="http://www.w3.org/2000/svg" width="73.375" height="73.375" viewBox="0 0 73.375 73.375">
  <defs>
    <style>
      .cls-1 {
        fill: #330c95;
      }

      .cls-2 {
        fill: #25d1a1;
      }
    </style>
  </defs>
  <g id="Grupo_10358" data-name="Grupo 10358">
    <g id="Grupo_10357" data-name="Grupo 10357">
      <path id="Caminho_28593" data-name="Caminho 28593" class="cls-1" d="M198.659,361.526a10.651,10.651,0,0,1-19.173,6.39l-1.894,1.421a13.022,13.022,0,0,0,22.839-11.713l-2.258.709A10.641,10.641,0,0,1,198.659,361.526Z" transform="translate(-151.32 -304.719)"/>
      <path id="Caminho_28594" data-name="Caminho 28594" class="cls-1" d="M0,272v7.1H4.734v26.036H68.641V279.1h4.734V272Zm71.008,4.734H48.522V279.1H66.274V302.77H7.1V279.1H24.853v-2.367H2.367v-2.367H71.008Z" transform="translate(0 -231.762)"/>
      <path id="Caminho_28595" data-name="Caminho 28595" class="cls-1" d="M161.083,314.222l2.169-.948a10.544,10.544,0,0,1-.885-4.256,10.652,10.652,0,0,1,19.173-6.391l1.892-1.421a13.02,13.02,0,0,0-22.35,13.016Z" transform="translate(-136.331 -252.212)"/>
      <path id="Caminho_28596" data-name="Caminho 28596" class="cls-2" d="M203.55,336v3.55H200v7.1h3.55v3.55h7.1v-3.55h3.55v-7.1h-3.55V336Zm8.284,5.917v2.367h-3.55v3.55h-2.367v-3.55h-3.55v-2.367h3.55v-3.55h2.367v3.55Z" transform="translate(-170.413 -286.294)"/>
      <path id="Caminho_28597" data-name="Caminho 28597" class="cls-1" d="M147.214,31.655a3.548,3.548,0,0,1,2.548-2.974l4.1-1.17,1.295,5.176,3.108-2.073v7.257h2.367V30.614l3.108,2.072,1.295-5.176,4.1,1.17a3.548,3.548,0,0,1,2.548,2.974l.8,6.362,2.348-.294-.8-6.361a5.9,5.9,0,0,0-3.929-4.839v-9.7a3.591,3.591,0,0,0,.338-.32,3.563,3.563,0,0,0,.8-2.886,3.41,3.41,0,0,0-1.135-2V8.284A4.743,4.743,0,0,0,166,3.593,9.139,9.139,0,0,0,158.73,0,9.946,9.946,0,0,0,148.8,9.935v1.671a3.43,3.43,0,0,0-1.135,2.008,3.562,3.562,0,0,0,.8,2.886,3.456,3.456,0,0,0,.338.32v9.7a5.9,5.9,0,0,0-3.929,4.839l-.8,6.362,2.348.294Zm20.517-13.9V25.82l-2.367-.676v-.291H163V25.89l-.741,2.963-2.81-1.872-2.81,1.873L155.9,25.89V24.853h-2.367v.291l-2.367.676V17.464a4.7,4.7,0,0,0,1.387,3.348l2.653,2.653a4.7,4.7,0,0,0,3.348,1.387h1.793a4.7,4.7,0,0,0,3.348-1.387l2.653-2.653a4.7,4.7,0,0,0,1.386-3.348Zm-14.2-.288V13.018H156.1a9.192,9.192,0,0,0,5.715-1.97,9.137,9.137,0,0,0,3.55,1.679v4.739a2.354,2.354,0,0,1-.693,1.675l-2.653,2.653a2.355,2.355,0,0,1-1.675.692h-1.793a2.353,2.353,0,0,1-1.675-.694l-2.653-2.653A2.355,2.355,0,0,1,153.529,17.464Zm15.369-3.47a1.185,1.185,0,0,1-1.167,1.391V13.039A1.257,1.257,0,0,1,168.9,13.995ZM151.162,9.935a7.577,7.577,0,0,1,7.568-7.568,6.775,6.775,0,0,1,5.649,3.024l.351.527h.633a2.369,2.369,0,0,1,2.367,2.367v2.385c-.069,0-.134-.018-.2-.018a6.854,6.854,0,0,1-4.878-2.02l-.837-.837-.837.837a6.852,6.852,0,0,1-4.878,2.02h-4.81c-.043,0-.084.009-.127.011ZM150,13.993a1.258,1.258,0,0,1,1.167-.955v2.347a1.177,1.177,0,0,1-.9-.418A1.194,1.194,0,0,1,150,13.993Z" transform="translate(-122.759)"/>
    </g>
  </g>
</svg>
