<svg xmlns="http://www.w3.org/2000/svg" width="65.361" height="81.048" viewBox="0 0 65.361 81.048">
  <defs>
    <style>
      .cls-1 {
        fill: #25d1a1;
      }

      .cls-2 {
        fill: #330c95;
      }
    </style>
  </defs>
  <g id="solution" transform="translate(-7 -1)">
    <path id="Caminho_28591" data-name="Caminho 28591" class="cls-1" d="M60.452,1h-18.3a3.926,3.926,0,0,0-3.922,3.922V7.536a5.229,5.229,0,1,0,0,10.458V24.53H48.687V21.916a2.614,2.614,0,0,1,5.229,0V24.53h6.536a3.926,3.926,0,0,0,3.922-3.922V4.922A3.926,3.926,0,0,0,60.452,1Zm1.307,19.608a1.309,1.309,0,0,1-1.307,1.307H56.53a5.229,5.229,0,1,0-10.458,0H40.843V15.379H38.229a2.614,2.614,0,0,1,0-5.229h2.614V4.922a1.309,1.309,0,0,1,1.307-1.307h18.3a1.309,1.309,0,0,1,1.307,1.307Z" transform="translate(7.988)"/>
    <path id="Caminho_28592" data-name="Caminho 28592" class="cls-2" d="M46.217,25.3a5.234,5.234,0,0,0-5.229,5.229H35.759V23.994H33.144a2.614,2.614,0,1,1,0-5.229h2.614V7h-3.5A25.254,25.254,0,0,0,16.263,51.8l5.116,4.187v3.544a3.9,3.9,0,0,0,.288,7.451,3.884,3.884,0,0,0,2.4,5.161,9.144,9.144,0,0,0,18.16,0,3.885,3.885,0,0,0,2.4-5.162,3.9,3.9,0,0,0,.288-7.451V55.985L50.026,51.8a25.157,25.157,0,0,0,9.263-19.544V30.53H51.445A5.234,5.234,0,0,0,46.217,25.3ZM32.254,9.614h.89v6.536a5.229,5.229,0,1,0,0,10.458V30.53H27.916a5.229,5.229,0,0,0-10.458,0H9.68A22.67,22.67,0,0,1,32.254,9.614ZM17.918,49.776A22.542,22.542,0,0,1,9.633,33.144H20.072V30.53a2.614,2.614,0,1,1,5.229,0v2.614h7.843v5.229a5.229,5.229,0,1,0,0,10.458V59.289H23.994V54.748ZM33.144,77.59a6.548,6.548,0,0,1-6.4-5.229H39.548A6.548,6.548,0,0,1,33.144,77.59Zm7.843-7.843H25.3a1.307,1.307,0,0,1,0-2.614H40.988a1.307,1.307,0,0,1,0,2.614ZM43.6,64.518H22.687a1.307,1.307,0,0,1,0-2.614H43.6a1.307,1.307,0,0,1,0,2.614Zm4.769-14.742-6.076,4.971v4.541H35.759V46.217H33.144a2.614,2.614,0,1,1,0-5.229h2.614V33.144H43.6V30.53a2.614,2.614,0,1,1,5.229,0v2.614h7.825A22.542,22.542,0,0,1,48.371,49.776Z" transform="translate(0 1.843)"/>
  </g>
</svg>
