<svg xmlns="http://www.w3.org/2000/svg" width="76" height="76.176" viewBox="0 0 76 76.176">
  <defs>
    <style>
      .cls-1 {
        fill: #330c95;
      }

      .cls-2 {
        fill: #1dd1a1;
      }
    </style>
  </defs>
  <g id="suporte_paciente" transform="translate(-374 -2512.32)">
    <g id="Grupo_10284" data-name="Grupo 10284" transform="translate(374.001 2524.607)">
      <g id="Grupo_10283" data-name="Grupo 10283" transform="translate(0)">
        <path id="Caminho_28525" data-name="Caminho 28525" class="cls-1" d="M62.311,134.06l-2.844-8.534a8.6,8.6,0,0,0-6.621-5.741l-8.211-1.494v-.636A12.365,12.365,0,0,0,48.3,114.4h2.481a3.69,3.69,0,0,0,3.686-3.686V95.972a15.972,15.972,0,0,0-31.945,0v8.6a4.923,4.923,0,0,0,3.918,4.813,12.309,12.309,0,0,0,5.911,8.269v.636l-8.212,1.494a8.6,8.6,0,0,0-6.62,5.741L17.024,127l-4.185-4.185a1.231,1.231,0,0,1,0-1.739l4.853-4.852-9.109-9.109L3.1,112.6a8.6,8.6,0,0,0,0,12.162L19.7,141.369a8.6,8.6,0,0,0,12.124.037l5.985-5.483-1.866-1.863Zm-10.3-23.344a1.23,1.23,0,0,1-1.229,1.229H49.744a12.2,12.2,0,0,0,.8-2.559,4.867,4.867,0,0,0,1.461-.581Zm-1.229-4.027v-4.231a2.436,2.436,0,0,1,0,4.231Zm-24.573,0a2.436,2.436,0,0,1,0-4.231Zm0-8.259v1.4a4.873,4.873,0,0,0-1.229.509V95.972a13.515,13.515,0,1,1,27.03,0v4.369a4.828,4.828,0,0,0-1.229-.509v-1.4H49.549a13.518,13.518,0,0,1-9.619-3.984l-1.439-1.439-1.439,1.439a13.518,13.518,0,0,1-9.619,3.984Zm2.457,8.6v-6.19a15.929,15.929,0,0,0,9.829-4.367,15.923,15.923,0,0,0,9.829,4.367v6.19a9.755,9.755,0,0,1-1.329,4.915h-8.5V114.4h6.48a9.814,9.814,0,0,1-16.309-7.372Zm13.515,11.72v.058l-3.686,3.686-3.686-3.686v-.058a12.276,12.276,0,0,0,7.372,0ZM19.845,126.3a6.145,6.145,0,0,1,4.729-4.1l8.588-1.56,5.329,5.329,5.327-5.327,8.587,1.56a6.143,6.143,0,0,1,4.729,4.1l1.768,5.3H33.489L28.7,126.817l-5.318,4.81a1.255,1.255,0,0,1-1.737,0l-2.683-2.683ZM8.582,110.592l5.635,5.635-1.334,1.334-5.635-5.635Zm21.544,29.043a6.144,6.144,0,0,1-8.688,0l-16.605-16.6a6.144,6.144,0,0,1,0-8.688l.676-.676,5.635,5.635-.044.044a3.692,3.692,0,0,0,0,5.213l8.811,8.811a3.667,3.667,0,0,0,2.607,1.08,3.618,3.618,0,0,0,2.562-1.037l.092-.082,5.66,5.66Zm2.519-2.31L27,131.677l1.623-1.467,5.638,5.638Z" transform="translate(-0.58 -80)"/>
      </g>
    </g>
    <g id="Grupo_10286" data-name="Grupo 10286" transform="translate(425.427 2512.32)">
      <g id="Grupo_10285" data-name="Grupo 10285">
        <path id="Caminho_28526" data-name="Caminho 28526" class="cls-1" d="M356.315,0h-17.2a3.69,3.69,0,0,0-3.686,3.686v9.829a3.69,3.69,0,0,0,3.686,3.686H342.4l-1.27,7.41,11.856-7.41h3.333A3.69,3.69,0,0,0,360,13.515V3.686A3.69,3.69,0,0,0,356.315,0Zm1.229,13.515a1.231,1.231,0,0,1-1.229,1.229h-4.039l-7.8,4.876.837-4.876h-6.2a1.231,1.231,0,0,1-1.229-1.229V3.686a1.231,1.231,0,0,1,1.229-1.229h17.2a1.231,1.231,0,0,1,1.229,1.229Z" transform="translate(-335.428)"/>
      </g>
    </g>
    <g id="Grupo_10288" data-name="Grupo 10288" transform="translate(430.342 2517.235)">
      <g id="Grupo_10287" data-name="Grupo 10287">
        <rect id="Retângulo_3387" data-name="Retângulo 3387" class="cls-1" width="14.744" height="2.457"/>
      </g>
    </g>
    <g id="Grupo_10290" data-name="Grupo 10290" transform="translate(430.342 2522.149)">
      <g id="Grupo_10289" data-name="Grupo 10289">
        <rect id="Retângulo_3388" data-name="Retângulo 3388" class="cls-1" width="9.829" height="2.457"/>
      </g>
    </g>
    <g id="Grupo_10292" data-name="Grupo 10292" transform="translate(442.628 2522.149)">
      <g id="Grupo_10291" data-name="Grupo 10291">
        <rect id="Retângulo_3389" data-name="Retângulo 3389" class="cls-1" width="2.457" height="2.457"/>
      </g>
    </g>
    <g id="Grupo_10294" data-name="Grupo 10294" transform="translate(374 2516.006)">
      <g id="Grupo_10293" data-name="Grupo 10293" transform="translate(0)">
        <path id="Caminho_28527" data-name="Caminho 28527" class="cls-2" d="M38.484,24A34.38,34.38,0,0,0,5.007,50.594L2.679,46.713.572,47.977l4.319,7.2,7.2-4.319-1.264-2.107-3.33,2A31.953,31.953,0,0,1,47.95,27.883l.727-2.347A34.38,34.38,0,0,0,38.484,24Z" transform="translate(-0.572 -24)"/>
      </g>
    </g>
    <g id="Grupo_10296" data-name="Grupo 10296" transform="translate(436.732 2535.206)">
      <g id="Grupo_10295" data-name="Grupo 10295">
        <path id="Caminho_28528" data-name="Caminho 28528" class="cls-2" d="M421.707,153.335l-7.2-4.319-4.317,7.2,2.107,1.264,2.15-3.584a31.972,31.972,0,0,1-5.415,30.437l1.908,1.548a34.406,34.406,0,0,0,5.888-32.6l3.611,2.166Z" transform="translate(-409.036 -149.016)"/>
      </g>
    </g>
  </g>
</svg>
