<svg id="telephone" xmlns="http://www.w3.org/2000/svg" width="14.489" height="14.489" viewBox="0 0 14.489 14.489">
  <g id="Grupo_9931" data-name="Grupo 9931" transform="translate(7.244 3.864)">
    <g id="Grupo_9930" data-name="Grupo 9930" transform="translate(0)">
      <path id="Caminho_23335" data-name="Caminho 23335" d="M240.482,128a.483.483,0,1,0,0,.966,1.934,1.934,0,0,1,1.932,1.932.483.483,0,1,0,.966,0A2.9,2.9,0,0,0,240.482,128Z" transform="translate(-239.999 -128)" fill="#25d1a2"/>
    </g>
  </g>
  <g id="Grupo_9933" data-name="Grupo 9933" transform="translate(7.244 1.932)">
    <g id="Grupo_9932" data-name="Grupo 9932" transform="translate(0)">
      <path id="Caminho_23336" data-name="Caminho 23336" d="M240.482,64a.483.483,0,1,0,0,.966,3.868,3.868,0,0,1,3.864,3.864.483.483,0,0,0,.966,0A4.835,4.835,0,0,0,240.482,64Z" transform="translate(-239.999 -64)" fill="#25d1a2"/>
    </g>
  </g>
  <g id="Grupo_9935" data-name="Grupo 9935" transform="translate(7.244 0)">
    <g id="Grupo_9934" data-name="Grupo 9934" transform="translate(0 0)">
      <path id="Caminho_23337" data-name="Caminho 23337" d="M240.482,0a.483.483,0,0,0,0,.966,5.8,5.8,0,0,1,5.8,5.8.483.483,0,0,0,.966,0A6.769,6.769,0,0,0,240.482,0Z" transform="translate(-240 0)" fill="#25d1a2"/>
    </g>
  </g>
  <g id="Grupo_9937" data-name="Grupo 9937" transform="translate(0 0.966)">
    <g id="Grupo_9936" data-name="Grupo 9936" transform="translate(0 0)">
      <path id="Caminho_23338" data-name="Caminho 23338" d="M13.04,41.659a8.965,8.965,0,0,1-3.97-.907.474.474,0,0,0-.37-.022.487.487,0,0,0-.277.246l-.759,1.571a12.147,12.147,0,0,1-4.687-4.686L4.547,37.1a.482.482,0,0,0,.223-.647,8.965,8.965,0,0,1-.907-3.97A.483.483,0,0,0,3.381,32H.483A.483.483,0,0,0,0,32.483a13.054,13.054,0,0,0,13.04,13.04.483.483,0,0,0,.483-.483v-2.9A.483.483,0,0,0,13.04,41.659Z" transform="translate(0 -32)" fill="#25d1a2"/>
    </g>
  </g>
</svg>
