<svg xmlns="http://www.w3.org/2000/svg" width="73.25" height="73.25" viewBox="0 0 73.25 73.25">
  <defs>
    <style>
      .cls-1 {
        fill: #330c95;
      }

      .cls-2 {
        fill: #25d1a1;
      }
    </style>
  </defs>
  <g id="visual_aid" transform="translate(-921 -2164)">
    <path id="Caminho_28576" data-name="Caminho 28576" class="cls-1" d="M67.161,48.725v-.467h3.544a3.549,3.549,0,0,0,3.544-3.544V4.544A3.549,3.549,0,0,0,70.706,1H9.27A3.549,3.549,0,0,0,5.726,4.544V31.49l-3.959,9.9A10.722,10.722,0,0,0,2.8,51.317l5.166,7.749L3.693,71.887H1V74.25H74.25V71.887H65.9L64.822,56.822a15.188,15.188,0,0,0,2.339-8.1ZM45.3,55.347,44.67,54.5a15.486,15.486,0,0,1-2.932-7.083,35.4,35.4,0,0,0-2.172-8.126l-.7-1.753a.864.864,0,0,1-.059-.365.731.731,0,0,1,.73-.73A3.525,3.525,0,0,1,43.024,39.4l.346,2.079a2.461,2.461,0,0,0,4.888-.405V25.81a1.181,1.181,0,1,1,2.363,0V41.169h2.363V35.262a1.181,1.181,0,0,1,2.363,0v5.907H57.71V35.262a1.181,1.181,0,0,1,2.363,0v5.907h2.363V37.625a1.181,1.181,0,0,1,2.363,0v11.1a12.831,12.831,0,0,1-1.841,6.622ZM22.266,59.083l1.912-5.734a8.641,8.641,0,0,0,.13-5.091H39.487a17.855,17.855,0,0,0,3.293,7.661l.724.965-1.072,15H22.266ZM62.435,34.3c-.045.017-.093.025-.137.043a3.513,3.513,0,0,0-5.77-1.7,3.435,3.435,0,0,0-3.544-.7V25.81a3.54,3.54,0,0,0-2.363-3.327V16.359a1.181,1.181,0,0,1,2.363,0v4.726a3.544,3.544,0,0,0,7.089,0V17.54H57.71v3.544a1.181,1.181,0,1,1-2.363,0V16.359a3.529,3.529,0,0,0-5.907-2.623,3.485,3.485,0,0,0-3.681-.662A3.536,3.536,0,0,0,38.806,14v13h2.363V14a1.181,1.181,0,0,1,2.363,0V19.9H45.9V16.359a1.181,1.181,0,0,1,2.363,0v6.125A3.54,3.54,0,0,0,45.9,25.81V41.071c0,.1-.18.116-.195.018l-.346-2.079a5.878,5.878,0,0,0-5.817-4.929,3.164,3.164,0,0,0-2.867,4.337l.7,1.751c.132.33.245.666.366,1H20.142L17.693,37.5a2.188,2.188,0,0,0-.152-.177V8.089h44.9ZM38.5,43.532c.219.781.415,1.568.575,2.363H23.27c-.044-.07-.074-.144-.121-.213l-1.433-2.15ZM8.089,4.544A1.183,1.183,0,0,1,9.27,3.363H70.706a1.183,1.183,0,0,1,1.181,1.181V44.714A1.183,1.183,0,0,1,70.706,45.9H67.161v-8.27A3.54,3.54,0,0,0,64.8,34.3V5.726H15.177V36.462A4.9,4.9,0,0,0,11.1,43.8l1.2,2.1H9.27a1.183,1.183,0,0,1-1.181-1.181ZM3.363,45.369a8.322,8.322,0,0,1,.6-3.1l1.765-4.412v6.861A3.549,3.549,0,0,0,9.27,48.258h4.378l1.685,2.949,2.051-1.172-4.233-7.409a2.553,2.553,0,0,1,2.216-3.82h.359l5.458,8.187a6.439,6.439,0,0,1,.75,5.608l-1.7,5.107H9.9l-5.136-7.7a8.332,8.332,0,0,1-1.4-4.636Zm6.759,14.7H19.9V71.887H6.184ZM44.8,71.887,45.814,57.71h16.7L63.53,71.887Z" transform="translate(920 2163)"/>
    <path id="Caminho_28577" data-name="Caminho 28577" class="cls-2" d="M9,17h2.363v9.452H9Z" transform="translate(921.451 2165.903)"/>
    <path id="Caminho_28578" data-name="Caminho 28578" class="cls-2" d="M57,17h2.363v9.452H57Z" transform="translate(930.161 2165.903)"/>
    <path id="Caminho_28579" data-name="Caminho 28579" class="cls-2" d="M33.54,9H17v7.089H33.54Zm-2.363,4.726H19.363V11.363H31.177Z" transform="translate(922.903 2164.452)"/>
    <path id="Caminho_28580" data-name="Caminho 28580" class="cls-2" d="M17,17h9.452v2.363H17Z" transform="translate(922.903 2165.903)"/>
    <path id="Caminho_28581" data-name="Caminho 28581" class="cls-2" d="M27,17h4.726v2.363H27Z" transform="translate(924.718 2165.903)"/>
    <path id="Caminho_28582" data-name="Caminho 28582" class="cls-2" d="M17,21H33.54v2.363H17Z" transform="translate(922.903 2166.629)"/>
    <path id="Caminho_28583" data-name="Caminho 28583" class="cls-2" d="M17,25H33.54v2.363H17Z" transform="translate(922.903 2167.355)"/>
    <path id="Caminho_28584" data-name="Caminho 28584" class="cls-2" d="M17,29h2.363v2.363H17Z" transform="translate(922.903 2168.081)"/>
    <path id="Caminho_28585" data-name="Caminho 28585" class="cls-2" d="M21,29h2.363v2.363H21Z" transform="translate(923.629 2168.081)"/>
    <path id="Caminho_28586" data-name="Caminho 28586" class="cls-2" d="M25,29h2.363v2.363H25Z" transform="translate(924.354 2168.081)"/>
  </g>
</svg>
