<svg id="XMLID_468_" xmlns="http://www.w3.org/2000/svg" width="19.871" height="19.871" viewBox="0 0 19.871 19.871">
  <defs>
    <style>
      .cls-1 {
        fill: #fff;
      }
    </style>
  </defs>
  <path id="XMLID_469_" class="cls-1" d="M90.375,85.928c-.039-.019-1.487-.732-1.745-.825a1,1,0,0,0-.337-.075.574.574,0,0,0-.488.289c-.145.215-.583.727-.718.88-.018.02-.042.044-.056.044s-.237-.092-.305-.122a7.623,7.623,0,0,1-2.9-2.572.16.16,0,0,1-.024-.057.467.467,0,0,1,.085-.1c.079-.078.164-.181.247-.281.039-.047.078-.094.117-.139a1.56,1.56,0,0,0,.235-.374l.032-.065a.676.676,0,0,0-.02-.636c-.034-.069-.646-1.545-.711-1.7-.156-.374-.363-.549-.65-.549-.027,0,0,0-.112,0a3.472,3.472,0,0,0-1.2.31,2.522,2.522,0,0,0-.935,2.145,4.624,4.624,0,0,0,1,2.545l.041.059a9.437,9.437,0,0,0,4.048,3.514,6.583,6.583,0,0,0,2.445.625h0a3.823,3.823,0,0,0,.4-.023l.071-.007a2.57,2.57,0,0,0,1.792-1.268,2,2,0,0,0,.114-1.32A.914.914,0,0,0,90.375,85.928Z" transform="translate(-75.671 -74.509)"/>
  <path id="XMLID_470_" class="cls-1" d="M10.112,0A9.735,9.735,0,0,0,.352,9.687a9.616,9.616,0,0,0,1.338,4.9L.014,19.53a.258.258,0,0,0,.323.329l5.156-1.638A9.776,9.776,0,0,0,19.871,9.687,9.734,9.734,0,0,0,10.112,0Zm0,17.355a7.732,7.732,0,0,1-4.254-1.268.258.258,0,0,0-.22-.03l-2.583.821.834-2.46a.258.258,0,0,0-.036-.235,7.564,7.564,0,0,1-1.472-4.5,7.731,7.731,0,1,1,7.731,7.668Z" transform="translate(0)"/>
</svg>
