<svg id="whatsApp" xmlns="http://www.w3.org/2000/svg" width="16.525" height="16.521" viewBox="0 0 16.525 16.521">
  <defs>
    <style>
      .cls-1 {
        fill: #bfbfbf;
      }
    </style>
  </defs>
  <path id="Caminho_23322" data-name="Caminho 23322" class="cls-1" d="M8.264,0h0A8.257,8.257,0,0,0,1.573,13.1L.543,16.174l3.176-1.015A8.261,8.261,0,1,0,8.264,0Zm4.807,11.667a2.331,2.331,0,0,1-1.621,1.166c-.432.092-1,.165-2.894-.622A10.354,10.354,0,0,1,4.443,8.578a4.718,4.718,0,0,1-.981-2.492,2.638,2.638,0,0,1,.845-2.011,1.2,1.2,0,0,1,.845-.3c.1,0,.194.005.277.009.243.01.365.025.525.408.2.48.685,1.666.743,1.787a.492.492,0,0,1,.035.447,1.428,1.428,0,0,1-.267.379c-.122.14-.237.248-.359.4-.112.131-.237.272-.1.514a7.333,7.333,0,0,0,1.34,1.666,6.074,6.074,0,0,0,1.937,1.195.522.522,0,0,0,.583-.092,10,10,0,0,0,.646-.855.461.461,0,0,1,.593-.18c.223.077,1.4.661,1.646.782s.4.18.462.282a2.046,2.046,0,0,1-.141,1.146Z" transform="translate(0 0)"/>
</svg>
